STARTFONT 2.1
COMMENT
COMMENT Converted from OpenType font "Vollda-Bold.otf" by "otf2bdf 3.0".
COMMENT
FONT -FreeType-Vollda-Bold-R-Normal--22-160-100-100-P-124-ISO10646-1
SIZE 16 100 100
FONTBOUNDINGBOX 71 31 -4 -7
STARTPROPERTIES 19
FOUNDRY "FreeType"
FAMILY_NAME "Vollda"
WEIGHT_NAME "Bold"
SLANT "R"
SETWIDTH_NAME "Normal"
ADD_STYLE_NAME ""
PIXEL_SIZE 22
POINT_SIZE 160
RESOLUTION_X 100
RESOLUTION_Y 100
SPACING "P"
AVERAGE_WIDTH 124
CHARSET_REGISTRY "ISO10646"
CHARSET_ENCODING "1"
FONT_ASCENT 20
FONT_DESCENT 9
COPYRIGHT "Copyright 2023 Vollda (https://github.com/alexburba/vollda)"
_OTF_FONTFILE "Vollda-Bold.otf"
_OTF_PSNAME "Vollda-Bold"
ENDPROPERTIES
CHARS 1220
STARTCHAR 0000
ENCODING 0
SWIDTH 0 0
DWIDTH 0 0
BBX 0 0 0 0
BITMAP
ENDCHAR
STARTCHAR 000D
ENCODING 13
SWIDTH 180 0
DWIDTH 4 0
BBX 0 0 0 0
BITMAP
ENDCHAR
STARTCHAR 0020
ENCODING 32
SWIDTH 180 0
DWIDTH 4 0
BBX 0 0 0 0
BITMAP
ENDCHAR
STARTCHAR 0021
ENCODING 33
SWIDTH 405 0
DWIDTH 9 0
BBX 3 16 3 0
BITMAP
20
E0
E0
E0
E0
E0
E0
60
60
60
40
00
00
E0
E0
E0
ENDCHAR
STARTCHAR 0022
ENCODING 34
SWIDTH 360 0
DWIDTH 8 0
BBX 6 6 1 10
BITMAP
64
EC
4C
4C
4C
4C
ENDCHAR
STARTCHAR 0023
ENCODING 35
SWIDTH 585 0
DWIDTH 13 0
BBX 12 16 1 0
BITMAP
0C40
0840
0840
08C0
18C0
7FF0
1080
1080
1180
3180
FFE0
FFE0
2100
2300
6300
6300
ENDCHAR
STARTCHAR 0024
ENCODING 36
SWIDTH 540 0
DWIDTH 12 0
BBX 11 19 1 -2
BITMAP
0400
0400
3F80
7780
65C0
E4C0
F400
7C00
7F00
3F80
1FC0
0FC0
CDE0
CCE0
EDC0
FDC0
7F00
0C00
0C00
ENDCHAR
STARTCHAR 0025
ENCODING 37
SWIDTH 855 0
DWIDTH 19 0
BBX 15 15 2 0
BITMAP
3C0C
6E0C
C618
C630
C660
ECC0
7980
0180
033C
066E
0CC6
18C6
30C6
3066
607C
ENDCHAR
STARTCHAR 0026
ENCODING 38
SWIDTH 765 0
DWIDTH 17 0
BBX 15 16 1 0
BITMAP
0FC0
1DE0
18E0
3860
1C00
1C00
1E3E
3F1C
7708
6798
E3D0
E1F0
F0F0
70F8
7FFE
3F3E
ENDCHAR
STARTCHAR 0027
ENCODING 39
SWIDTH 225 0
DWIDTH 5 0
BBX 3 6 1 10
BITMAP
60
E0
60
40
40
40
ENDCHAR
STARTCHAR 0028
ENCODING 40
SWIDTH 315 0
DWIDTH 7 0
BBX 5 22 1 -6
BITMAP
18
10
30
60
60
60
E0
E0
C0
C0
C0
C0
C0
E0
E0
60
60
60
30
30
18
08
ENDCHAR
STARTCHAR 0029
ENCODING 41
SWIDTH 315 0
DWIDTH 7 0
BBX 5 22 1 -6
BITMAP
C0
60
60
30
30
38
38
18
18
18
18
18
18
18
18
38
30
30
20
60
40
80
ENDCHAR
STARTCHAR 002A
ENCODING 42
SWIDTH 450 0
DWIDTH 10 0
BBX 8 8 1 9
BITMAP
0C
4C
E8
3F
1B
6C
6C
04
ENDCHAR
STARTCHAR 002B
ENCODING 43
SWIDTH 540 0
DWIDTH 12 0
BBX 10 11 1 0
BITMAP
0C00
0C00
0C00
0C00
0C00
FFC0
0C00
0C00
0C00
0C00
0C00
ENDCHAR
STARTCHAR 002C
ENCODING 44
SWIDTH 270 0
DWIDTH 6 0
BBX 3 7 2 -4
BITMAP
60
E0
E0
60
60
C0
80
ENDCHAR
STARTCHAR 002D
ENCODING 45
SWIDTH 405 0
DWIDTH 9 0
BBX 7 2 1 5
BITMAP
7E
FE
ENDCHAR
STARTCHAR 002E
ENCODING 46
SWIDTH 270 0
DWIDTH 6 0
BBX 4 4 1 0
BITMAP
20
F0
F0
70
ENDCHAR
STARTCHAR 002F
ENCODING 47
SWIDTH 360 0
DWIDTH 8 0
BBX 7 16 1 0
BITMAP
06
06
04
0C
08
08
18
10
30
30
20
60
60
40
C0
80
ENDCHAR
STARTCHAR 0030
ENCODING 48
SWIDTH 585 0
DWIDTH 13 0
BBX 12 11 1 0
BITMAP
1F80
71C0
E0E0
E0F0
E070
E070
E070
F070
70E0
7DC0
1F80
ENDCHAR
STARTCHAR 0031
ENCODING 49
SWIDTH 360 0
DWIDTH 8 0
BBX 7 11 1 0
BITMAP
FE
78
38
38
38
38
38
38
38
7C
FE
ENDCHAR
STARTCHAR 0032
ENCODING 50
SWIDTH 495 0
DWIDTH 11 0
BBX 9 11 1 0
BITMAP
7F00
6780
6380
4380
0700
0E00
1C00
3880
7F80
FF80
FF80
ENDCHAR
STARTCHAR 0033
ENCODING 51
SWIDTH 495 0
DWIDTH 11 0
BBX 9 15 1 -4
BITMAP
FF80
FF80
FF00
C600
0C00
0C00
1F00
1F80
0780
0380
0380
0380
0780
FF00
7C00
ENDCHAR
STARTCHAR 0034
ENCODING 52
SWIDTH 585 0
DWIDTH 13 0
BBX 12 15 1 -4
BITMAP
0180
0380
0780
0F80
1B80
1380
3380
6380
FFF0
FFE0
FFE0
0380
0380
0380
0200
ENDCHAR
STARTCHAR 0035
ENCODING 53
SWIDTH 450 0
DWIDTH 10 0
BBX 9 16 1 -4
BITMAP
0100
7F00
7F00
7F00
4000
4000
FC00
FE00
1F00
0780
0780
0780
0700
0700
FE00
7800
ENDCHAR
STARTCHAR 0036
ENCODING 54
SWIDTH 540 0
DWIDTH 12 0
BBX 10 14 1 0
BITMAP
0780
1E00
3800
7000
7000
EF00
FF80
E3C0
E1C0
E1C0
E1C0
F1C0
7B80
3F00
ENDCHAR
STARTCHAR 0037
ENCODING 55
SWIDTH 450 0
DWIDTH 10 0
BBX 9 15 1 -4
BITMAP
FF80
FF80
FF00
C200
0600
0400
0C00
1C00
1800
3800
3800
3800
3800
3800
2000
ENDCHAR
STARTCHAR 0038
ENCODING 56
SWIDTH 540 0
DWIDTH 12 0
BBX 10 14 1 0
BITMAP
3F00
7380
71C0
71C0
7B80
7F00
3F00
3F80
63C0
E3C0
E1C0
E1C0
7380
3F00
ENDCHAR
STARTCHAR 0039
ENCODING 57
SWIDTH 540 0
DWIDTH 12 0
BBX 11 15 1 -4
BITMAP
3F00
7380
E1C0
E1C0
E1E0
E1E0
F1C0
7FC0
3FC0
01C0
0380
0700
1E00
7800
6000
ENDCHAR
STARTCHAR 003A
ENCODING 58
SWIDTH 270 0
DWIDTH 6 0
BBX 4 10 1 0
BITMAP
60
F0
F0
60
00
00
60
F0
F0
60
ENDCHAR
STARTCHAR 003B
ENCODING 59
SWIDTH 270 0
DWIDTH 6 0
BBX 3 14 2 -4
BITMAP
E0
E0
E0
40
00
00
00
60
E0
E0
60
60
C0
80
ENDCHAR
STARTCHAR 003C
ENCODING 60
SWIDTH 540 0
DWIDTH 12 0
BBX 10 11 1 0
BITMAP
01C0
0780
0E00
3800
6000
E000
7800
1C00
0700
0180
0080
ENDCHAR
STARTCHAR 003D
ENCODING 61
SWIDTH 540 0
DWIDTH 12 0
BBX 10 5 1 3
BITMAP
FFC0
0000
0000
0000
FFC0
ENDCHAR
STARTCHAR 003E
ENCODING 62
SWIDTH 540 0
DWIDTH 12 0
BBX 9 11 2 0
BITMAP
C000
7000
3800
0E00
0380
0180
0700
1C00
7000
E000
8000
ENDCHAR
STARTCHAR 003F
ENCODING 63
SWIDTH 495 0
DWIDTH 11 0
BBX 7 16 3 0
BITMAP
7C
DE
CE
8E
0E
1C
38
38
30
30
30
00
10
38
78
38
ENDCHAR
STARTCHAR 0040
ENCODING 64
SWIDTH 990 0
DWIDTH 22 0
BBX 18 19 2 -4
BITMAP
00F000
07FE00
1C0300
300180
300080
63FCC0
671CC0
471CC0
CE1CC0
CE1CC0
CE3CC0
CF3C80
4F7D80
67DF00
679E00
300000
380180
1E0700
07FC00
ENDCHAR
STARTCHAR 0041
ENCODING 65
SWIDTH 675 0
DWIDTH 15 0
BBX 15 15 0 0
BITMAP
0180
0380
0380
03C0
05C0
05E0
0CE0
08F0
0870
1878
1FF8
3038
303C
703E
F87E
ENDCHAR
STARTCHAR 0042
ENCODING 66
SWIDTH 630 0
DWIDTH 14 0
BBX 13 15 1 0
BITMAP
FFC0
79F0
38F0
3870
3870
38E0
3BC0
3FE0
38F0
3878
3878
3878
3878
7CF0
FFC0
ENDCHAR
STARTCHAR 0043
ENCODING 67
SWIDTH 630 0
DWIDTH 14 0
BBX 12 15 1 0
BITMAP
0FE0
3C70
7030
7030
F030
E000
E000
E000
E000
F000
F000
7800
7800
3FF0
0FE0
ENDCHAR
STARTCHAR 0044
ENCODING 68
SWIDTH 720 0
DWIDTH 16 0
BBX 15 15 1 0
BITMAP
FFC0
78F0
3838
383C
381C
381C
381E
381E
381C
381C
381C
383C
3838
7CF0
FFC0
ENDCHAR
STARTCHAR 0045
ENCODING 69
SWIDTH 585 0
DWIDTH 13 0
BBX 12 15 1 0
BITMAP
FFE0
78E0
3860
3820
3800
3880
3980
3F80
3980
3880
3800
3830
3830
7CF0
FFF0
ENDCHAR
STARTCHAR 0046
ENCODING 70
SWIDTH 585 0
DWIDTH 13 0
BBX 11 15 1 0
BITMAP
FFE0
78E0
3860
3820
3800
3800
38C0
3FC0
3FC0
38C0
38C0
3800
3800
7C00
FE00
ENDCHAR
STARTCHAR 0047
ENCODING 71
SWIDTH 675 0
DWIDTH 15 0
BBX 14 15 1 0
BITMAP
0FF0
3C78
7838
7018
F010
E000
E000
E000
E0FC
F038
F038
7038
7838
3C78
0FE0
ENDCHAR
STARTCHAR 0048
ENCODING 72
SWIDTH 765 0
DWIDTH 17 0
BBX 15 15 1 0
BITMAP
FE7E
7C3C
383C
383C
383C
383C
383C
3FFC
383C
383C
383C
383C
383C
783C
FE7E
ENDCHAR
STARTCHAR 0049
ENCODING 73
SWIDTH 360 0
DWIDTH 8 0
BBX 7 15 1 0
BITMAP
FE
7C
38
38
38
38
38
38
38
38
38
38
38
78
FE
ENDCHAR
STARTCHAR 004A
ENCODING 74
SWIDTH 360 0
DWIDTH 8 0
BBX 7 21 0 -6
BITMAP
7E
3C
3C
3C
3C
3C
3C
3C
3C
3C
3C
3C
3C
3C
38
38
38
30
70
C0
80
ENDCHAR
STARTCHAR 004B
ENCODING 75
SWIDTH 720 0
DWIDTH 16 0
BBX 15 15 1 0
BITMAP
FE7C
7C78
3860
38C0
3980
3B00
3F00
3F80
3F80
3BC0
39E0
38F0
38F0
787C
FE3E
ENDCHAR
STARTCHAR 004C
ENCODING 76
SWIDTH 585 0
DWIDTH 13 0
BBX 12 15 1 0
BITMAP
FE00
7800
3800
3800
3800
3800
3800
3800
3800
3800
3800
3830
3830
7CF0
FFE0
ENDCHAR
STARTCHAR 004D
ENCODING 77
SWIDTH 945 0
DWIDTH 21 0
BBX 20 15 1 0
BITMAP
7C03E0
3C03C0
3C0780
3E0780
3E0FC0
2F0FC0
270BC0
279BC0
2791C0
23D1C0
63F1C0
61E1C0
61E1C0
F0C3E0
F0C7F0
ENDCHAR
STARTCHAR 004E
ENCODING 78
SWIDTH 720 0
DWIDTH 16 0
BBX 14 15 1 0
BITMAP
F83C
7818
3C18
3E18
3F18
2F18
2798
23D8
23D8
21F8
20F8
2078
6078
7038
F818
ENDCHAR
STARTCHAR 004F
ENCODING 79
SWIDTH 720 0
DWIDTH 16 0
BBX 15 15 1 0
BITMAP
0FE0
3CF0
7038
703C
F01C
E01E
E01E
E01E
E01E
F01E
F01C
701C
7838
3C70
0FE0
ENDCHAR
STARTCHAR 0050
ENCODING 80
SWIDTH 630 0
DWIDTH 14 0
BBX 12 15 1 0
BITMAP
FFC0
79E0
38F0
3870
3870
3870
3870
38F0
3BE0
3B80
3800
3800
3800
7C00
FE00
ENDCHAR
STARTCHAR 0051
ENCODING 81
SWIDTH 720 0
DWIDTH 16 0
BBX 16 19 1 -4
BITMAP
0FE0
3CF0
7038
703C
F01C
E01E
E01E
E01E
E01E
F01E
F01C
701C
7838
3C70
0FE0
00F0
003C
003F
001F
ENDCHAR
STARTCHAR 0052
ENCODING 82
SWIDTH 675 0
DWIDTH 15 0
BBX 14 15 1 0
BITMAP
FFC0
78F0
3870
3878
3878
3870
38F0
3FE0
3FC0
39C0
38E0
38F0
38F0
7878
FC7C
ENDCHAR
STARTCHAR 0053
ENCODING 83
SWIDTH 540 0
DWIDTH 12 0
BBX 11 15 1 0
BITMAP
3F80
7380
61C0
E0C0
F000
7C00
7F00
3F80
1FC0
07C0
C1E0
C0E0
E0C0
F3C0
7F00
ENDCHAR
STARTCHAR 0054
ENCODING 84
SWIDTH 630 0
DWIDTH 14 0
BBX 13 15 1 0
BITMAP
FFF8
E738
C718
8718
0700
0700
0700
0700
0700
0700
0700
0700
0700
0F80
3FC0
ENDCHAR
STARTCHAR 0055
ENCODING 85
SWIDTH 675 0
DWIDTH 15 0
BBX 13 15 1 0
BITMAP
FC78
7838
7830
7810
7810
7810
7810
7810
7810
7810
7830
7830
3830
3C60
1FC0
ENDCHAR
STARTCHAR 0056
ENCODING 86
SWIDTH 675 0
DWIDTH 15 0
BBX 15 15 0 0
BITMAP
FE1E
7C0C
3C0C
3C08
1C18
1E10
0E10
0F30
0F20
0760
07C0
03C0
03C0
0380
0180
ENDCHAR
STARTCHAR 0057
ENCODING 87
SWIDTH 990 0
DWIDTH 22 0
BBX 22 15 0 0
BITMAP
FE187C
7C1838
383C10
3C3C10
3C3C30
1C7E20
1E4E20
1E4F60
0ECF40
0F8740
0F87C0
0787C0
070380
070380
030180
ENDCHAR
STARTCHAR 0058
ENCODING 88
SWIDTH 675 0
DWIDTH 15 0
BBX 14 15 1 0
BITMAP
FE7C
7C38
3C30
3C60
1E40
0FC0
0F80
0780
07C0
0FC0
19E0
11E0
30F0
F0F8
F9FC
ENDCHAR
STARTCHAR 0059
ENCODING 89
SWIDTH 630 0
DWIDTH 14 0
BBX 14 15 0 0
BITMAP
FE7C
7C38
3C10
1C30
1E20
0E60
0F40
07C0
0780
0780
0780
0780
0780
07C0
1FE0
ENDCHAR
STARTCHAR 005A
ENCODING 90
SWIDTH 585 0
DWIDTH 13 0
BBX 11 15 1 0
BITMAP
7FE0
71E0
61C0
43C0
0780
0780
0F00
0F00
1E00
1E00
3C00
7860
7860
F0E0
FFE0
ENDCHAR
STARTCHAR 005B
ENCODING 91
SWIDTH 270 0
DWIDTH 6 0
BBX 5 22 1 -6
BITMAP
F8
C0
C0
C0
C0
C0
C0
C0
C0
C0
C0
C0
C0
C0
C0
C0
C0
C0
C0
C0
F0
F8
ENDCHAR
STARTCHAR 005C
ENCODING 92
SWIDTH 360 0
DWIDTH 8 0
BBX 7 16 1 0
BITMAP
80
C0
C0
40
60
20
30
30
10
18
18
08
0C
04
04
06
ENDCHAR
STARTCHAR 005D
ENCODING 93
SWIDTH 270 0
DWIDTH 6 0
BBX 5 22 1 -6
BITMAP
F8
38
18
18
18
18
18
18
18
18
18
18
18
18
18
18
18
18
18
38
78
F8
ENDCHAR
STARTCHAR 005E
ENCODING 94
SWIDTH 540 0
DWIDTH 12 0
BBX 10 7 1 8
BITMAP
0400
0E00
1E00
3300
6180
4080
C0C0
ENDCHAR
STARTCHAR 005F
ENCODING 95
SWIDTH 540 0
DWIDTH 12 0
BBX 11 1 1 -3
BITMAP
FFE0
ENDCHAR
STARTCHAR 0060
ENCODING 96
SWIDTH 270 0
DWIDTH 6 0
BBX 4 4 1 12
BITMAP
E0
60
30
10
ENDCHAR
STARTCHAR 0061
ENCODING 97
SWIDTH 495 0
DWIDTH 11 0
BBX 10 10 1 0
BITMAP
3F00
6F00
E780
E780
0F80
7700
E700
E780
E7C0
FBC0
ENDCHAR
STARTCHAR 0062
ENCODING 98
SWIDTH 585 0
DWIDTH 13 0
BBX 13 16 0 0
BITMAP
1800
F800
7800
3800
3800
3800
3BE0
3CF0
3870
3878
3878
3870
3870
3870
78E0
1FC0
ENDCHAR
STARTCHAR 0063
ENCODING 99
SWIDTH 450 0
DWIDTH 10 0
BBX 9 10 1 0
BITMAP
3F80
7300
E100
E100
E000
E000
E000
F000
7F80
3F00
ENDCHAR
STARTCHAR 0064
ENCODING 100
SWIDTH 585 0
DWIDTH 13 0
BBX 12 16 1 0
BITMAP
0040
03E0
01E0
01E0
01E0
01E0
3FE0
71E0
71E0
E1E0
E1E0
E1E0
E1E0
F1E0
7FF0
7EE0
ENDCHAR
STARTCHAR 0065
ENCODING 101
SWIDTH 495 0
DWIDTH 11 0
BBX 10 10 1 0
BITMAP
3F00
7380
E380
E180
FFC0
F000
E000
F000
7D80
3F00
ENDCHAR
STARTCHAR 0066
ENCODING 102
SWIDTH 360 0
DWIDTH 8 0
BBX 9 16 1 0
BITMAP
0F80
1F80
3980
3980
7800
7800
FE00
7C00
7800
7800
7800
7800
7800
7800
7C00
FE00
ENDCHAR
STARTCHAR 0067
ENCODING 103
SWIDTH 540 0
DWIDTH 12 0
BBX 11 16 1 -6
BITMAP
7FE0
E3A0
E380
E380
E380
7780
7E00
6000
FF80
FFC0
7FC0
C1C0
C0C0
E180
FF00
1800
ENDCHAR
STARTCHAR 0068
ENCODING 104
SWIDTH 630 0
DWIDTH 14 0
BBX 13 16 1 0
BITMAP
3000
F000
7000
7000
7000
7000
77C0
7FE0
70E0
70E0
70E0
70E0
70E0
70E0
78F0
FDF8
ENDCHAR
STARTCHAR 0069
ENCODING 105
SWIDTH 315 0
DWIDTH 7 0
BBX 6 15 1 0
BITMAP
78
78
70
00
00
F8
F8
78
78
78
78
78
78
78
FC
ENDCHAR
STARTCHAR 006A
ENCODING 106
SWIDTH 270 0
DWIDTH 6 0
BBX 6 20 0 -6
BITMAP
38
3C
38
00
00
78
7C
3C
3C
3C
3C
3C
3C
3C
38
38
38
30
70
E0
ENDCHAR
STARTCHAR 006B
ENCODING 107
SWIDTH 585 0
DWIDTH 13 0
BBX 12 16 1 0
BITMAP
3000
F000
7000
7000
7000
7000
71F0
70C0
7180
7300
7700
7780
73C0
71E0
78F0
FCF0
ENDCHAR
STARTCHAR 006C
ENCODING 108
SWIDTH 315 0
DWIDTH 7 0
BBX 6 16 1 0
BITMAP
30
F0
70
70
70
70
70
70
70
70
70
70
70
70
78
FC
ENDCHAR
STARTCHAR 006D
ENCODING 109
SWIDTH 945 0
DWIDTH 21 0
BBX 20 10 1 0
BITMAP
F3C780
FFFFC0
78F1C0
78F1C0
78F1C0
78F1C0
78F1C0
78F1E0
78F1E0
FDFBF0
ENDCHAR
STARTCHAR 006E
ENCODING 110
SWIDTH 630 0
DWIDTH 14 0
BBX 13 10 1 0
BITMAP
FBE0
FFE0
78F0
78F0
78F0
78F0
78F0
78F0
78F0
FDF8
ENDCHAR
STARTCHAR 006F
ENCODING 111
SWIDTH 540 0
DWIDTH 12 0
BBX 11 10 1 0
BITMAP
3F80
73C0
E1C0
E1E0
E0E0
E0E0
E0E0
F1C0
79C0
3F00
ENDCHAR
STARTCHAR 0070
ENCODING 112
SWIDTH 630 0
DWIDTH 14 0
BBX 12 15 1 -5
BITMAP
FBE0
FDF0
7870
7870
7870
7870
7870
78E0
78E0
7F80
7800
7800
7800
7800
FE00
ENDCHAR
STARTCHAR 0071
ENCODING 113
SWIDTH 585 0
DWIDTH 13 0
BBX 12 15 1 -5
BITMAP
3FC0
71E0
F1E0
E1E0
E1E0
E1E0
E1E0
F1E0
7FE0
3DE0
01E0
01E0
01E0
01E0
07F0
ENDCHAR
STARTCHAR 0072
ENCODING 114
SWIDTH 450 0
DWIDTH 10 0
BBX 9 10 1 0
BITMAP
F380
F780
7980
7980
7800
7800
7800
7800
7C00
FE00
ENDCHAR
STARTCHAR 0073
ENCODING 115
SWIDTH 450 0
DWIDTH 10 0
BBX 8 10 1 0
BITMAP
7F
E7
E3
F8
7E
3F
CF
C7
E7
FE
ENDCHAR
STARTCHAR 0074
ENCODING 116
SWIDTH 360 0
DWIDTH 8 0
BBX 8 14 0 0
BITMAP
08
38
38
38
FF
7E
38
38
38
38
38
38
3D
1F
ENDCHAR
STARTCHAR 0075
ENCODING 117
SWIDTH 585 0
DWIDTH 13 0
BBX 13 10 0 0
BITMAP
79F0
F9F0
38F0
38F0
38F0
38F0
38F0
38F0
3FF8
1F70
ENDCHAR
STARTCHAR 0076
ENCODING 118
SWIDTH 540 0
DWIDTH 12 0
BBX 12 10 0 0
BITMAP
FCF0
7860
3840
3C40
1CC0
1E80
0F80
0F00
0700
0600
ENDCHAR
STARTCHAR 0077
ENCODING 119
SWIDTH 765 0
DWIDTH 17 0
BBX 17 10 0 0
BITMAP
FC6780
78E300
38F300
3CF200
1DF200
1D3E00
1F3C00
0E3C00
0E1C00
0E1800
ENDCHAR
STARTCHAR 0078
ENCODING 120
SWIDTH 540 0
DWIDTH 12 0
BBX 11 10 1 0
BITMAP
FDE0
79C0
3980
3F00
1E00
1F00
3780
2780
63C0
F7E0
ENDCHAR
STARTCHAR 0079
ENCODING 121
SWIDTH 540 0
DWIDTH 12 0
BBX 12 15 0 -6
BITMAP
FEF0
7860
3860
3C40
1CC0
1E80
0F80
0F00
0700
0700
0200
0600
0400
7C00
7800
ENDCHAR
STARTCHAR 007A
ENCODING 122
SWIDTH 495 0
DWIDTH 11 0
BBX 10 10 1 0
BITMAP
FF80
E780
CF00
0F00
1E00
3C00
3880
7880
F1C0
FFC0
ENDCHAR
STARTCHAR 007B
ENCODING 123
SWIDTH 360 0
DWIDTH 8 0
BBX 6 23 1 -6
BITMAP
04
1C
38
30
30
38
38
38
38
38
70
C0
70
38
38
38
38
38
38
30
38
18
0C
ENDCHAR
STARTCHAR 007C
ENCODING 124
SWIDTH 180 0
DWIDTH 4 0
BBX 2 21 1 -5
BITMAP
C0
C0
C0
C0
C0
C0
C0
C0
C0
C0
C0
C0
C0
C0
C0
C0
C0
C0
C0
C0
C0
ENDCHAR
STARTCHAR 007D
ENCODING 125
SWIDTH 360 0
DWIDTH 8 0
BBX 7 23 1 -6
BITMAP
80
E0
30
30
38
38
30
30
70
38
38
0E
3C
38
70
70
30
38
38
30
30
70
C0
ENDCHAR
STARTCHAR 007E
ENCODING 126
SWIDTH 540 0
DWIDTH 12 0
BBX 10 3 1 4
BITMAP
7C40
CFC0
8380
ENDCHAR
STARTCHAR 00A0
ENCODING 160
SWIDTH 180 0
DWIDTH 4 0
BBX 0 0 0 0
BITMAP
ENDCHAR
STARTCHAR 00A1
ENCODING 161
SWIDTH 405 0
DWIDTH 9 0
BBX 3 16 3 -6
BITMAP
E0
E0
E0
00
00
40
40
60
E0
E0
E0
E0
E0
E0
E0
80
ENDCHAR
STARTCHAR 00A2
ENCODING 162
SWIDTH 450 0
DWIDTH 10 0
BBX 9 17 1 -3
BITMAP
0800
0C00
0C00
0C00
3F80
7F00
ED00
ED00
EC00
EC00
EC00
FC00
7F80
3F00
0C00
0C00
0C00
ENDCHAR
STARTCHAR 00A3
ENCODING 163
SWIDTH 540 0
DWIDTH 12 0
BBX 11 15 1 0
BITMAP
1FC0
39C0
70C0
70C0
7000
7800
7C00
FF00
FF00
3800
3800
3720
3FE0
7FC0
C3C0
ENDCHAR
STARTCHAR 00A4
ENCODING 164
SWIDTH 540 0
DWIDTH 12 0
BBX 10 9 1 1
BITMAP
CCC0
7F80
2180
6180
6080
6180
3100
7F80
40C0
ENDCHAR
STARTCHAR 00A5
ENCODING 165
SWIDTH 630 0
DWIDTH 14 0
BBX 14 15 0 0
BITMAP
FE7C
7C38
3C10
1C30
1E20
0E60
3F70
3FF0
0780
3FF0
3FF0
0780
0780
07C0
1FE0
ENDCHAR
STARTCHAR 00A6
ENCODING 166
SWIDTH 180 0
DWIDTH 4 0
BBX 2 21 1 -5
BITMAP
C0
C0
C0
C0
C0
C0
C0
C0
C0
00
00
00
C0
C0
C0
C0
C0
C0
C0
C0
C0
ENDCHAR
STARTCHAR 00A7
ENCODING 167
SWIDTH 540 0
DWIDTH 12 0
BBX 10 21 1 -5
BITMAP
1F00
3F00
6100
7100
7000
7C00
3F00
3F80
67C0
E1C0
E0C0
E0C0
F8C0
7F80
3F00
1F80
0780
2380
2180
3180
3F00
ENDCHAR
STARTCHAR 00A8
ENCODING 168
SWIDTH 270 0
DWIDTH 6 0
BBX 9 3 -1 12
BITMAP
6300
E780
E700
ENDCHAR
STARTCHAR 00A9
ENCODING 169
SWIDTH 765 0
DWIDTH 17 0
BBX 16 16 1 -3
BITMAP
03C0
0E70
1008
23E4
6666
4C22
CC23
DC03
DC03
CC02
4E02
67E6
33CC
1818
0FF0
0180
ENDCHAR
STARTCHAR 00AA
ENCODING 170
SWIDTH 405 0
DWIDTH 9 0
BBX 8 8 1 8
BITMAP
7C
4E
4E
3E
6E
CE
FF
FE
ENDCHAR
STARTCHAR 00AB
ENCODING 171
SWIDTH 495 0
DWIDTH 11 0
BBX 9 7 1 2
BITMAP
1980
3300
6700
E600
7700
3300
1980
ENDCHAR
STARTCHAR 00AC
ENCODING 172
SWIDTH 540 0
DWIDTH 12 0
BBX 10 5 1 2
BITMAP
FFC0
FFC0
0040
0040
0040
ENDCHAR
STARTCHAR 00AD
ENCODING 173
SWIDTH 405 0
DWIDTH 9 0
BBX 7 2 1 5
BITMAP
7E
FE
ENDCHAR
STARTCHAR 00AE
ENCODING 174
SWIDTH 495 0
DWIDTH 11 0
BBX 10 10 1 8
BITMAP
0C00
3300
4180
5E80
92C0
9CC0
5280
4080
3300
0C00
ENDCHAR
STARTCHAR 00AF
ENCODING 175
SWIDTH 270 0
DWIDTH 6 0
BBX 8 1 -1 13
BITMAP
FF
ENDCHAR
STARTCHAR 00B0
ENCODING 176
SWIDTH 405 0
DWIDTH 9 0
BBX 7 6 1 10
BITMAP
10
7C
C6
C6
66
7C
ENDCHAR
STARTCHAR 00B1
ENCODING 177
SWIDTH 540 0
DWIDTH 12 0
BBX 10 10 1 1
BITMAP
0C00
0C00
0C00
7F80
7F80
0C00
0C00
0C00
0000
FFC0
ENDCHAR
STARTCHAR 00B2
ENCODING 178
SWIDTH 360 0
DWIDTH 8 0
BBX 7 8 1 9
BITMAP
F8
DC
CC
1C
38
66
FE
FE
ENDCHAR
STARTCHAR 00B3
ENCODING 179
SWIDTH 360 0
DWIDTH 8 0
BBX 7 11 1 6
BITMAP
FC
FC
D8
10
38
3C
0E
0E
0C
FC
60
ENDCHAR
STARTCHAR 00B4
ENCODING 180
SWIDTH 270 0
DWIDTH 6 0
BBX 4 4 1 12
BITMAP
70
60
60
C0
ENDCHAR
STARTCHAR 00B5
ENCODING 181
SWIDTH 630 0
DWIDTH 14 0
BBX 13 15 1 -5
BITMAP
F3E0
F3E0
70E0
70E0
70E0
70E0
70E0
79E0
7FF8
7EF0
7000
7000
7000
7000
6000
ENDCHAR
STARTCHAR 00B6
ENCODING 182
SWIDTH 585 0
DWIDTH 13 0
BBX 12 21 1 -6
BITMAP
3FF0
72C0
E2C0
E2C0
E2C0
E2C0
F2C0
7EC0
02C0
02C0
02C0
02C0
02C0
02C0
02C0
02C0
02C0
02C0
02C0
02C0
0080
ENDCHAR
STARTCHAR 00B7
ENCODING 183
SWIDTH 270 0
DWIDTH 6 0
BBX 4 3 1 5
BITMAP
F0
F0
60
ENDCHAR
STARTCHAR 00B8
ENCODING 184
SWIDTH 270 0
DWIDTH 6 0
BBX 3 5 2 -5
BITMAP
C0
C0
60
60
E0
ENDCHAR
STARTCHAR 00B9
ENCODING 185
SWIDTH 315 0
DWIDTH 7 0
BBX 5 8 1 9
BITMAP
F8
78
70
70
70
70
70
F8
ENDCHAR
STARTCHAR 00BA
ENCODING 186
SWIDTH 405 0
DWIDTH 9 0
BBX 8 8 1 8
BITMAP
3C
6E
E7
C7
C7
E7
E6
7C
ENDCHAR
STARTCHAR 00BB
ENCODING 187
SWIDTH 495 0
DWIDTH 11 0
BBX 9 7 1 2
BITMAP
C400
6700
3380
3B80
3300
6600
4400
ENDCHAR
STARTCHAR 00BC
ENCODING 188
SWIDTH 855 0
DWIDTH 19 0
BBX 18 16 1 0
BITMAP
780300
F80600
380400
380C00
381800
383000
383300
386700
78CF00
FF8B00
019300
033300
063FC0
043B00
0C0700
180F80
ENDCHAR
STARTCHAR 00BD
ENCODING 189
SWIDTH 945 0
DWIDTH 21 0
BBX 20 16 1 0
BITMAP
780300
F80600
380400
380C00
381800
383000
3837E0
3866F0
78C670
FF8470
0180E0
0301C0
060390
0407F0
0C07F0
1807F0
ENDCHAR
STARTCHAR 00BE
ENCODING 190
SWIDTH 855 0
DWIDTH 19 0
BBX 17 16 1 0
BITMAP
FC0200
FC0600
980C00
100800
3C1800
3E3000
0E6300
0E6700
9CCF00
F99F00
031700
032700
067F80
0C3F00
180700
180F80
ENDCHAR
STARTCHAR 00BF
ENCODING 191
SWIDTH 495 0
DWIDTH 11 0
BBX 7 16 2 -6
BITMAP
38
38
38
00
00
18
18
18
38
78
F0
E0
E6
E6
FE
38
ENDCHAR
STARTCHAR 00C0
ENCODING 192
SWIDTH 675 0
DWIDTH 15 0
BBX 15 19 0 0
BITMAP
0700
0300
0180
0000
0180
0380
0380
03C0
05C0
05E0
0CE0
08F0
0870
1878
1FF8
3038
303C
703E
F87E
ENDCHAR
STARTCHAR 00C1
ENCODING 193
SWIDTH 675 0
DWIDTH 15 0
BBX 15 20 0 0
BITMAP
0040
01C0
0180
0100
0000
0180
0380
0380
03C0
05C0
05E0
0CE0
08F0
0870
1878
1FF8
3038
303C
703E
F87E
ENDCHAR
STARTCHAR 00C2
ENCODING 194
SWIDTH 675 0
DWIDTH 15 0
BBX 15 20 0 0
BITMAP
0180
03C0
0EE0
0820
0000
0180
0380
0380
03C0
05C0
05E0
0CE0
08F0
0870
1878
1FF8
3038
303C
703E
F87E
ENDCHAR
STARTCHAR 00C3
ENCODING 195
SWIDTH 675 0
DWIDTH 15 0
BBX 15 19 0 0
BITMAP
0FB0
0FE0
0080
0000
0180
0380
0380
03C0
05C0
05E0
0CE0
08F0
0870
1878
1FF8
3038
303C
703E
F87E
ENDCHAR
STARTCHAR 00C4
ENCODING 196
SWIDTH 675 0
DWIDTH 15 0
BBX 15 19 0 0
BITMAP
0E70
1EF0
0C60
0000
0180
0380
0380
03C0
05C0
05E0
0CE0
08F0
0870
1878
1FF8
3038
303C
703E
F87E
ENDCHAR
STARTCHAR 00C5
ENCODING 197
SWIDTH 675 0
DWIDTH 15 0
BBX 15 20 0 0
BITMAP
0380
06C0
0640
0380
0000
0180
0380
0380
03C0
05C0
05E0
0CE0
08F0
0870
1878
1FF8
3038
303C
703E
F87E
ENDCHAR
STARTCHAR 00C6
ENCODING 198
SWIDTH 945 0
DWIDTH 21 0
BBX 21 15 0 0
BITMAP
01FFE0
00FCF0
00FC30
00BC30
01BC00
033CC0
023CC0
07FFC0
07FFC0
0C3CC0
083C40
183C18
303C30
703C70
F87FF0
ENDCHAR
STARTCHAR 00C7
ENCODING 199
SWIDTH 630 0
DWIDTH 14 0
BBX 12 20 1 -5
BITMAP
0FE0
3C70
7030
7030
F030
E000
E000
E000
E000
F000
F000
7800
7800
3FF0
0FE0
0200
0700
0180
0180
0700
ENDCHAR
STARTCHAR 00C8
ENCODING 200
SWIDTH 585 0
DWIDTH 13 0
BBX 12 19 1 0
BITMAP
1C00
0C00
0600
0000
FFE0
78E0
3860
3820
3800
3880
3980
3F80
3980
3880
3800
3830
3830
7CF0
FFF0
ENDCHAR
STARTCHAR 00C9
ENCODING 201
SWIDTH 585 0
DWIDTH 13 0
BBX 12 20 1 0
BITMAP
0100
0700
0600
0400
0000
FFE0
78E0
3860
3820
3800
3880
3980
3F80
3980
3880
3800
3830
3830
7CF0
FFF0
ENDCHAR
STARTCHAR 00CA
ENCODING 202
SWIDTH 585 0
DWIDTH 13 0
BBX 12 20 1 0
BITMAP
0600
0F00
3B80
2080
0000
FFE0
78E0
3860
3820
3800
3880
3980
3F80
3980
3880
3800
3830
3830
7CF0
FFF0
ENDCHAR
STARTCHAR 00CB
ENCODING 203
SWIDTH 585 0
DWIDTH 13 0
BBX 12 19 1 0
BITMAP
39C0
79C0
3180
0000
FFE0
78E0
3860
3820
3800
3880
3980
3F80
3980
3880
3800
3830
3830
7CF0
FFF0
ENDCHAR
STARTCHAR 00CC
ENCODING 204
SWIDTH 360 0
DWIDTH 8 0
BBX 7 19 1 0
BITMAP
60
30
10
00
FE
7C
38
38
38
38
38
38
38
38
38
38
38
78
FE
ENDCHAR
STARTCHAR 00CD
ENCODING 205
SWIDTH 360 0
DWIDTH 8 0
BBX 7 20 1 0
BITMAP
0C
18
18
30
00
FE
7C
38
38
38
38
38
38
38
38
38
38
38
78
FE
ENDCHAR
STARTCHAR 00CE
ENCODING 206
SWIDTH 360 0
DWIDTH 8 0
BBX 7 19 1 1
BITMAP
38
7C
CE
00
FE
7C
38
38
38
38
38
38
38
38
38
38
38
78
FE
ENDCHAR
STARTCHAR 00CF
ENCODING 207
SWIDTH 360 0
DWIDTH 8 0
BBX 8 19 0 0
BITMAP
67
F7
67
00
7F
3E
1C
1C
1C
1C
1C
1C
1C
1C
1C
1C
1C
3C
7F
ENDCHAR
STARTCHAR 00D0
ENCODING 208
SWIDTH 720 0
DWIDTH 16 0
BBX 15 15 1 0
BITMAP
FFC0
78F0
3838
383C
381C
381C
381E
FF1E
381C
381C
381C
383C
3838
7CF0
FFC0
ENDCHAR
STARTCHAR 00D1
ENCODING 209
SWIDTH 720 0
DWIDTH 16 0
BBX 14 19 1 0
BITMAP
0F20
1FE0
0080
0000
F83C
7818
3C18
3E18
3F18
2F18
2798
23D8
23D8
21F8
20F8
2078
6078
7038
F818
ENDCHAR
STARTCHAR 00D2
ENCODING 210
SWIDTH 720 0
DWIDTH 16 0
BBX 15 19 1 0
BITMAP
0600
0300
0100
0000
0FE0
3CF0
7038
703C
F01C
E01E
E01E
E01E
E01E
F01E
F01C
701C
7838
3C70
0FE0
ENDCHAR
STARTCHAR 00D3
ENCODING 211
SWIDTH 720 0
DWIDTH 16 0
BBX 15 20 1 0
BITMAP
00C0
01C0
0180
0300
0000
0FE0
3CF0
7038
703C
F01C
E01E
E01E
E01E
E01E
F01E
F01C
701C
7838
3C70
0FE0
ENDCHAR
STARTCHAR 00D4
ENCODING 212
SWIDTH 720 0
DWIDTH 16 0
BBX 15 20 1 0
BITMAP
0100
0780
0FE0
0860
0000
0FE0
3CF0
7038
703C
F01C
E01E
E01E
E01E
E01E
F01E
F01C
701C
7838
3C70
0FE0
ENDCHAR
STARTCHAR 00D5
ENCODING 213
SWIDTH 720 0
DWIDTH 16 0
BBX 15 19 1 0
BITMAP
0F20
1FE0
0080
0000
0FE0
3CF0
7038
703C
F01C
E01E
E01E
E01E
E01E
F01E
F01C
701C
7838
3C70
0FE0
ENDCHAR
STARTCHAR 00D6
ENCODING 214
SWIDTH 720 0
DWIDTH 16 0
BBX 15 19 1 0
BITMAP
1CE0
1CF0
0C60
0000
0FE0
3CF0
7038
703C
F01C
E01E
E01E
E01E
E01E
F01E
F01C
701C
7838
3C70
0FE0
ENDCHAR
STARTCHAR 00D7
ENCODING 215
SWIDTH 540 0
DWIDTH 12 0
BBX 10 10 1 0
BITMAP
C0C0
6180
7180
3300
1E00
0C00
1E00
3300
6180
C0C0
ENDCHAR
STARTCHAR 00D8
ENCODING 216
SWIDTH 720 0
DWIDTH 16 0
BBX 15 16 1 0
BITMAP
0FEC
3CF8
7038
707C
F07C
E0DE
E19E
E31E
E31E
F61E
FC1C
781C
7838
3C70
6FE0
4000
ENDCHAR
STARTCHAR 00D9
ENCODING 217
SWIDTH 675 0
DWIDTH 15 0
BBX 13 19 1 0
BITMAP
0700
0300
0180
0000
FC78
7838
7830
7810
7810
7810
7810
7810
7810
7810
7830
7830
3830
3C60
1FC0
ENDCHAR
STARTCHAR 00DA
ENCODING 218
SWIDTH 675 0
DWIDTH 15 0
BBX 13 20 1 0
BITMAP
00C0
01C0
0180
0300
0000
FC78
7838
7830
7810
7810
7810
7810
7810
7810
7810
7830
7830
3830
3C60
1FC0
ENDCHAR
STARTCHAR 00DB
ENCODING 219
SWIDTH 675 0
DWIDTH 15 0
BBX 13 20 1 0
BITMAP
0100
03C0
0FE0
0860
0000
FC78
7838
7830
7810
7810
7810
7810
7810
7810
7810
7830
7830
3830
3C60
1FC0
ENDCHAR
STARTCHAR 00DC
ENCODING 220
SWIDTH 675 0
DWIDTH 15 0
BBX 13 19 1 0
BITMAP
0EF0
1EF0
0C60
0000
FC78
7838
7830
7810
7810
7810
7810
7810
7810
7810
7830
7830
3830
3C60
1FC0
ENDCHAR
STARTCHAR 00DD
ENCODING 221
SWIDTH 630 0
DWIDTH 14 0
BBX 14 20 0 0
BITMAP
0060
00C0
0180
0180
0000
FE7C
7C38
3C10
1C30
1E20
0E60
0F40
07C0
0780
0780
0780
0780
0780
07C0
1FE0
ENDCHAR
STARTCHAR 00DE
ENCODING 222
SWIDTH 630 0
DWIDTH 14 0
BBX 12 15 1 0
BITMAP
FE00
7800
3800
3FC0
39F0
3870
3870
3870
3870
3870
3BE0
3B80
3800
7C00
FE00
ENDCHAR
STARTCHAR 00DF
ENCODING 223
SWIDTH 675 0
DWIDTH 15 0
BBX 13 16 1 0
BITMAP
0780
1FE0
38E0
3860
7860
78C0
FB80
FB80
7BC0
7BF0
79F8
7878
7A38
7B38
7B38
FBF0
ENDCHAR
STARTCHAR 00E0
ENCODING 224
SWIDTH 540 0
DWIDTH 12 0
BBX 11 16 1 0
BITMAP
3000
3800
1800
0C00
0000
0000
1F00
3780
7380
F380
0F80
3B80
7380
7380
73E0
7FE0
ENDCHAR
STARTCHAR 00E1
ENCODING 225
SWIDTH 540 0
DWIDTH 12 0
BBX 11 16 1 0
BITMAP
0700
0600
0C00
0C00
0000
0000
1F00
3780
7380
F380
0F80
3B80
7380
7380
73E0
7FE0
ENDCHAR
STARTCHAR 00E2
ENCODING 226
SWIDTH 540 0
DWIDTH 12 0
BBX 11 16 1 0
BITMAP
0C00
1E00
3F00
6380
4000
0000
1F00
3780
7380
F380
0F80
3B80
7380
7380
73E0
7FE0
ENDCHAR
STARTCHAR 00E3
ENCODING 227
SWIDTH 540 0
DWIDTH 12 0
BBX 11 15 1 0
BITMAP
3880
7F00
0600
0000
0000
1F00
3780
7380
F380
0F80
3B80
7380
7380
73E0
7FE0
ENDCHAR
STARTCHAR 00E4
ENCODING 228
SWIDTH 540 0
DWIDTH 12 0
BBX 11 15 1 0
BITMAP
6300
7380
7380
0000
0000
1F00
3780
7380
F380
0F80
3B80
7380
7380
73E0
7FE0
ENDCHAR
STARTCHAR 00E5
ENCODING 229
SWIDTH 540 0
DWIDTH 12 0
BBX 11 16 1 0
BITMAP
1E00
3600
3200
3E00
0000
0000
1F00
3780
7380
F380
0F80
3B80
7380
7380
73E0
7FE0
ENDCHAR
STARTCHAR 00E6
ENCODING 230
SWIDTH 720 0
DWIDTH 16 0
BBX 14 10 1 0
BITMAP
FEF8
679C
679C
078C
1FFC
7780
E780
E780
FDFC
78F8
ENDCHAR
STARTCHAR 00E7
ENCODING 231
SWIDTH 450 0
DWIDTH 10 0
BBX 9 15 1 -5
BITMAP
3F80
7300
E100
E100
E000
E000
E000
F000
7F80
3F00
0800
1C00
0600
0600
1C00
ENDCHAR
STARTCHAR 00E8
ENCODING 232
SWIDTH 495 0
DWIDTH 11 0
BBX 10 16 1 0
BITMAP
3800
1800
1800
0C00
0000
0000
3F00
7380
E380
E180
FFC0
F000
E000
F000
7D80
3F00
ENDCHAR
STARTCHAR 00E9
ENCODING 233
SWIDTH 495 0
DWIDTH 11 0
BBX 10 16 1 0
BITMAP
0700
0600
0600
0C00
0000
0000
3F00
7380
E380
E180
FFC0
F000
E000
F000
7D80
3F00
ENDCHAR
STARTCHAR 00EA
ENCODING 234
SWIDTH 495 0
DWIDTH 11 0
BBX 10 16 1 0
BITMAP
0C00
1E00
3F00
6380
0000
0000
3F00
7380
E380
E180
FFC0
F000
E000
F000
7D80
3F00
ENDCHAR
STARTCHAR 00EB
ENCODING 235
SWIDTH 495 0
DWIDTH 11 0
BBX 10 15 1 0
BITMAP
2100
7380
7380
0000
0000
3F00
7380
E380
E180
FFC0
F000
E000
F000
7D80
3F00
ENDCHAR
STARTCHAR 00EC
ENCODING 236
SWIDTH 315 0
DWIDTH 7 0
BBX 6 16 1 0
BITMAP
E0
E0
60
30
00
00
F8
F8
78
78
78
78
78
78
78
FC
ENDCHAR
STARTCHAR 00ED
ENCODING 237
SWIDTH 315 0
DWIDTH 7 0
BBX 6 16 1 0
BITMAP
1C
18
30
30
00
00
F8
F8
78
78
78
78
78
78
78
FC
ENDCHAR
STARTCHAR 00EE
ENCODING 238
SWIDTH 315 0
DWIDTH 7 0
BBX 7 16 0 0
BITMAP
18
3C
7C
C6
40
00
7C
7C
3C
3C
3C
3C
3C
3C
3C
7E
ENDCHAR
STARTCHAR 00EF
ENCODING 239
SWIDTH 315 0
DWIDTH 7 0
BBX 8 15 0 0
BITMAP
46
EF
EF
00
00
7C
7C
3C
3C
3C
3C
3C
3C
3C
7E
ENDCHAR
STARTCHAR 00F0
ENCODING 240
SWIDTH 540 0
DWIDTH 12 0
BBX 11 16 1 0
BITMAP
1C00
3EC0
0FC0
0F80
1B80
01C0
3FC0
71E0
E1E0
E0E0
E0E0
E1E0
E1C0
F1C0
7380
3F00
ENDCHAR
STARTCHAR 00F1
ENCODING 241
SWIDTH 630 0
DWIDTH 14 0
BBX 13 15 1 0
BITMAP
1E40
3FC0
2380
0000
0000
FBE0
FFE0
78F0
78F0
78F0
78F0
78F0
78F0
78F0
FDF8
ENDCHAR
STARTCHAR 00F2
ENCODING 242
SWIDTH 540 0
DWIDTH 12 0
BBX 11 16 1 0
BITMAP
3800
1800
0C00
0C00
0000
0000
3F80
73C0
E1C0
E1E0
E0E0
E0E0
E0E0
F1C0
79C0
3F00
ENDCHAR
STARTCHAR 00F3
ENCODING 243
SWIDTH 540 0
DWIDTH 12 0
BBX 11 16 1 0
BITMAP
0300
0700
0600
0400
0000
0000
3F80
73C0
E1C0
E1E0
E0E0
E0E0
E0E0
F1C0
79C0
3F00
ENDCHAR
STARTCHAR 00F4
ENCODING 244
SWIDTH 540 0
DWIDTH 12 0
BBX 11 16 1 0
BITMAP
0600
0E00
1F00
7180
0000
0000
3F80
73C0
E1C0
E1E0
E0E0
E0E0
E0E0
F1C0
79C0
3F00
ENDCHAR
STARTCHAR 00F5
ENCODING 245
SWIDTH 540 0
DWIDTH 12 0
BBX 11 15 1 0
BITMAP
3C80
7F80
4700
0000
0000
3F80
73C0
E1C0
E1E0
E0E0
E0E0
E0E0
F1C0
79C0
3F00
ENDCHAR
STARTCHAR 00F6
ENCODING 246
SWIDTH 540 0
DWIDTH 12 0
BBX 11 15 1 0
BITMAP
3180
7380
7380
0000
0000
3F80
73C0
E1C0
E1E0
E0E0
E0E0
E0E0
F1C0
79C0
3F00
ENDCHAR
STARTCHAR 00F7
ENCODING 247
SWIDTH 540 0
DWIDTH 12 0
BBX 10 10 1 1
BITMAP
0C00
0E00
0C00
0000
FFC0
FFC0
0000
0400
0E00
0E00
ENDCHAR
STARTCHAR 00F8
ENCODING 248
SWIDTH 540 0
DWIDTH 12 0
BBX 11 12 1 -1
BITMAP
0060
3FC0
73C0
E3E0
E7E0
E6E0
ECE0
F8E0
F1C0
79C0
FF00
8000
ENDCHAR
STARTCHAR 00F9
ENCODING 249
SWIDTH 585 0
DWIDTH 13 0
BBX 13 16 0 0
BITMAP
0C00
0E00
0600
0300
0000
0000
79F0
F9F0
38F0
38F0
38F0
38F0
38F0
38F0
3FF8
1F70
ENDCHAR
STARTCHAR 00FA
ENCODING 250
SWIDTH 585 0
DWIDTH 13 0
BBX 13 16 0 0
BITMAP
01C0
0180
0300
0300
0000
0000
79F0
F9F0
38F0
38F0
38F0
38F0
38F0
38F0
3FF8
1F70
ENDCHAR
STARTCHAR 00FB
ENCODING 251
SWIDTH 585 0
DWIDTH 13 0
BBX 13 16 0 0
BITMAP
0300
0780
0FC0
18E0
1000
0000
79F0
F9F0
38F0
38F0
38F0
38F0
38F0
38F0
3FF8
1F70
ENDCHAR
STARTCHAR 00FC
ENCODING 252
SWIDTH 585 0
DWIDTH 13 0
BBX 13 15 0 0
BITMAP
18C0
3DE0
1CE0
0000
0000
79F0
F9F0
38F0
38F0
38F0
38F0
38F0
38F0
3FF8
1F70
ENDCHAR
STARTCHAR 00FD
ENCODING 253
SWIDTH 540 0
DWIDTH 12 0
BBX 12 21 0 -6
BITMAP
01C0
0180
0180
0300
0000
0000
FEF0
7860
3860
3C40
1CC0
1E80
0F80
0F00
0700
0700
0200
0600
0400
7C00
7800
ENDCHAR
STARTCHAR 00FE
ENCODING 254
SWIDTH 585 0
DWIDTH 13 0
BBX 12 21 1 -5
BITMAP
3000
F000
7000
7000
7000
7000
77E0
7DF0
78F0
7870
7070
7070
7070
70E0
79C0
7F80
7000
7000
7000
7800
FE00
ENDCHAR
STARTCHAR 00FF
ENCODING 255
SWIDTH 540 0
DWIDTH 12 0
BBX 12 20 0 -6
BITMAP
0840
1CE0
1CE0
0000
0000
FEF0
7860
3860
3C40
1CC0
1E80
0F80
0F00
0700
0700
0200
0600
0400
7C00
7800
ENDCHAR
STARTCHAR 0100
ENCODING 256
SWIDTH 675 0
DWIDTH 15 0
BBX 15 18 0 0
BITMAP
1FF0
0000
0000
0180
0380
0380
03C0
05C0
05E0
0CE0
08F0
0870
1878
1FF8
3038
303C
703E
F87E
ENDCHAR
STARTCHAR 0101
ENCODING 257
SWIDTH 540 0
DWIDTH 12 0
BBX 11 14 1 0
BITMAP
7F80
0000
0000
0000
1F00
3780
7380
F380
0F80
3B80
7380
7380
73E0
7FE0
ENDCHAR
STARTCHAR 0102
ENCODING 258
SWIDTH 675 0
DWIDTH 15 0
BBX 15 19 0 0
BITMAP
0C20
0FE0
03C0
0000
0180
0380
0380
03C0
05C0
05E0
0CE0
08F0
0870
1878
1FF8
3038
303C
703E
F87E
ENDCHAR
STARTCHAR 0103
ENCODING 259
SWIDTH 540 0
DWIDTH 12 0
BBX 11 16 1 0
BITMAP
4180
6180
7F00
3F00
0000
0000
1F00
3780
7380
F380
0F80
3B80
7380
7380
73E0
7FE0
ENDCHAR
STARTCHAR 0104
ENCODING 260
SWIDTH 675 0
DWIDTH 15 0
BBX 15 21 0 -6
BITMAP
0180
0380
0380
03C0
05C0
05E0
0CE0
08F0
0870
1878
1FF8
3038
303C
703E
F87E
0018
0070
0060
007C
007C
0010
ENDCHAR
STARTCHAR 0105
ENCODING 261
SWIDTH 540 0
DWIDTH 12 0
BBX 11 16 1 -6
BITMAP
1F00
3780
7380
F380
0F80
3B80
7380
7380
73E0
7FE0
0300
0700
0700
07C0
07C0
0100
ENDCHAR
STARTCHAR 0106
ENCODING 262
SWIDTH 630 0
DWIDTH 14 0
BBX 12 20 1 0
BITMAP
00C0
01C0
0180
0300
0000
0FE0
3C70
7030
7030
F030
E000
E000
E000
E000
F000
F000
7800
7800
3FF0
0FE0
ENDCHAR
STARTCHAR 0107
ENCODING 263
SWIDTH 450 0
DWIDTH 10 0
BBX 9 16 1 0
BITMAP
0700
0600
0600
0C00
0000
0000
3F80
7300
E100
E100
E000
E000
E000
F000
7F80
3F00
ENDCHAR
STARTCHAR 0108
ENCODING 264
SWIDTH 630 0
DWIDTH 14 0
BBX 12 20 1 0
BITMAP
0100
0780
0FE0
0860
0000
0FE0
3C70
7030
7030
F030
E000
E000
E000
E000
F000
F000
7800
7800
3FF0
0FE0
ENDCHAR
STARTCHAR 0109
ENCODING 265
SWIDTH 450 0
DWIDTH 10 0
BBX 9 16 1 0
BITMAP
0C00
1E00
3F00
6380
0000
0000
3F80
7300
E100
E100
E000
E000
E000
F000
7F80
3F00
ENDCHAR
STARTCHAR 010A
ENCODING 266
SWIDTH 630 0
DWIDTH 14 0
BBX 12 19 1 0
BITMAP
0380
0780
0380
0000
0FE0
3C70
7030
7030
F030
E000
E000
E000
E000
F000
F000
7800
7800
3FF0
0FE0
ENDCHAR
STARTCHAR 010B
ENCODING 267
SWIDTH 450 0
DWIDTH 10 0
BBX 9 15 1 0
BITMAP
0C00
1E00
1E00
0000
0000
3F80
7300
E100
E100
E000
E000
E000
F000
7F80
3F00
ENDCHAR
STARTCHAR 010C
ENCODING 268
SWIDTH 630 0
DWIDTH 14 0
BBX 12 20 1 0
BITMAP
0800
0EE0
0780
0300
0000
0FE0
3C70
7030
7030
F030
E000
E000
E000
E000
F000
F000
7800
7800
3FF0
0FE0
ENDCHAR
STARTCHAR 010D
ENCODING 269
SWIDTH 450 0
DWIDTH 10 0
BBX 9 16 1 0
BITMAP
4180
7300
3E00
1C00
0800
0000
3F80
7300
E100
E100
E000
E000
E000
F000
7F80
3F00
ENDCHAR
STARTCHAR 010E
ENCODING 270
SWIDTH 720 0
DWIDTH 16 0
BBX 15 20 1 0
BITMAP
0840
1DC0
0F80
0200
0000
FFC0
78F0
3838
383C
381C
381C
381E
381E
381C
381C
381C
383C
3838
7CF0
FFC0
ENDCHAR
STARTCHAR 010F
ENCODING 271
SWIDTH 720 0
DWIDTH 16 0
BBX 15 16 1 0
BITMAP
0046
03EE
01EE
01E6
01E6
01EC
3FE0
71E0
61E0
E1E0
E1E0
E1E0
E1E0
F1E0
7EF0
3CE0
ENDCHAR
STARTCHAR 0110
ENCODING 272
SWIDTH 720 0
DWIDTH 16 0
BBX 15 15 1 0
BITMAP
FFC0
78F0
3838
383C
381C
381C
381E
FF1E
381C
381C
381C
383C
3838
7CF0
FFC0
ENDCHAR
STARTCHAR 0111
ENCODING 273
SWIDTH 585 0
DWIDTH 13 0
BBX 12 16 1 0
BITMAP
0040
03E0
01E0
07F0
07E0
01E0
3FE0
71E0
71E0
E1E0
E1E0
E1E0
E1E0
F1E0
7FF0
7EE0
ENDCHAR
STARTCHAR 0112
ENCODING 274
SWIDTH 585 0
DWIDTH 13 0
BBX 12 18 1 0
BITMAP
3FC0
0000
0000
FFE0
78E0
3860
3820
3800
3880
3980
3F80
3980
3880
3800
3830
3830
7CF0
FFF0
ENDCHAR
STARTCHAR 0113
ENCODING 275
SWIDTH 495 0
DWIDTH 11 0
BBX 10 14 1 0
BITMAP
7F80
0000
0000
0000
3F00
7380
E380
E180
FFC0
F000
E000
F000
7D80
3F00
ENDCHAR
STARTCHAR 0114
ENCODING 276
SWIDTH 585 0
DWIDTH 13 0
BBX 12 19 1 0
BITMAP
3080
3F80
0F00
0000
FFE0
78E0
3860
3820
3800
3880
3980
3F80
3980
3880
3800
3830
3830
7CF0
FFF0
ENDCHAR
STARTCHAR 0115
ENCODING 277
SWIDTH 495 0
DWIDTH 11 0
BBX 10 16 1 0
BITMAP
4080
6180
7F80
3F00
0000
0000
3F00
7380
E380
E180
FFC0
F000
E000
F000
7D80
3F00
ENDCHAR
STARTCHAR 0116
ENCODING 278
SWIDTH 585 0
DWIDTH 13 0
BBX 12 19 1 0
BITMAP
0E00
0F00
0E00
0000
FFE0
78E0
3860
3820
3800
3880
3980
3F80
3980
3880
3800
3830
3830
7CF0
FFF0
ENDCHAR
STARTCHAR 0117
ENCODING 279
SWIDTH 495 0
DWIDTH 11 0
BBX 10 15 1 0
BITMAP
0C00
1E00
1E00
0000
0000
3F00
7380
E380
E180
FFC0
F000
E000
F000
7D80
3F00
ENDCHAR
STARTCHAR 0118
ENCODING 280
SWIDTH 585 0
DWIDTH 13 0
BBX 12 21 1 -6
BITMAP
FFE0
78E0
3860
3820
3800
3880
3980
3F80
3980
3880
3800
3830
3830
7CF0
FFF0
0180
0300
0300
03E0
03E0
0080
ENDCHAR
STARTCHAR 0119
ENCODING 281
SWIDTH 495 0
DWIDTH 11 0
BBX 10 16 1 -6
BITMAP
3F00
7380
E380
E180
FFC0
F000
E000
F000
7D80
3F00
0600
0E00
0E00
0F80
0F80
0200
ENDCHAR
STARTCHAR 011A
ENCODING 282
SWIDTH 585 0
DWIDTH 13 0
BBX 12 20 1 0
BITMAP
0080
3B80
1F00
0C00
0000
FFE0
78E0
3860
3820
3800
3880
3980
3F80
3980
3880
3800
3830
3830
7CF0
FFF0
ENDCHAR
STARTCHAR 011B
ENCODING 283
SWIDTH 495 0
DWIDTH 11 0
BBX 10 16 1 0
BITMAP
4180
7300
3E00
1C00
0800
0000
3F00
7380
E380
E180
FFC0
F000
E000
F000
7D80
3F00
ENDCHAR
STARTCHAR 011C
ENCODING 284
SWIDTH 675 0
DWIDTH 15 0
BBX 14 20 1 0
BITMAP
0100
03C0
0FE0
0860
0000
0FF0
3C78
7838
7018
F010
E000
E000
E000
E0FC
F038
F038
7038
7838
3C78
0FE0
ENDCHAR
STARTCHAR 011D
ENCODING 285
SWIDTH 540 0
DWIDTH 12 0
BBX 11 22 1 -6
BITMAP
0C00
1E00
3F00
6380
4000
0000
7FE0
E3A0
E380
E380
E380
7780
7E00
6000
FF80
FFC0
7FC0
C1C0
C0C0
E180
FF00
1800
ENDCHAR
STARTCHAR 011E
ENCODING 286
SWIDTH 675 0
DWIDTH 15 0
BBX 14 19 1 0
BITMAP
0C60
0FE0
07C0
0000
0FF0
3C78
7838
7018
F010
E000
E000
E000
E0FC
F038
F038
7038
7838
3C78
0FE0
ENDCHAR
STARTCHAR 011F
ENCODING 287
SWIDTH 540 0
DWIDTH 12 0
BBX 11 22 1 -6
BITMAP
4180
6180
7F00
3F00
0000
0000
7FE0
E3A0
E380
E380
E380
7780
7E00
6000
FF80
FFC0
7FC0
C1C0
C0C0
E180
FF00
1800
ENDCHAR
STARTCHAR 0120
ENCODING 288
SWIDTH 675 0
DWIDTH 15 0
BBX 14 19 1 0
BITMAP
0380
0380
0380
0000
0FF0
3C78
7838
7018
F010
E000
E000
E000
E0FC
F038
F038
7038
7838
3C78
0FE0
ENDCHAR
STARTCHAR 0121
ENCODING 289
SWIDTH 540 0
DWIDTH 12 0
BBX 11 21 1 -6
BITMAP
1C00
1C00
1C00
0000
0000
7FE0
E3A0
E380
E380
E380
7780
7E00
6000
FF80
FFC0
7FC0
C1C0
C0C0
E180
FF00
1800
ENDCHAR
STARTCHAR 0122
ENCODING 290
SWIDTH 675 0
DWIDTH 15 0
BBX 14 22 1 -7
BITMAP
0FF0
3C78
7838
7018
F010
E000
E000
E000
E0FC
F038
F038
7038
7838
3C78
0FE0
0000
0380
0380
0380
0180
0300
0200
ENDCHAR
STARTCHAR 0123
ENCODING 291
SWIDTH 540 0
DWIDTH 12 0
BBX 11 22 1 -6
BITMAP
0C00
1800
1C00
1C00
1000
0000
7FE0
E3A0
E380
E380
E380
7780
7E00
6000
FF80
FFC0
7FC0
C1C0
C0C0
E180
FF00
1800
ENDCHAR
STARTCHAR 0124
ENCODING 292
SWIDTH 765 0
DWIDTH 17 0
BBX 15 20 1 0
BITMAP
0180
03C0
0EE0
0820
0000
FE7E
7C3C
383C
383C
383C
383C
383C
3FFC
383C
383C
383C
383C
383C
783C
FE7E
ENDCHAR
STARTCHAR 0125
ENCODING 293
SWIDTH 630 0
DWIDTH 14 0
BBX 13 20 1 0
BITMAP
0600
0F00
3B80
2080
3000
F000
7000
7000
7000
7000
77C0
7FE0
70E0
70E0
70E0
70E0
70E0
70E0
78F0
FDF8
ENDCHAR
STARTCHAR 0126
ENCODING 294
SWIDTH 765 0
DWIDTH 17 0
BBX 15 15 1 0
BITMAP
FE7E
7C3C
383C
383C
FFFE
383C
383C
3FFC
383C
383C
383C
383C
383C
783C
FE7E
ENDCHAR
STARTCHAR 0127
ENCODING 295
SWIDTH 630 0
DWIDTH 14 0
BBX 14 16 0 0
BITMAP
1800
7800
3800
3800
FF00
3800
3BE0
3FF0
3870
3870
3870
3870
3870
3870
3C78
7EFC
ENDCHAR
STARTCHAR 0128
ENCODING 296
SWIDTH 360 0
DWIDTH 8 0
BBX 7 19 1 0
BITMAP
76
FE
1C
00
FE
7C
38
38
38
38
38
38
38
38
38
38
38
78
FE
ENDCHAR
STARTCHAR 0129
ENCODING 297
SWIDTH 315 0
DWIDTH 7 0
BBX 7 15 0 0
BITMAP
30
7E
DE
00
00
7C
7C
3C
3C
3C
3C
3C
3C
3C
7E
ENDCHAR
STARTCHAR 012A
ENCODING 298
SWIDTH 360 0
DWIDTH 8 0
BBX 7 18 1 0
BITMAP
FE
00
00
FE
7C
38
38
38
38
38
38
38
38
38
38
38
78
FE
ENDCHAR
STARTCHAR 012B
ENCODING 299
SWIDTH 315 0
DWIDTH 7 0
BBX 6 14 1 0
BITMAP
FC
00
00
00
F8
F8
78
78
78
78
78
78
78
FC
ENDCHAR
STARTCHAR 012C
ENCODING 300
SWIDTH 360 0
DWIDTH 8 0
BBX 7 19 1 0
BITMAP
C6
FC
7C
00
FE
7C
38
38
38
38
38
38
38
38
38
38
38
78
FE
ENDCHAR
STARTCHAR 012D
ENCODING 301
SWIDTH 315 0
DWIDTH 7 0
BBX 7 16 0 0
BITMAP
C2
C2
7E
7C
00
00
7C
7C
3C
3C
3C
3C
3C
3C
3C
7E
ENDCHAR
STARTCHAR 012E
ENCODING 302
SWIDTH 360 0
DWIDTH 8 0
BBX 7 21 1 -6
BITMAP
FE
7C
38
38
38
38
38
38
38
38
38
38
38
78
FE
30
60
E0
FC
7C
20
ENDCHAR
STARTCHAR 012F
ENCODING 303
SWIDTH 315 0
DWIDTH 7 0
BBX 6 21 1 -6
BITMAP
78
78
70
00
00
F8
F8
78
78
78
78
78
78
78
FC
30
60
E0
F8
F8
20
ENDCHAR
STARTCHAR 0130
ENCODING 304
SWIDTH 360 0
DWIDTH 8 0
BBX 7 19 1 0
BITMAP
38
78
38
00
FE
7C
38
38
38
38
38
38
38
38
38
38
38
78
FE
ENDCHAR
STARTCHAR 0131
ENCODING 305
SWIDTH 315 0
DWIDTH 7 0
BBX 6 10 1 0
BITMAP
F8
F8
78
78
78
78
78
78
78
FC
ENDCHAR
STARTCHAR 0132
ENCODING 306
SWIDTH 675 0
DWIDTH 15 0
BBX 14 20 1 -6
BITMAP
FFFC
7CF8
3870
3870
3870
3870
3870
3870
3870
3870
3870
3870
3870
7870
FE70
0070
00E0
00E0
01C0
0380
ENDCHAR
STARTCHAR 0133
ENCODING 307
SWIDTH 585 0
DWIDTH 13 0
BBX 11 21 1 -6
BITMAP
79E0
79E0
70C0
0000
0000
FBE0
FBE0
78E0
78E0
78E0
78E0
78E0
78E0
78E0
FCE0
00E0
01C0
01C0
0380
0300
0200
ENDCHAR
STARTCHAR 0134
ENCODING 308
SWIDTH 360 0
DWIDTH 8 0
BBX 7 25 0 -5
BITMAP
1C
7C
66
00
7E
3C
3C
3C
3C
3C
3C
3C
3C
3C
3C
3C
3C
3C
38
38
38
30
70
C0
80
ENDCHAR
STARTCHAR 0135
ENCODING 309
SWIDTH 270 0
DWIDTH 6 0
BBX 7 21 0 -6
BITMAP
18
38
7C
C6
00
00
78
7C
3C
3C
3C
3C
3C
3C
3C
38
38
38
30
70
E0
ENDCHAR
STARTCHAR 0136
ENCODING 310
SWIDTH 720 0
DWIDTH 16 0
BBX 15 22 1 -7
BITMAP
FE7C
7C78
3860
38C0
3980
3B00
3F00
3F80
3F80
3BC0
39E0
38F0
38F0
787C
FE3E
0000
0380
0780
0380
0300
0300
0200
ENDCHAR
STARTCHAR 0137
ENCODING 311
SWIDTH 585 0
DWIDTH 13 0
BBX 12 23 1 -7
BITMAP
3000
F000
7000
7000
7000
7000
71F0
70C0
7180
7300
7700
7780
73C0
71E0
78F0
FCF0
0000
0600
0E00
0600
0600
0C00
0800
ENDCHAR
STARTCHAR 0138
ENCODING 312
SWIDTH 585 0
DWIDTH 13 0
BBX 12 10 1 0
BITMAP
FBF0
F9C0
7B00
7E00
7F00
7F80
7BC0
7BC0
79E0
FCF0
ENDCHAR
STARTCHAR 0139
ENCODING 313
SWIDTH 585 0
DWIDTH 13 0
BBX 12 20 1 0
BITMAP
0C00
1800
1800
3000
0000
FE00
7800
3800
3800
3800
3800
3800
3800
3800
3800
3800
3830
3830
7CF0
FFE0
ENDCHAR
STARTCHAR 013A
ENCODING 314
SWIDTH 315 0
DWIDTH 7 0
BBX 6 20 1 0
BITMAP
18
30
30
00
30
F0
70
70
70
70
70
70
70
70
70
70
70
70
78
FC
ENDCHAR
STARTCHAR 013B
ENCODING 315
SWIDTH 585 0
DWIDTH 13 0
BBX 12 22 1 -7
BITMAP
FE00
7800
3800
3800
3800
3800
3800
3800
3800
3800
3800
3830
3830
7CF0
FFE0
0000
0600
0F00
0600
0600
0400
0800
ENDCHAR
STARTCHAR 013C
ENCODING 316
SWIDTH 315 0
DWIDTH 7 0
BBX 6 23 1 -7
BITMAP
30
F0
70
70
70
70
70
70
70
70
70
70
70
70
78
FC
00
30
78
30
30
20
40
ENDCHAR
STARTCHAR 013D
ENCODING 317
SWIDTH 585 0
DWIDTH 13 0
BBX 12 16 1 0
BITMAP
0070
FEF0
78F0
3830
3860
3860
3800
3800
3800
3800
3800
3800
3830
3830
7CF0
FFE0
ENDCHAR
STARTCHAR 013E
ENCODING 318
SWIDTH 450 0
DWIDTH 10 0
BBX 9 16 1 0
BITMAP
3180
F380
7380
7180
7180
7300
7000
7000
7000
7000
7000
7000
7000
7000
7800
FC00
ENDCHAR
STARTCHAR 013F
ENCODING 319
SWIDTH 585 0
DWIDTH 13 0
BBX 12 15 1 0
BITMAP
FE00
7800
3800
3800
3800
3800
3860
3860
3800
3800
3800
3830
3830
7CF0
FFE0
ENDCHAR
STARTCHAR 0140
ENCODING 320
SWIDTH 315 0
DWIDTH 7 0
BBX 8 16 1 0
BITMAP
30
F0
70
70
70
70
70
77
77
72
70
70
70
70
78
FC
ENDCHAR
STARTCHAR 0141
ENCODING 321
SWIDTH 585 0
DWIDTH 13 0
BBX 13 15 0 0
BITMAP
7F00
3C00
1C00
1C00
1C00
1D00
1F00
1C00
7C00
FC00
1C00
1C18
1C18
3E78
7FF0
ENDCHAR
STARTCHAR 0142
ENCODING 322
SWIDTH 315 0
DWIDTH 7 0
BBX 8 16 0 0
BITMAP
18
78
38
38
38
38
3B
3E
3C
78
F8
38
38
38
3C
7E
ENDCHAR
STARTCHAR 0143
ENCODING 323
SWIDTH 720 0
DWIDTH 16 0
BBX 14 20 1 0
BITMAP
00C0
0180
0380
0300
0000
F83C
7818
3C18
3E18
3F18
2F18
2798
23D8
23D8
21F8
20F8
2078
6078
7038
F818
ENDCHAR
STARTCHAR 0144
ENCODING 324
SWIDTH 630 0
DWIDTH 14 0
BBX 13 16 1 0
BITMAP
01C0
0380
0300
0200
0000
0000
FBE0
FFE0
78F0
78F0
78F0
78F0
78F0
78F0
78F0
FDF8
ENDCHAR
STARTCHAR 0145
ENCODING 325
SWIDTH 720 0
DWIDTH 16 0
BBX 14 22 1 -7
BITMAP
F83C
7818
3C18
3E18
3F18
2F18
2798
23D8
23D8
21F8
20F8
2078
6078
7038
F818
0000
0180
0380
0180
0180
0300
0200
ENDCHAR
STARTCHAR 0146
ENCODING 326
SWIDTH 630 0
DWIDTH 14 0
BBX 13 17 1 -7
BITMAP
FBE0
FFE0
78F0
78F0
78F0
78F0
78F0
78F0
78F0
FDF8
0000
0700
0700
0700
0300
0600
0400
ENDCHAR
STARTCHAR 0147
ENCODING 327
SWIDTH 720 0
DWIDTH 16 0
BBX 14 20 1 0
BITMAP
0800
0EE0
0780
0300
0000
F83C
7818
3C18
3E18
3F18
2F18
2798
23D8
23D8
21F8
20F8
2078
6078
7038
F818
ENDCHAR
STARTCHAR 0148
ENCODING 328
SWIDTH 630 0
DWIDTH 14 0
BBX 13 16 1 0
BITMAP
1040
19C0
0F80
0700
0000
0000
FBE0
FFE0
78F0
78F0
78F0
78F0
78F0
78F0
78F0
FDF8
ENDCHAR
STARTCHAR 0149
ENCODING 329
SWIDTH 810 0
DWIDTH 18 0
BBX 17 16 1 0
BITMAP
300000
700000
700000
300000
200000
600000
CFBE00
0FFE00
078F00
038700
038700
038700
038700
038700
078F00
0FDF80
ENDCHAR
STARTCHAR 014A
ENCODING 330
SWIDTH 675 0
DWIDTH 15 0
BBX 13 21 1 -6
BITMAP
79F0
FFF8
7C78
3838
3838
3838
3838
3838
3838
3838
3838
3838
3838
7C38
FE38
0038
0038
0030
03F0
03E0
0080
ENDCHAR
STARTCHAR 014B
ENCODING 331
SWIDTH 630 0
DWIDTH 14 0
BBX 12 16 1 -6
BITMAP
FBC0
FFE0
78F0
78F0
78F0
78F0
78F0
78F0
78F0
FCE0
00E0
00E0
00C0
0FC0
0F80
0200
ENDCHAR
STARTCHAR 014C
ENCODING 332
SWIDTH 720 0
DWIDTH 16 0
BBX 15 18 1 0
BITMAP
1FE0
0000
0000
0FE0
3CF0
7038
703C
F01C
E01E
E01E
E01E
E01E
F01E
F01C
701C
7838
3C70
0FE0
ENDCHAR
STARTCHAR 014D
ENCODING 333
SWIDTH 540 0
DWIDTH 12 0
BBX 11 14 1 0
BITMAP
7F80
0000
0000
0000
3F80
73C0
E1C0
E1E0
E0E0
E0E0
E0E0
F1C0
79C0
3F00
ENDCHAR
STARTCHAR 014E
ENCODING 334
SWIDTH 720 0
DWIDTH 16 0
BBX 15 19 1 0
BITMAP
0C60
0FE0
0780
0000
0FE0
3CF0
7038
703C
F01C
E01E
E01E
E01E
E01E
F01E
F01C
701C
7838
3C70
0FE0
ENDCHAR
STARTCHAR 014F
ENCODING 335
SWIDTH 540 0
DWIDTH 12 0
BBX 11 16 1 0
BITMAP
6080
6080
7F80
3F00
0000
0000
3F80
73C0
E1C0
E1E0
E0E0
E0E0
E0E0
F1C0
79C0
3F00
ENDCHAR
STARTCHAR 0150
ENCODING 336
SWIDTH 720 0
DWIDTH 16 0
BBX 15 20 1 0
BITMAP
0330
0660
0660
0440
0000
0FE0
3CF0
7038
703C
F01C
E01E
E01E
E01E
E01E
F01E
F01C
701C
7838
3C70
0FE0
ENDCHAR
STARTCHAR 0151
ENCODING 337
SWIDTH 540 0
DWIDTH 12 0
BBX 11 16 1 0
BITMAP
1DC0
1980
1980
3300
0000
0000
3F80
73C0
E1C0
E1E0
E0E0
E0E0
E0E0
F1C0
79C0
3F00
ENDCHAR
STARTCHAR 0152
ENCODING 338
SWIDTH 990 0
DWIDTH 22 0
BBX 20 15 1 0
BITMAP
0FFFE0
38F060
707830
703830
E03C00
E01CC0
E01CC0
E01FC0
E01CC0
E01CC0
F03C00
703810
783830
3C7070
0FFFF0
ENDCHAR
STARTCHAR 0153
ENCODING 339
SWIDTH 810 0
DWIDTH 18 0
BBX 17 10 1 0
BITMAP
3F7E00
73E700
E1E700
E1C380
E1FF80
E1F000
E1E000
F1E000
73FB00
3F3E00
ENDCHAR
STARTCHAR 0154
ENCODING 340
SWIDTH 675 0
DWIDTH 15 0
BBX 14 20 1 0
BITMAP
0180
0300
0700
0600
0000
FFC0
78F0
3870
3878
3878
3870
38F0
3FE0
3FC0
39C0
38E0
38F0
38F0
7878
FC7C
ENDCHAR
STARTCHAR 0155
ENCODING 341
SWIDTH 450 0
DWIDTH 10 0
BBX 9 16 1 0
BITMAP
0700
0600
0C00
0C00
0000
0000
F380
F780
7980
7980
7800
7800
7800
7800
7C00
FE00
ENDCHAR
STARTCHAR 0156
ENCODING 342
SWIDTH 675 0
DWIDTH 15 0
BBX 14 22 1 -7
BITMAP
FFC0
78F0
3870
3878
3878
3870
38F0
3FE0
3FC0
39C0
38E0
38F0
38F0
7878
FC7C
0000
0380
0780
0380
0180
0300
0200
ENDCHAR
STARTCHAR 0157
ENCODING 343
SWIDTH 450 0
DWIDTH 10 0
BBX 9 17 1 -7
BITMAP
F380
F780
7980
7980
7800
7800
7800
7800
7C00
FE00
0000
3800
3800
3800
1800
3000
2000
ENDCHAR
STARTCHAR 0158
ENCODING 344
SWIDTH 675 0
DWIDTH 15 0
BBX 14 20 1 0
BITMAP
1000
1DC0
0F00
0600
0000
FFC0
78F0
3870
3878
3878
3870
38F0
3FE0
3FC0
39C0
38E0
38F0
38F0
7878
FC7C
ENDCHAR
STARTCHAR 0159
ENCODING 345
SWIDTH 450 0
DWIDTH 10 0
BBX 9 16 1 0
BITMAP
4100
7300
3E00
1C00
0000
0000
F380
F780
7980
7980
7800
7800
7800
7800
7C00
FE00
ENDCHAR
STARTCHAR 015A
ENCODING 346
SWIDTH 540 0
DWIDTH 12 0
BBX 11 20 1 0
BITMAP
0300
0700
0600
0C00
0000
3F80
7380
61C0
E0C0
F000
7C00
7F00
3F80
1FC0
07C0
C1E0
C0E0
E0C0
F3C0
7F00
ENDCHAR
STARTCHAR 015B
ENCODING 347
SWIDTH 450 0
DWIDTH 10 0
BBX 8 16 1 0
BITMAP
0E
0C
0C
18
00
00
7F
E7
E3
F8
7E
3F
CF
C7
E7
FE
ENDCHAR
STARTCHAR 015C
ENCODING 348
SWIDTH 540 0
DWIDTH 12 0
BBX 11 20 1 0
BITMAP
0400
1E00
3F80
2180
0000
3F80
7380
61C0
E0C0
F000
7C00
7F00
3F80
1FC0
07C0
C1E0
C0E0
E0C0
F3C0
7F00
ENDCHAR
STARTCHAR 015D
ENCODING 349
SWIDTH 450 0
DWIDTH 10 0
BBX 8 16 1 0
BITMAP
18
3C
7E
C3
00
00
7F
E7
E3
F8
7E
3F
CF
C7
E7
FE
ENDCHAR
STARTCHAR 015E
ENCODING 350
SWIDTH 540 0
DWIDTH 12 0
BBX 11 20 1 -5
BITMAP
3F80
7380
61C0
E0C0
F000
7C00
7F00
3F80
1FC0
07C0
C1E0
C0E0
E0C0
F3C0
7F00
0C00
0C00
0600
0600
0E00
ENDCHAR
STARTCHAR 015F
ENCODING 351
SWIDTH 450 0
DWIDTH 10 0
BBX 8 15 1 -5
BITMAP
7F
E7
E3
F8
7E
3F
CF
C7
E7
FE
10
38
1C
0C
38
ENDCHAR
STARTCHAR 0160
ENCODING 352
SWIDTH 540 0
DWIDTH 12 0
BBX 11 20 1 0
BITMAP
2000
3B80
1E00
0C00
0000
3F80
7380
61C0
E0C0
F000
7C00
7F00
3F80
1FC0
07C0
C1E0
C0E0
E0C0
F3C0
7F00
ENDCHAR
STARTCHAR 0161
ENCODING 353
SWIDTH 450 0
DWIDTH 10 0
BBX 8 16 1 0
BITMAP
81
E7
7C
38
10
00
7F
E7
E3
F8
7E
3F
CF
C7
E7
FE
ENDCHAR
STARTCHAR 0162
ENCODING 354
SWIDTH 630 0
DWIDTH 14 0
BBX 13 20 1 -5
BITMAP
FFF8
E738
C718
8718
0700
0700
0700
0700
0700
0700
0700
0700
0700
0F80
3FC0
0400
0E00
0300
0300
0E00
ENDCHAR
STARTCHAR 0163
ENCODING 355
SWIDTH 360 0
DWIDTH 8 0
BBX 8 19 0 -5
BITMAP
08
38
38
38
FF
7E
38
38
38
38
38
38
3D
1F
08
1C
0E
06
1C
ENDCHAR
STARTCHAR 0164
ENCODING 356
SWIDTH 630 0
DWIDTH 14 0
BBX 13 20 1 0
BITMAP
1000
1DC0
0F00
0600
0000
FFF8
E738
C718
8718
0700
0700
0700
0700
0700
0700
0700
0700
0700
0F80
3FC0
ENDCHAR
STARTCHAR 0165
ENCODING 357
SWIDTH 495 0
DWIDTH 11 0
BBX 12 16 0 0
BITMAP
0070
00F0
08F0
3830
3860
3860
FF00
7E00
3800
3800
3800
3800
3800
3800
3D00
1F00
ENDCHAR
STARTCHAR 0166
ENCODING 358
SWIDTH 630 0
DWIDTH 14 0
BBX 13 15 1 0
BITMAP
FFF8
E738
C718
8718
0700
0700
0700
3FE0
0700
0700
0700
0700
0700
0F80
3FC0
ENDCHAR
STARTCHAR 0167
ENCODING 359
SWIDTH 360 0
DWIDTH 8 0
BBX 8 14 0 0
BITMAP
08
38
38
38
FF
7E
38
38
FE
38
38
38
3D
1F
ENDCHAR
STARTCHAR 0168
ENCODING 360
SWIDTH 675 0
DWIDTH 15 0
BBX 13 19 1 0
BITMAP
0FB0
1FE0
0080
0000
FC78
7838
7830
7810
7810
7810
7810
7810
7810
7810
7830
7830
3830
3C60
1FC0
ENDCHAR
STARTCHAR 0169
ENCODING 361
SWIDTH 585 0
DWIDTH 13 0
BBX 13 15 0 0
BITMAP
0E20
3FC0
0180
0000
0000
79F0
F9F0
38F0
38F0
38F0
38F0
38F0
38F0
3FF8
1F70
ENDCHAR
STARTCHAR 016A
ENCODING 362
SWIDTH 675 0
DWIDTH 15 0
BBX 13 18 1 0
BITMAP
1FF0
0000
0000
FC78
7838
7830
7810
7810
7810
7810
7810
7810
7810
7830
7830
3830
3C60
1FC0
ENDCHAR
STARTCHAR 016B
ENCODING 363
SWIDTH 585 0
DWIDTH 13 0
BBX 13 14 0 0
BITMAP
1FE0
0000
0000
0000
79F0
F9F0
38F0
38F0
38F0
38F0
38F0
38F0
3FF8
1F70
ENDCHAR
STARTCHAR 016C
ENCODING 364
SWIDTH 675 0
DWIDTH 15 0
BBX 13 19 1 0
BITMAP
0C60
0FE0
07C0
0000
FC78
7838
7830
7810
7810
7810
7810
7810
7810
7810
7830
7830
3830
3C60
1FC0
ENDCHAR
STARTCHAR 016D
ENCODING 365
SWIDTH 585 0
DWIDTH 13 0
BBX 13 16 0 0
BITMAP
1060
1860
1FC0
0FC0
0000
0000
79F0
F9F0
38F0
38F0
38F0
38F0
38F0
38F0
3FF8
1F70
ENDCHAR
STARTCHAR 016E
ENCODING 366
SWIDTH 675 0
DWIDTH 15 0
BBX 13 20 1 0
BITMAP
0380
06C0
06C0
0380
0000
FC78
7838
7830
7810
7810
7810
7810
7810
7810
7810
7830
7830
3830
3C60
1FC0
ENDCHAR
STARTCHAR 016F
ENCODING 367
SWIDTH 585 0
DWIDTH 13 0
BBX 13 16 0 0
BITMAP
0700
0D80
0C80
0F80
0000
0000
79F0
F9F0
38F0
38F0
38F0
38F0
38F0
38F0
3FF8
1F70
ENDCHAR
STARTCHAR 0170
ENCODING 368
SWIDTH 675 0
DWIDTH 15 0
BBX 13 20 1 0
BITMAP
0330
0770
0660
0440
0000
FC78
7838
7830
7810
7810
7810
7810
7810
7810
7810
7830
7830
3830
3C60
1FC0
ENDCHAR
STARTCHAR 0171
ENCODING 369
SWIDTH 585 0
DWIDTH 13 0
BBX 13 16 0 0
BITMAP
0770
0660
0CC0
0880
0000
0000
79F0
F9F0
38F0
38F0
38F0
38F0
38F0
38F0
3FF8
1F70
ENDCHAR
STARTCHAR 0172
ENCODING 370
SWIDTH 675 0
DWIDTH 15 0
BBX 13 21 1 -6
BITMAP
FC78
7838
7830
7810
7810
7810
7810
7810
7810
7810
7830
7830
3830
3C60
1FC0
0180
0300
0300
03E0
03E0
0080
ENDCHAR
STARTCHAR 0173
ENCODING 371
SWIDTH 585 0
DWIDTH 13 0
BBX 13 16 0 -6
BITMAP
79F0
F9F0
38F0
38F0
38F0
38F0
38F0
38F0
3FF8
1F78
0060
00C0
00C0
00F8
00F8
0020
ENDCHAR
STARTCHAR 0174
ENCODING 372
SWIDTH 990 0
DWIDTH 22 0
BBX 22 20 0 0
BITMAP
001800
003C00
007E00
00C200
000000
FE187C
7C1838
383C10
3C3C10
3C3C30
1C7E20
1E4E20
1E4F60
0ECF40
0F8740
0F87C0
0787C0
070380
070380
030180
ENDCHAR
STARTCHAR 0175
ENCODING 373
SWIDTH 765 0
DWIDTH 17 0
BBX 17 16 0 0
BITMAP
006000
00F000
01F800
031C00
000000
000000
FC6780
78E300
38F300
3CF200
1DF200
1D3E00
1F3C00
0E3C00
0E1C00
0E1800
ENDCHAR
STARTCHAR 0176
ENCODING 374
SWIDTH 630 0
DWIDTH 14 0
BBX 14 20 0 0
BITMAP
0180
03C0
07E0
0420
0000
FE7C
7C38
3C10
1C30
1E20
0E60
0F40
07C0
0780
0780
0780
0780
0780
07C0
1FE0
ENDCHAR
STARTCHAR 0177
ENCODING 375
SWIDTH 540 0
DWIDTH 12 0
BBX 12 21 0 -6
BITMAP
0100
0380
0FC0
1860
0000
0000
FEF0
7860
3860
3C40
1CC0
1E80
0F80
0F00
0700
0700
0200
0600
0400
7C00
7800
ENDCHAR
STARTCHAR 0178
ENCODING 376
SWIDTH 630 0
DWIDTH 14 0
BBX 14 19 0 0
BITMAP
0E70
0E70
0E70
0000
FE7C
7C38
3C10
1C30
1E20
0E60
0F40
07C0
0780
0780
0780
0780
0780
07C0
1FE0
ENDCHAR
STARTCHAR 0179
ENCODING 377
SWIDTH 585 0
DWIDTH 13 0
BBX 11 20 1 0
BITMAP
0180
0300
0600
0600
0000
7FE0
71E0
61C0
43C0
0780
0780
0F00
0F00
1E00
1E00
3C00
7860
7860
F0E0
FFE0
ENDCHAR
STARTCHAR 017A
ENCODING 378
SWIDTH 495 0
DWIDTH 11 0
BBX 10 16 1 0
BITMAP
0700
0600
0C00
0C00
0000
0000
FF80
E780
CF00
0F00
1E00
3C00
3880
7880
F1C0
FFC0
ENDCHAR
STARTCHAR 017B
ENCODING 379
SWIDTH 585 0
DWIDTH 13 0
BBX 11 19 1 0
BITMAP
0F00
0F00
0E00
0000
7FE0
71E0
61C0
43C0
0780
0780
0F00
0F00
1E00
1E00
3C00
7860
7860
F0E0
FFE0
ENDCHAR
STARTCHAR 017C
ENCODING 380
SWIDTH 495 0
DWIDTH 11 0
BBX 10 15 1 0
BITMAP
1C00
1E00
1C00
0000
0000
FF80
E780
CF00
0F00
1E00
3C00
3880
7880
F1C0
FFC0
ENDCHAR
STARTCHAR 017D
ENCODING 381
SWIDTH 585 0
DWIDTH 13 0
BBX 11 20 1 0
BITMAP
1080
3F80
0F00
0600
0000
7FE0
71E0
61C0
43C0
0780
0780
0F00
0F00
1E00
1E00
3C00
7860
7860
F0E0
FFE0
ENDCHAR
STARTCHAR 017E
ENCODING 382
SWIDTH 495 0
DWIDTH 11 0
BBX 10 16 1 0
BITMAP
4100
7300
3E00
1C00
0000
0000
FF80
E780
CF00
0F00
1E00
3C00
3880
7880
F1C0
FFC0
ENDCHAR
STARTCHAR 017F
ENCODING 383
SWIDTH 360 0
DWIDTH 8 0
BBX 9 16 1 0
BITMAP
0F80
1F80
3980
3980
7800
7800
F800
7800
7800
7800
7800
7800
7800
7800
7C00
FE00
ENDCHAR
STARTCHAR 018E
ENCODING 398
SWIDTH 585 0
DWIDTH 13 0
BBX 12 15 1 0
BITMAP
7FF0
71E0
61C0
C1C0
01C0
11C0
19C0
1FC0
19C0
11C0
01C0
C1C0
C1C0
F3E0
FFF0
ENDCHAR
STARTCHAR 018F
ENCODING 399
SWIDTH 630 0
DWIDTH 14 0
BBX 13 15 1 0
BITMAP
7F80
61E0
60F0
4070
0078
0078
0038
FFF8
E1F8
E038
E078
F070
7060
38E0
1F80
ENDCHAR
STARTCHAR 0192
ENCODING 402
SWIDTH 405 0
DWIDTH 9 0
BBX 15 22 -4 -6
BITMAP
003E
007E
00E6
00E6
01C0
01C0
07F0
03E0
03C0
03C0
0380
0380
0380
0380
0380
0380
0700
0700
4700
EE00
FC00
2000
ENDCHAR
STARTCHAR 019D
ENCODING 413
SWIDTH 720 0
DWIDTH 16 0
BBX 18 21 -3 -6
BITMAP
0F83C0
078180
03C180
03E180
03F180
02F180
027980
023D80
023D80
021F80
020F80
020780
020780
020380
020180
060000
060000
0C0000
FC0000
F80000
200000
ENDCHAR
STARTCHAR 01A0
ENCODING 416
SWIDTH 720 0
DWIDTH 16 0
BBX 15 18 1 0
BITMAP
000C
000E
000C
0FFC
3CF0
7038
703C
F01C
E01E
E01E
E01E
E01E
F01E
F01C
701C
7838
3C70
0FE0
ENDCHAR
STARTCHAR 01A1
ENCODING 417
SWIDTH 585 0
DWIDTH 13 0
BBX 11 13 1 0
BITMAP
0060
0060
0060
3FC0
73C0
E1E0
E1E0
E0E0
E0E0
E0E0
F1C0
79C0
3F00
ENDCHAR
STARTCHAR 01AF
ENCODING 431
SWIDTH 765 0
DWIDTH 17 0
BBX 16 18 1 0
BITMAP
0006
0007
0006
FC7E
7838
7830
7810
7810
7810
7810
7810
7810
7810
7830
7830
3830
3C60
1FC0
ENDCHAR
STARTCHAR 01B0
ENCODING 432
SWIDTH 630 0
DWIDTH 14 0
BBX 14 13 0 0
BITMAP
0018
000C
001C
79F8
F9F0
38F0
38F0
38F0
38F0
38F0
38F0
3FF8
1F70
ENDCHAR
STARTCHAR 01B7
ENCODING 439
SWIDTH 585 0
DWIDTH 13 0
BBX 12 15 1 0
BITMAP
7FE0
61E0
E3C0
C3C0
0780
0F00
1E00
0FC0
01E0
00E0
C0F0
C0F0
E0E0
F3C0
7F80
ENDCHAR
STARTCHAR 01C4
ENCODING 452
SWIDTH 1305 0
DWIDTH 29 0
BBX 28 20 1 0
BITMAP
00001000
00001DC0
00000F00
00000600
00000000
FFC07FE0
78F071E0
383861E0
383C63C0
381C03C0
381C0780
381E0780
381E0F00
381C1E00
381C1E00
381C3C00
383C3C30
38387870
7CF070E0
FFC0FFE0
ENDCHAR
STARTCHAR 01C5
ENCODING 453
SWIDTH 1215 0
DWIDTH 27 0
BBX 26 16 1 0
BITMAP
00004080
FFC07380
78F03E00
38381C00
383C0800
381C0000
381C7FC0
381E6780
381E4780
381C0F00
381C1E00
381C1C00
383C3CC0
383878C0
7CF071C0
FFC0FFC0
ENDCHAR
STARTCHAR 01C6
ENCODING 454
SWIDTH 1080 0
DWIDTH 24 0
BBX 23 16 1 0
BITMAP
004104
03E19C
01E0F8
01E0F0
01E040
01E000
3FE3FE
71E31C
71E33C
E1E078
E1E070
E1E0F0
E1E1E6
F1E3C6
7FF3CE
7EE3FE
ENDCHAR
STARTCHAR 01C7
ENCODING 455
SWIDTH 945 0
DWIDTH 21 0
BBX 20 20 1 -6
BITMAP
FE07F0
7803E0
3801C0
3801C0
3801C0
3801C0
3801C0
3801C0
3801C0
3801C0
3801C0
3831C0
3831C0
7CF1C0
FFE1C0
0001C0
000380
000380
000700
000E00
ENDCHAR
STARTCHAR 01C8
ENCODING 456
SWIDTH 900 0
DWIDTH 20 0
BBX 18 21 1 -6
BITMAP
FE03C0
7803C0
380180
380000
380000
3807C0
3807C0
3801C0
3801C0
3801C0
3801C0
3831C0
3831C0
7CF1C0
FFE1C0
0001C0
000380
000380
000700
000600
000400
ENDCHAR
STARTCHAR 01C9
ENCODING 457
SWIDTH 630 0
DWIDTH 14 0
BBX 12 21 1 -6
BITMAP
3000
F070
70F0
7070
7000
7000
71F0
71F0
7070
7070
7070
7070
7070
7070
7870
FC70
0070
0060
00E0
00C0
0180
ENDCHAR
STARTCHAR 01CA
ENCODING 458
SWIDTH 1080 0
DWIDTH 24 0
BBX 22 20 1 -6
BITMAP
F83CFC
781878
3C1878
3E1878
3F1878
2F1878
279878
23D878
23D878
21F878
20F878
207878
607878
703878
F81878
000070
000070
000070
0000E0
0001C0
ENDCHAR
STARTCHAR 01CB
ENCODING 459
SWIDTH 1035 0
DWIDTH 23 0
BBX 21 20 1 -6
BITMAP
F83C78
781878
3C1830
3E1800
3F1800
2F18F8
2798F8
23D878
23D878
21F878
20F878
207878
607878
703878
F81878
000070
000070
000070
0000E0
0001C0
ENDCHAR
STARTCHAR 01CC
ENCODING 460
SWIDTH 945 0
DWIDTH 21 0
BBX 19 20 1 -6
BITMAP
0000E0
0001E0
0000E0
000000
000000
FBE1E0
FFE3E0
78F0E0
78F0E0
78F0E0
78F0E0
78F0E0
78F0E0
78F0E0
FDF8E0
0000E0
0000E0
0001C0
000180
000300
ENDCHAR
STARTCHAR 01CD
ENCODING 461
SWIDTH 675 0
DWIDTH 15 0
BBX 15 20 0 0
BITMAP
0820
0EE0
07C0
0300
0000
0180
0380
0380
03C0
05C0
05E0
0CE0
08F0
0870
1878
1FF8
3038
303C
703E
F87E
ENDCHAR
STARTCHAR 01CE
ENCODING 462
SWIDTH 540 0
DWIDTH 12 0
BBX 11 16 1 0
BITMAP
4100
7300
3E00
1C00
0000
0000
1F00
3780
7380
F380
0F80
3B80
7380
7380
73E0
7FE0
ENDCHAR
STARTCHAR 01CF
ENCODING 463
SWIDTH 360 0
DWIDTH 8 0
BBX 7 20 1 0
BITMAP
04
EE
78
30
00
FE
7C
38
38
38
38
38
38
38
38
38
38
38
78
FE
ENDCHAR
STARTCHAR 01D0
ENCODING 464
SWIDTH 315 0
DWIDTH 7 0
BBX 6 16 1 0
BITMAP
84
CC
78
70
20
00
F8
F8
78
78
78
78
78
78
78
FC
ENDCHAR
STARTCHAR 01D1
ENCODING 465
SWIDTH 720 0
DWIDTH 16 0
BBX 15 20 1 0
BITMAP
0800
0EE0
0780
0300
0000
0FE0
3CF0
7038
703C
F01C
E01E
E01E
E01E
E01E
F01E
F01C
701C
7838
3C70
0FE0
ENDCHAR
STARTCHAR 01D2
ENCODING 466
SWIDTH 540 0
DWIDTH 12 0
BBX 11 16 1 0
BITMAP
2080
3380
1F00
0E00
0800
0000
3F80
73C0
E1C0
E1E0
E0E0
E0E0
E0E0
F1C0
79C0
3F00
ENDCHAR
STARTCHAR 01D3
ENCODING 467
SWIDTH 675 0
DWIDTH 15 0
BBX 13 20 1 0
BITMAP
0820
0EE0
0780
0300
0000
FC78
7838
7830
7810
7810
7810
7810
7810
7810
7810
7830
7830
3830
3C60
1FC0
ENDCHAR
STARTCHAR 01D4
ENCODING 468
SWIDTH 585 0
DWIDTH 13 0
BBX 13 16 0 0
BITMAP
1040
1CC0
0F80
0700
0000
0000
79F0
F9F0
38F0
38F0
38F0
38F0
38F0
38F0
3FF8
1F70
ENDCHAR
STARTCHAR 01D5
ENCODING 469
SWIDTH 675 0
DWIDTH 15 0
BBX 13 22 1 0
BITMAP
1FF0
0000
0000
0EF0
1EF0
0C60
0000
FC78
7838
7830
7810
7810
7810
7810
7810
7810
7810
7830
7830
3830
3C60
1FC0
ENDCHAR
STARTCHAR 01D6
ENCODING 470
SWIDTH 585 0
DWIDTH 13 0
BBX 13 17 0 0
BITMAP
3FE0
0000
0000
1CE0
3DE0
18C0
0000
79F0
F9F0
38F0
38F0
38F0
38F0
38F0
38F0
3FF8
1F70
ENDCHAR
STARTCHAR 01D7
ENCODING 471
SWIDTH 675 0
DWIDTH 15 0
BBX 13 23 1 0
BITMAP
01C0
0180
0300
0000
0EF0
1EF0
0C60
0000
FC78
7838
7830
7810
7810
7810
7810
7810
7810
7810
7830
7830
3830
3C60
1FC0
ENDCHAR
STARTCHAR 01D8
ENCODING 472
SWIDTH 585 0
DWIDTH 13 0
BBX 13 19 0 0
BITMAP
0180
0380
0300
0200
0000
1CE0
3DE0
18C0
0000
79F0
F9F0
38F0
38F0
38F0
38F0
38F0
38F0
3FF8
1F70
ENDCHAR
STARTCHAR 01D9
ENCODING 473
SWIDTH 675 0
DWIDTH 15 0
BBX 13 23 1 1
BITMAP
0EE0
07C0
0300
0000
0EF0
1EF0
0C60
0000
FC78
7838
7830
7810
7810
7810
7810
7810
7810
7810
7830
7830
3830
3C60
1FC0
ENDCHAR
STARTCHAR 01DA
ENCODING 474
SWIDTH 585 0
DWIDTH 13 0
BBX 13 19 0 0
BITMAP
1040
1DC0
0F00
0600
0000
1CE0
3DE0
18C0
0000
79F0
F9F0
38F0
38F0
38F0
38F0
38F0
38F0
3FF8
1F70
ENDCHAR
STARTCHAR 01DB
ENCODING 475
SWIDTH 675 0
DWIDTH 15 0
BBX 13 23 1 0
BITMAP
0700
0300
0180
0000
0EF0
1EF0
0C60
0000
FC78
7838
7830
7810
7810
7810
7810
7810
7810
7810
7830
7830
3830
3C60
1FC0
ENDCHAR
STARTCHAR 01DC
ENCODING 476
SWIDTH 585 0
DWIDTH 13 0
BBX 13 18 0 1
BITMAP
0E00
0600
0300
0000
1CE0
3DE0
18C0
0000
79F0
F9F0
38F0
38F0
38F0
38F0
38F0
38F0
3FF8
1F70
ENDCHAR
STARTCHAR 01DD
ENCODING 477
SWIDTH 495 0
DWIDTH 11 0
BBX 10 10 1 0
BITMAP
7F00
CF80
0380
0380
FFC0
FFC0
E380
E380
7700
3E00
ENDCHAR
STARTCHAR 01E4
ENCODING 484
SWIDTH 675 0
DWIDTH 15 0
BBX 14 15 1 0
BITMAP
0FF0
3C78
7838
7018
F010
E000
E000
E000
E0FC
F038
F038
71FC
7838
3C78
0FE0
ENDCHAR
STARTCHAR 01E5
ENCODING 485
SWIDTH 540 0
DWIDTH 12 0
BBX 14 16 -1 -6
BITMAP
1FF8
38E8
38E0
38E0
38E0
1DE0
1F80
1800
3FE0
3FF0
1FF0
3070
FFFC
3860
3FC0
0600
ENDCHAR
STARTCHAR 01E6
ENCODING 486
SWIDTH 675 0
DWIDTH 15 0
BBX 14 20 1 0
BITMAP
0820
0EE0
0780
0300
0000
0FF0
3C78
7838
7018
F010
E000
E000
E000
E0FC
F038
F038
7038
7838
3C78
0FE0
ENDCHAR
STARTCHAR 01E7
ENCODING 487
SWIDTH 540 0
DWIDTH 12 0
BBX 11 22 1 -6
BITMAP
4100
7300
3E00
1C00
0000
0000
7FE0
E3A0
E380
E380
E380
7780
7E00
6000
FF80
FFC0
7FC0
C1C0
C0C0
E180
FF00
1800
ENDCHAR
STARTCHAR 01E8
ENCODING 488
SWIDTH 720 0
DWIDTH 16 0
BBX 15 20 1 0
BITMAP
0800
0EE0
0780
0300
0000
FE7C
7C78
3860
38C0
3980
3B00
3F00
3F80
3F80
3BC0
39E0
38F0
38F0
787C
FE3E
ENDCHAR
STARTCHAR 01E9
ENCODING 489
SWIDTH 585 0
DWIDTH 13 0
BBX 12 20 1 0
BITMAP
1080
3F80
0F00
0400
3000
F000
7000
7000
7000
7000
71F0
70C0
7180
7300
7700
7780
73C0
71E0
78F0
FCF0
ENDCHAR
STARTCHAR 01EA
ENCODING 490
SWIDTH 720 0
DWIDTH 16 0
BBX 15 21 1 -6
BITMAP
0FE0
3CF0
7038
703C
F01C
E01E
E01E
E01E
E01E
F01E
F01C
701C
7838
3C70
0FE0
0180
0380
0380
03E0
03E0
0080
ENDCHAR
STARTCHAR 01EB
ENCODING 491
SWIDTH 540 0
DWIDTH 12 0
BBX 11 16 1 -6
BITMAP
3F80
73C0
E1C0
E1E0
E0E0
E0E0
E0E0
F1C0
79C0
3F00
0C00
1800
3800
3E00
3E00
0800
ENDCHAR
STARTCHAR 01EE
ENCODING 494
SWIDTH 585 0
DWIDTH 13 0
BBX 12 20 1 0
BITMAP
2080
3B80
1E00
0C00
0000
7FE0
61E0
E3C0
C3C0
0780
0F00
1E00
0FC0
01E0
00E0
C0F0
C0F0
E0E0
F3C0
7F80
ENDCHAR
STARTCHAR 01EF
ENCODING 495
SWIDTH 495 0
DWIDTH 11 0
BBX 10 22 1 -6
BITMAP
4100
7300
3E00
1C00
0000
0000
FF80
E780
C700
0F00
0E00
1E00
3C00
3F00
0380
03C0
03C0
03C0
C380
E780
FF00
1000
ENDCHAR
STARTCHAR 01F1
ENCODING 497
SWIDTH 1305 0
DWIDTH 29 0
BBX 28 15 1 0
BITMAP
FFC07FE0
78F071E0
383861E0
383C63C0
381C03C0
381C0780
381E0780
381E0F00
381C1E00
381C1E00
381C3C00
383C3C30
38387870
7CF070E0
FFC0FFE0
ENDCHAR
STARTCHAR 01F2
ENCODING 498
SWIDTH 1215 0
DWIDTH 27 0
BBX 26 15 1 0
BITMAP
FFC00000
78F00000
38380000
383C0000
381C0000
381C7FC0
381E6780
381E4780
381C0F00
381C1E00
381C1C00
383C3CC0
383878C0
7CF071C0
FFC0FFC0
ENDCHAR
STARTCHAR 01F3
ENCODING 499
SWIDTH 1080 0
DWIDTH 24 0
BBX 23 16 1 0
BITMAP
004000
03E000
01E000
01E000
01E000
01E000
3FE3FE
71E31C
71E33C
E1E078
E1E070
E1E0F0
E1E1E6
F1E3C6
7FF3CE
7EE3FE
ENDCHAR
STARTCHAR 01FA
ENCODING 506
SWIDTH 675 0
DWIDTH 15 0
BBX 15 24 0 0
BITMAP
00C0
0180
0100
0000
0380
06C0
0640
0380
0000
0180
0380
0380
03C0
05C0
05E0
0CE0
08F0
0870
1878
1FF8
3038
303C
703E
F87E
ENDCHAR
STARTCHAR 01FB
ENCODING 507
SWIDTH 540 0
DWIDTH 12 0
BBX 11 19 1 0
BITMAP
0600
0C00
0800
0000
1C00
3600
3200
1C00
0000
1F00
3780
7380
F380
0F80
3B80
7380
7380
73E0
7FE0
ENDCHAR
STARTCHAR 01FC
ENCODING 508
SWIDTH 945 0
DWIDTH 21 0
BBX 21 20 0 0
BITMAP
000400
000C00
001800
001800
000000
01FFE0
00FCF0
00FC30
00BC30
01BC00
033CC0
023CC0
07FFC0
07FFC0
0C3CC0
083C40
183C18
303C30
703C70
F87FF0
ENDCHAR
STARTCHAR 01FD
ENCODING 509
SWIDTH 720 0
DWIDTH 16 0
BBX 14 16 1 0
BITMAP
00C0
01C0
0180
0100
0000
0000
FEF8
679C
679C
078C
1FFC
7780
E780
E780
FDFC
78F8
ENDCHAR
STARTCHAR 01FE
ENCODING 510
SWIDTH 720 0
DWIDTH 16 0
BBX 15 21 1 -1
BITMAP
00C0
01C0
0180
0300
0000
0FEC
3CF8
7038
707C
F07C
E0DE
E19E
E31E
E31E
F61E
FC1C
781C
7838
3C70
6FE0
4000
ENDCHAR
STARTCHAR 01FF
ENCODING 511
SWIDTH 540 0
DWIDTH 12 0
BBX 11 17 1 -1
BITMAP
0300
0700
0600
0400
0000
0060
3FC0
73C0
E3E0
E7E0
E6E0
ECE0
F8E0
F1C0
79C0
FF00
8000
ENDCHAR
STARTCHAR 0200
ENCODING 512
SWIDTH 675 0
DWIDTH 15 0
BBX 15 19 0 0
BITMAP
1DC0
0CC0
0660
0000
0180
0380
0380
03C0
05C0
05E0
0CE0
08F0
0870
1878
1FF8
3038
303C
703E
F87E
ENDCHAR
STARTCHAR 0201
ENCODING 513
SWIDTH 540 0
DWIDTH 12 0
BBX 11 16 1 0
BITMAP
EE00
6600
3300
3300
0000
0000
1F00
3780
7380
F380
0F80
3B80
7380
7380
73E0
7FE0
ENDCHAR
STARTCHAR 0202
ENCODING 514
SWIDTH 675 0
DWIDTH 15 0
BBX 15 19 0 0
BITMAP
07E0
0EE0
0820
0000
0180
0380
0380
03C0
05C0
05E0
0CE0
08F0
0870
1878
1FF8
3038
303C
703E
F87E
ENDCHAR
STARTCHAR 0203
ENCODING 515
SWIDTH 540 0
DWIDTH 12 0
BBX 11 16 1 0
BITMAP
1E00
7F00
6380
4180
0000
0000
1F00
3780
7380
F380
0F80
3B80
7380
7380
73E0
7FE0
ENDCHAR
STARTCHAR 0204
ENCODING 516
SWIDTH 585 0
DWIDTH 13 0
BBX 12 19 1 0
BITMAP
7700
3300
1980
0000
FFE0
78E0
3860
3820
3800
3880
3980
3F80
3980
3880
3800
3830
3830
7CF0
FFF0
ENDCHAR
STARTCHAR 0205
ENCODING 517
SWIDTH 495 0
DWIDTH 11 0
BBX 10 16 1 0
BITMAP
EE00
6600
3300
1100
0000
0000
3F00
7380
E380
E180
FFC0
F000
E000
F000
7D80
3F00
ENDCHAR
STARTCHAR 0206
ENCODING 518
SWIDTH 585 0
DWIDTH 13 0
BBX 12 19 1 0
BITMAP
1F80
3B80
3080
0000
FFE0
78E0
3860
3820
3800
3880
3980
3F80
3980
3880
3800
3830
3830
7CF0
FFF0
ENDCHAR
STARTCHAR 0207
ENCODING 519
SWIDTH 495 0
DWIDTH 11 0
BBX 10 16 1 0
BITMAP
1E00
3F00
7380
4180
0000
0000
3F00
7380
E380
E180
FFC0
F000
E000
F000
7D80
3F00
ENDCHAR
STARTCHAR 0208
ENCODING 520
SWIDTH 360 0
DWIDTH 8 0
BBX 8 19 0 0
BITMAP
EC
66
26
00
7F
3E
1C
1C
1C
1C
1C
1C
1C
1C
1C
1C
1C
3C
7F
ENDCHAR
STARTCHAR 0209
ENCODING 521
SWIDTH 315 0
DWIDTH 7 0
BBX 8 16 -1 0
BITMAP
EE
66
36
33
00
00
3E
3E
1E
1E
1E
1E
1E
1E
1E
3F
ENDCHAR
STARTCHAR 020A
ENCODING 522
SWIDTH 360 0
DWIDTH 8 0
BBX 7 19 1 0
BITMAP
7C
FC
86
00
FE
7C
38
38
38
38
38
38
38
38
38
38
38
78
FE
ENDCHAR
STARTCHAR 020B
ENCODING 523
SWIDTH 315 0
DWIDTH 7 0
BBX 7 16 0 0
BITMAP
38
7E
E6
C2
00
00
7C
7C
3C
3C
3C
3C
3C
3C
3C
7E
ENDCHAR
STARTCHAR 020C
ENCODING 524
SWIDTH 720 0
DWIDTH 16 0
BBX 15 19 1 0
BITMAP
1980
0CC0
0CC0
0000
0FE0
3CF0
7038
703C
F01C
E01E
E01E
E01E
E01E
F01E
F01C
701C
7838
3C70
0FE0
ENDCHAR
STARTCHAR 020D
ENCODING 525
SWIDTH 540 0
DWIDTH 12 0
BBX 11 16 1 0
BITMAP
E600
7700
3300
1980
0000
0000
3F80
73C0
E1C0
E1E0
E0E0
E0E0
E0E0
F1C0
79C0
3F00
ENDCHAR
STARTCHAR 020E
ENCODING 526
SWIDTH 720 0
DWIDTH 16 0
BBX 15 19 1 0
BITMAP
0FC0
0EE0
0860
0000
0FE0
3CF0
7038
703C
F01C
E01E
E01E
E01E
E01E
F01E
F01C
701C
7838
3C70
0FE0
ENDCHAR
STARTCHAR 020F
ENCODING 527
SWIDTH 540 0
DWIDTH 12 0
BBX 11 16 1 0
BITMAP
1E00
3F80
7380
6180
0000
0000
3F80
73C0
E1C0
E1E0
E0E0
E0E0
E0E0
F1C0
79C0
3F00
ENDCHAR
STARTCHAR 0210
ENCODING 528
SWIDTH 675 0
DWIDTH 15 0
BBX 14 19 1 0
BITMAP
3300
3B80
1980
0000
FFC0
78F0
3870
3878
3878
3870
38F0
3FE0
3FC0
39C0
38E0
38F0
38F0
7878
FC7C
ENDCHAR
STARTCHAR 0211
ENCODING 529
SWIDTH 450 0
DWIDTH 10 0
BBX 9 16 1 0
BITMAP
EE00
6600
3300
3300
0000
0000
F380
F780
7980
7980
7800
7800
7800
7800
7C00
FE00
ENDCHAR
STARTCHAR 0212
ENCODING 530
SWIDTH 675 0
DWIDTH 15 0
BBX 14 19 1 0
BITMAP
1F80
19C0
30C0
0000
FFC0
78F0
3870
3878
3878
3870
38F0
3FE0
3FC0
39C0
38E0
38F0
38F0
7878
FC7C
ENDCHAR
STARTCHAR 0213
ENCODING 531
SWIDTH 450 0
DWIDTH 10 0
BBX 9 16 1 0
BITMAP
1E00
7F00
6380
4180
0000
0000
F380
F780
7980
7980
7800
7800
7800
7800
7C00
FE00
ENDCHAR
STARTCHAR 0214
ENCODING 532
SWIDTH 675 0
DWIDTH 15 0
BBX 13 19 1 0
BITMAP
1D80
0CC0
0640
0000
FC78
7838
7830
7810
7810
7810
7810
7810
7810
7810
7830
7830
3830
3C60
1FC0
ENDCHAR
STARTCHAR 0215
ENCODING 533
SWIDTH 585 0
DWIDTH 13 0
BBX 13 16 0 0
BITMAP
3B80
1980
0CC0
0CC0
0000
0000
79F0
F9F0
38F0
38F0
38F0
38F0
38F0
38F0
3FF8
1F70
ENDCHAR
STARTCHAR 0216
ENCODING 534
SWIDTH 675 0
DWIDTH 15 0
BBX 13 19 1 0
BITMAP
07C0
0EE0
0860
0000
FC78
7838
7830
7810
7810
7810
7810
7810
7810
7810
7830
7830
3830
3C60
1FC0
ENDCHAR
STARTCHAR 0217
ENCODING 535
SWIDTH 585 0
DWIDTH 13 0
BBX 13 16 0 0
BITMAP
0780
1FC0
18E0
1060
0000
0000
79F0
F9F0
38F0
38F0
38F0
38F0
38F0
38F0
3FF8
1F70
ENDCHAR
STARTCHAR 0218
ENCODING 536
SWIDTH 540 0
DWIDTH 12 0
BBX 11 22 1 -7
BITMAP
3F80
7380
61C0
E0C0
F000
7C00
7F00
3F80
1FC0
07C0
C1E0
C0E0
E0C0
F3C0
7F00
0000
0E00
0E00
0E00
0600
0C00
0800
ENDCHAR
STARTCHAR 0219
ENCODING 537
SWIDTH 450 0
DWIDTH 10 0
BBX 8 17 1 -7
BITMAP
7F
E7
E3
F8
7E
3F
CF
C7
E7
FE
00
1C
3C
1C
18
18
10
ENDCHAR
STARTCHAR 021A
ENCODING 538
SWIDTH 630 0
DWIDTH 14 0
BBX 13 22 1 -7
BITMAP
FFF8
E738
C718
8718
0700
0700
0700
0700
0700
0700
0700
0700
0700
0F80
3FC0
0000
0700
0F00
0700
0200
0600
0400
ENDCHAR
STARTCHAR 021B
ENCODING 539
SWIDTH 360 0
DWIDTH 8 0
BBX 8 20 0 -7
BITMAP
08
38
38
38
FF
7E
38
38
38
38
38
38
3D
1F
00
0C
1E
0C
0C
08
ENDCHAR
STARTCHAR 021C
ENCODING 540
SWIDTH 540 0
DWIDTH 12 0
BBX 11 19 1 -4
BITMAP
7F00
E3C0
C1C0
C1C0
01C0
03C0
0380
0E00
3F00
37C0
01C0
01E0
01E0
01E0
01E0
01C0
0380
FF00
3C00
ENDCHAR
STARTCHAR 021D
ENCODING 541
SWIDTH 495 0
DWIDTH 11 0
BBX 9 16 1 -6
BITMAP
FF00
E780
C380
C380
0380
0700
1C00
3F00
0780
0380
0380
0380
0380
8700
FE00
1000
ENDCHAR
STARTCHAR 021E
ENCODING 542
SWIDTH 765 0
DWIDTH 17 0
BBX 15 20 1 0
BITMAP
0820
0EE0
07C0
0300
0000
FE7E
7C3C
383C
383C
383C
383C
383C
3FFC
383C
383C
383C
383C
383C
783C
FE7E
ENDCHAR
STARTCHAR 021F
ENCODING 543
SWIDTH 630 0
DWIDTH 14 0
BBX 13 20 1 0
BITMAP
0080
3B80
1F00
0C00
3000
F000
7000
7000
7000
7000
77C0
7FE0
70E0
70E0
70E0
70E0
70E0
70E0
78F0
FDF8
ENDCHAR
STARTCHAR 0228
ENCODING 552
SWIDTH 585 0
DWIDTH 13 0
BBX 12 20 1 -5
BITMAP
FFE0
78E0
3860
3820
3800
3880
3980
3F80
3980
3880
3800
3830
3830
7CF0
FFF0
0400
0E00
0300
0300
0E00
ENDCHAR
STARTCHAR 0229
ENCODING 553
SWIDTH 495 0
DWIDTH 11 0
BBX 10 15 1 -5
BITMAP
3F00
7380
E380
E180
FFC0
F000
E000
F000
7D80
3F00
0800
1C00
0600
0600
1C00
ENDCHAR
STARTCHAR 022A
ENCODING 554
SWIDTH 720 0
DWIDTH 16 0
BBX 15 22 1 0
BITMAP
1FE0
0000
0000
1CE0
1CF0
0C60
0000
0FE0
3CF0
7038
703C
F01C
E01E
E01E
E01E
E01E
F01E
F01C
701C
7838
3C70
0FE0
ENDCHAR
STARTCHAR 022B
ENCODING 555
SWIDTH 540 0
DWIDTH 12 0
BBX 11 17 1 0
BITMAP
7F80
0000
0000
7380
7380
3180
0000
3F80
73C0
E1C0
E1E0
E0E0
E0E0
E0E0
F1C0
79C0
3F00
ENDCHAR
STARTCHAR 022C
ENCODING 556
SWIDTH 720 0
DWIDTH 16 0
BBX 15 22 1 0
BITMAP
1FE0
0000
0000
0F20
1FE0
0080
0000
0FE0
3CF0
7038
703C
F01C
E01E
E01E
E01E
E01E
F01E
F01C
701C
7838
3C70
0FE0
ENDCHAR
STARTCHAR 022D
ENCODING 557
SWIDTH 540 0
DWIDTH 12 0
BBX 11 17 1 0
BITMAP
7F80
0000
0000
3F80
6F80
0000
0000
3F80
73C0
E1C0
E1E0
E0E0
E0E0
E0E0
F1C0
79C0
3F00
ENDCHAR
STARTCHAR 0230
ENCODING 560
SWIDTH 720 0
DWIDTH 16 0
BBX 15 21 1 0
BITMAP
1FE0
0000
0380
0780
0380
0000
0FE0
3CF0
7038
703C
F01C
E01E
E01E
E01E
E01E
F01E
F01C
701C
7838
3C70
0FE0
ENDCHAR
STARTCHAR 0231
ENCODING 561
SWIDTH 540 0
DWIDTH 12 0
BBX 11 17 1 0
BITMAP
7F80
7F80
0000
0E00
1E00
0E00
0000
3F80
73C0
E1C0
E1E0
E0E0
E0E0
E0E0
F1C0
79C0
3F00
ENDCHAR
STARTCHAR 0232
ENCODING 562
SWIDTH 630 0
DWIDTH 14 0
BBX 14 18 0 0
BITMAP
0FF0
0000
0000
FE7C
7C38
3C10
1C30
1E20
0E60
0F40
07C0
0780
0780
0780
0780
0780
07C0
1FE0
ENDCHAR
STARTCHAR 0233
ENCODING 563
SWIDTH 540 0
DWIDTH 12 0
BBX 12 19 0 -6
BITMAP
1FE0
0000
0000
0000
FEF0
7860
3860
3C40
1CC0
1E80
0F80
0F00
0700
0700
0200
0600
0400
7C00
7800
ENDCHAR
STARTCHAR 0237
ENCODING 567
SWIDTH 270 0
DWIDTH 6 0
BBX 6 15 0 -6
BITMAP
78
7C
3C
3C
3C
3C
3C
3C
3C
38
38
38
30
70
E0
ENDCHAR
STARTCHAR 0258
ENCODING 600
SWIDTH 495 0
DWIDTH 11 0
BBX 9 10 1 0
BITMAP
7F00
E780
E380
E380
FF80
8380
0380
C380
E700
FE00
ENDCHAR
STARTCHAR 0259
ENCODING 601
SWIDTH 495 0
DWIDTH 11 0
BBX 10 10 1 0
BITMAP
7F00
CF80
0380
0380
FFC0
FFC0
E380
E380
7700
3E00
ENDCHAR
STARTCHAR 0272
ENCODING 626
SWIDTH 630 0
DWIDTH 14 0
BBX 14 15 0 -6
BITMAP
79E0
7BF0
3C70
3C78
3C78
3C78
3C78
3C78
3C78
38FC
3800
3800
3000
7000
E000
ENDCHAR
STARTCHAR 0292
ENCODING 658
SWIDTH 495 0
DWIDTH 11 0
BBX 10 16 1 -6
BITMAP
FF80
E780
C700
0F00
0E00
1E00
3C00
3F00
0380
03C0
03C0
03C0
C380
E780
FF00
1000
ENDCHAR
STARTCHAR 02B9
ENCODING 697
SWIDTH 270 0
DWIDTH 6 0
BBX 4 6 1 10
BITMAP
10
30
60
60
40
C0
ENDCHAR
STARTCHAR 02BA
ENCODING 698
SWIDTH 450 0
DWIDTH 10 0
BBX 8 6 1 10
BITMAP
11
33
67
66
44
C4
ENDCHAR
STARTCHAR 02BB
ENCODING 699
SWIDTH 270 0
DWIDTH 6 0
BBX 4 6 1 10
BITMAP
20
60
60
E0
F0
F0
ENDCHAR
STARTCHAR 02BC
ENCODING 700
SWIDTH 270 0
DWIDTH 6 0
BBX 4 7 1 9
BITMAP
30
70
70
30
20
60
C0
ENDCHAR
STARTCHAR 02BE
ENCODING 702
SWIDTH 225 0
DWIDTH 5 0
BBX 4 6 1 10
BITMAP
C0
60
70
70
70
E0
ENDCHAR
STARTCHAR 02BF
ENCODING 703
SWIDTH 225 0
DWIDTH 5 0
BBX 4 6 1 10
BITMAP
70
E0
C0
C0
E0
70
ENDCHAR
STARTCHAR 02C6
ENCODING 710
SWIDTH 270 0
DWIDTH 6 0
BBX 8 4 -1 11
BITMAP
08
1C
7E
C3
ENDCHAR
STARTCHAR 02C7
ENCODING 711
SWIDTH 270 0
DWIDTH 6 0
BBX 7 5 0 11
BITMAP
82
CE
7C
38
20
ENDCHAR
STARTCHAR 02C8
ENCODING 712
SWIDTH 180 0
DWIDTH 4 0
BBX 2 7 2 9
BITMAP
C0
C0
80
80
80
80
80
ENDCHAR
STARTCHAR 02C9
ENCODING 713
SWIDTH 450 0
DWIDTH 10 0
BBX 9 1 1 13
BITMAP
FF80
ENDCHAR
STARTCHAR 02CA
ENCODING 714
SWIDTH 270 0
DWIDTH 6 0
BBX 3 4 4 12
BITMAP
60
E0
C0
80
ENDCHAR
STARTCHAR 02CB
ENCODING 715
SWIDTH 270 0
DWIDTH 6 0
BBX 5 4 3 12
BITMAP
E0
70
30
18
ENDCHAR
STARTCHAR 02CC
ENCODING 716
SWIDTH 180 0
DWIDTH 4 0
BBX 2 6 2 -4
BITMAP
C0
80
80
80
80
80
ENDCHAR
STARTCHAR 02D8
ENCODING 728
SWIDTH 270 0
DWIDTH 6 0
BBX 8 4 -1 12
BITMAP
C1
C1
7F
7E
ENDCHAR
STARTCHAR 02D9
ENCODING 729
SWIDTH 270 0
DWIDTH 6 0
BBX 4 3 1 12
BITMAP
70
F0
70
ENDCHAR
STARTCHAR 02DA
ENCODING 730
SWIDTH 270 0
DWIDTH 6 0
BBX 5 4 1 12
BITMAP
70
D8
98
F8
ENDCHAR
STARTCHAR 02DB
ENCODING 731
SWIDTH 270 0
DWIDTH 6 0
BBX 5 7 1 -6
BITMAP
30
60
C0
C0
F8
F8
60
ENDCHAR
STARTCHAR 02DC
ENCODING 732
SWIDTH 270 0
DWIDTH 6 0
BBX 8 3 -1 12
BITMAP
79
FF
8E
ENDCHAR
STARTCHAR 02DD
ENCODING 733
SWIDTH 270 0
DWIDTH 6 0
BBX 8 4 -1 12
BITMAP
77
66
66
CC
ENDCHAR
STARTCHAR 0300
ENCODING 768
SWIDTH 0 0
DWIDTH 0 0
BBX 4 4 1 12
BITMAP
E0
70
30
10
ENDCHAR
STARTCHAR 0301
ENCODING 769
SWIDTH 0 0
DWIDTH 0 0
BBX 4 4 1 12
BITMAP
70
60
60
C0
ENDCHAR
STARTCHAR 0302
ENCODING 770
SWIDTH 0 0
DWIDTH 0 0
BBX 8 4 1 11
BITMAP
08
1C
7E
C3
ENDCHAR
STARTCHAR 0303
ENCODING 771
SWIDTH 0 0
DWIDTH 0 0
BBX 8 3 1 12
BITMAP
79
FF
8E
ENDCHAR
STARTCHAR 0304
ENCODING 772
SWIDTH 0 0
DWIDTH 0 0
BBX 8 1 1 13
BITMAP
FF
ENDCHAR
STARTCHAR 0306
ENCODING 774
SWIDTH 0 0
DWIDTH 0 0
BBX 8 4 1 12
BITMAP
C1
C1
7F
7E
ENDCHAR
STARTCHAR 0307
ENCODING 775
SWIDTH 0 0
DWIDTH 0 0
BBX 4 3 1 12
BITMAP
60
F0
F0
ENDCHAR
STARTCHAR 0308
ENCODING 776
SWIDTH 0 0
DWIDTH 0 0
BBX 9 3 1 12
BITMAP
6300
E780
E700
ENDCHAR
STARTCHAR 0309
ENCODING 777
SWIDTH 0 0
DWIDTH 0 0
BBX 6 5 1 11
BITMAP
38
DC
D8
30
30
ENDCHAR
STARTCHAR 030A
ENCODING 778
SWIDTH 0 0
DWIDTH 0 0
BBX 5 4 1 12
BITMAP
78
D8
C8
78
ENDCHAR
STARTCHAR 030B
ENCODING 779
SWIDTH 0 0
DWIDTH 0 0
BBX 8 4 1 12
BITMAP
77
66
66
CC
ENDCHAR
STARTCHAR 030C
ENCODING 780
SWIDTH 0 0
DWIDTH 0 0
BBX 8 5 1 11
BITMAP
41
E7
3E
3C
10
ENDCHAR
STARTCHAR 030F
ENCODING 783
SWIDTH 0 0
DWIDTH 0 0
BBX 8 4 1 12
BITMAP
EE
66
33
11
ENDCHAR
STARTCHAR 0311
ENCODING 785
SWIDTH 0 0
DWIDTH 0 0
BBX 8 4 1 12
BITMAP
3C
7F
E7
C3
ENDCHAR
STARTCHAR 0312
ENCODING 786
SWIDTH 0 0
DWIDTH 0 0
BBX 4 5 1 11
BITMAP
60
60
F0
F0
40
ENDCHAR
STARTCHAR 0313
ENCODING 787
SWIDTH 0 0
DWIDTH 0 0
BBX 4 5 1 11
BITMAP
70
F0
70
60
40
ENDCHAR
STARTCHAR 031B
ENCODING 795
SWIDTH 0 0
DWIDTH 0 0
BBX 5 4 -2 9
BITMAP
10
18
38
F0
ENDCHAR
STARTCHAR 0323
ENCODING 803
SWIDTH 0 0
DWIDTH 0 0
BBX 4 3 1 -5
BITMAP
F0
F0
60
ENDCHAR
STARTCHAR 0324
ENCODING 804
SWIDTH 0 0
DWIDTH 0 0
BBX 9 3 1 -5
BITMAP
E700
F780
6300
ENDCHAR
STARTCHAR 0325
ENCODING 805
SWIDTH 0 0
DWIDTH 0 0
BBX 5 4 1 -5
BITMAP
78
D8
C8
F8
ENDCHAR
STARTCHAR 0326
ENCODING 806
SWIDTH 0 0
DWIDTH 0 0
BBX 4 6 1 -7
BITMAP
70
F0
70
60
60
40
ENDCHAR
STARTCHAR 0327
ENCODING 807
SWIDTH 0 0
DWIDTH 0 0
BBX 4 5 1 -5
BITMAP
40
E0
70
30
E0
ENDCHAR
STARTCHAR 0328
ENCODING 808
SWIDTH 0 0
DWIDTH 0 0
BBX 5 7 1 -6
BITMAP
18
60
60
E0
F8
78
20
ENDCHAR
STARTCHAR 032E
ENCODING 814
SWIDTH 0 0
DWIDTH 0 0
BBX 7 3 1 -4
BITMAP
C2
E6
7E
ENDCHAR
STARTCHAR 0331
ENCODING 817
SWIDTH 0 0
DWIDTH 0 0
BBX 8 2 1 -4
BITMAP
FF
C0
ENDCHAR
STARTCHAR 0335
ENCODING 821
SWIDTH 0 0
DWIDTH 0 0
BBX 7 1 1 7
BITMAP
FE
ENDCHAR
STARTCHAR 0336
ENCODING 822
SWIDTH 0 0
DWIDTH 0 0
BBX 14 1 1 5
BITMAP
FFFC
ENDCHAR
STARTCHAR 0337
ENCODING 823
SWIDTH 0 0
DWIDTH 0 0
BBX 10 5 1 4
BITMAP
00C0
0380
0E00
3800
E000
ENDCHAR
STARTCHAR 0338
ENCODING 824
SWIDTH 0 0
DWIDTH 0 0
BBX 10 5 1 4
BITMAP
00C0
0380
0E00
3800
E000
ENDCHAR
STARTCHAR 0374
ENCODING 884
SWIDTH 270 0
DWIDTH 6 0
BBX 4 6 1 10
BITMAP
10
30
60
60
40
C0
ENDCHAR
STARTCHAR 0375
ENCODING 885
SWIDTH 270 0
DWIDTH 6 0
BBX 4 6 1 -5
BITMAP
10
30
20
60
60
C0
ENDCHAR
STARTCHAR 037E
ENCODING 894
SWIDTH 270 0
DWIDTH 6 0
BBX 3 14 2 -4
BITMAP
E0
E0
E0
00
00
00
00
60
E0
E0
60
60
C0
80
ENDCHAR
STARTCHAR 0384
ENCODING 900
SWIDTH 270 0
DWIDTH 6 0
BBX 3 4 2 12
BITMAP
E0
C0
C0
C0
ENDCHAR
STARTCHAR 0385
ENCODING 901
SWIDTH 270 0
DWIDTH 6 0
BBX 9 4 -1 12
BITMAP
1C00
1C00
FB80
FB80
ENDCHAR
STARTCHAR 0386
ENCODING 902
SWIDTH 675 0
DWIDTH 15 0
BBX 15 15 0 0
BITMAP
7180
7380
6380
63C0
25C0
05E0
0CE0
08F0
0870
1878
1FF8
3038
303C
703E
F87E
ENDCHAR
STARTCHAR 0387
ENCODING 903
SWIDTH 270 0
DWIDTH 6 0
BBX 4 3 1 7
BITMAP
70
F0
70
ENDCHAR
STARTCHAR 0388
ENCODING 904
SWIDTH 585 0
DWIDTH 13 0
BBX 16 15 -3 0
BITMAP
EFFE
E78E
C386
C382
4380
0388
0398
03F8
0398
0388
0380
0383
0383
07CF
0FFF
ENDCHAR
STARTCHAR 0389
ENCODING 905
SWIDTH 765 0
DWIDTH 17 0
BBX 19 15 -3 0
BITMAP
EFE7E0
C7C3C0
C383C0
C383C0
C383C0
0383C0
0383C0
03FFC0
0383C0
0383C0
0383C0
0383C0
0383C0
0783C0
0FE7E0
ENDCHAR
STARTCHAR 038A
ENCODING 906
SWIDTH 360 0
DWIDTH 8 0
BBX 11 15 -3 0
BITMAP
EFE0
C7C0
C380
C380
C380
0380
0380
0380
0380
0380
0380
0380
0380
0780
0FE0
ENDCHAR
STARTCHAR 038C
ENCODING 908
SWIDTH 720 0
DWIDTH 16 0
BBX 18 15 -2 0
BITMAP
E1FC00
E79E00
CE0700
CE0780
5E0380
1C03C0
1C03C0
1C03C0
1C03C0
1E03C0
1E0380
0E0380
0F0700
078E00
01FC00
ENDCHAR
STARTCHAR 038E
ENCODING 910
SWIDTH 630 0
DWIDTH 14 0
BBX 17 15 -3 0
BITMAP
DFCF80
CF8700
C78200
838600
83C400
01CC00
01E800
00F800
00F000
00F000
00F000
00F000
00F000
00F800
03FC00
ENDCHAR
STARTCHAR 038F
ENCODING 911
SWIDTH 810 0
DWIDTH 18 0
BBX 19 15 -1 0
BITMAP
E1FC00
E78F00
CF0780
DE0380
5E03C0
1C03C0
1C03C0
1C03C0
1C0380
0E0380
0E0300
330660
3F0FE0
3F8FC0
3F8FC0
ENDCHAR
STARTCHAR 0390
ENCODING 912
SWIDTH 315 0
DWIDTH 7 0
BBX 9 16 0 0
BITMAP
1C00
1C00
FB80
FB80
0000
0000
7C00
7C00
3C00
3C00
3C00
3C00
3C00
3C00
1C00
1F00
ENDCHAR
STARTCHAR 0391
ENCODING 913
SWIDTH 675 0
DWIDTH 15 0
BBX 15 15 0 0
BITMAP
0180
0380
0380
03C0
05C0
05E0
0CE0
08F0
0870
1878
1FF8
3038
303C
703E
F87E
ENDCHAR
STARTCHAR 0392
ENCODING 914
SWIDTH 630 0
DWIDTH 14 0
BBX 13 15 1 0
BITMAP
FFC0
79F0
38F0
3870
3870
38E0
3BC0
3FE0
38F0
3878
3878
3878
3878
7CF0
FFC0
ENDCHAR
STARTCHAR 0393
ENCODING 915
SWIDTH 585 0
DWIDTH 13 0
BBX 11 15 1 0
BITMAP
FFE0
78E0
3860
3820
3800
3800
3800
3800
3800
3800
3800
3800
3800
7C00
FE00
ENDCHAR
STARTCHAR 0394
ENCODING 916
SWIDTH 630 0
DWIDTH 14 0
BBX 14 15 0 0
BITMAP
0300
0380
0380
07C0
05C0
0DE0
09E0
18F0
10F0
3070
2078
6038
403C
C01C
7FFC
ENDCHAR
STARTCHAR 0395
ENCODING 917
SWIDTH 585 0
DWIDTH 13 0
BBX 12 15 1 0
BITMAP
FFE0
78E0
3860
3820
3800
3880
3980
3F80
3980
3880
3800
3830
3830
7CF0
FFF0
ENDCHAR
STARTCHAR 0396
ENCODING 918
SWIDTH 585 0
DWIDTH 13 0
BBX 11 15 1 0
BITMAP
7FE0
71E0
61C0
43C0
0780
0780
0F00
0F00
1E00
1E00
3C00
7860
7860
F0E0
FFE0
ENDCHAR
STARTCHAR 0397
ENCODING 919
SWIDTH 765 0
DWIDTH 17 0
BBX 15 15 1 0
BITMAP
FE7E
7C3C
383C
383C
383C
383C
383C
3FFC
383C
383C
383C
383C
383C
783C
FE7E
ENDCHAR
STARTCHAR 0398
ENCODING 920
SWIDTH 720 0
DWIDTH 16 0
BBX 15 15 1 0
BITMAP
0FE0
3CF0
7038
703C
F01C
E01E
E01E
EFDE
E01E
F01E
F01C
701C
7838
3C70
0FE0
ENDCHAR
STARTCHAR 0399
ENCODING 921
SWIDTH 360 0
DWIDTH 8 0
BBX 7 15 1 0
BITMAP
FE
7C
38
38
38
38
38
38
38
38
38
38
38
78
FE
ENDCHAR
STARTCHAR 039A
ENCODING 922
SWIDTH 720 0
DWIDTH 16 0
BBX 15 15 1 0
BITMAP
FE7C
7C78
3860
38C0
3980
3B00
3F00
3F80
3F80
3BC0
39E0
38F0
38F0
787C
FE3E
ENDCHAR
STARTCHAR 039B
ENCODING 923
SWIDTH 675 0
DWIDTH 15 0
BBX 15 15 0 0
BITMAP
0300
0380
0380
0780
07C0
05C0
09E0
08E0
18F0
10F0
1070
3078
2078
707C
F8FE
ENDCHAR
STARTCHAR 039C
ENCODING 924
SWIDTH 945 0
DWIDTH 21 0
BBX 20 15 1 0
BITMAP
7C03E0
3C03C0
3C0780
3E0780
3E0FC0
2F0FC0
270BC0
279BC0
2791C0
23D1C0
63F1C0
61E1C0
61E1C0
F0C3E0
F0C7F0
ENDCHAR
STARTCHAR 039D
ENCODING 925
SWIDTH 720 0
DWIDTH 16 0
BBX 14 15 1 0
BITMAP
F83C
7818
3C18
3E18
3F18
2F18
2798
23D8
23D8
21F8
20F8
2078
6078
7038
F818
ENDCHAR
STARTCHAR 039E
ENCODING 926
SWIDTH 585 0
DWIDTH 13 0
BBX 12 15 1 0
BITMAP
FFE0
FFE0
C070
C030
0000
30C0
3FC0
3FC0
39C0
20C0
0000
C030
E070
FFF0
FFF0
ENDCHAR
STARTCHAR 039F
ENCODING 927
SWIDTH 720 0
DWIDTH 16 0
BBX 15 15 1 0
BITMAP
0FE0
3CF0
7038
703C
F01C
E01E
E01E
E01E
E01E
F01E
F01C
701C
7838
3C70
0FE0
ENDCHAR
STARTCHAR 03A0
ENCODING 928
SWIDTH 765 0
DWIDTH 17 0
BBX 15 15 1 0
BITMAP
FFFE
783C
383C
383C
383C
383C
383C
383C
383C
383C
383C
383C
383C
783C
FE7E
ENDCHAR
STARTCHAR 03A1
ENCODING 929
SWIDTH 630 0
DWIDTH 14 0
BBX 12 15 1 0
BITMAP
FFC0
79E0
38F0
3870
3870
3870
3870
38F0
3BE0
3B80
3800
3800
3800
7C00
FE00
ENDCHAR
STARTCHAR 03A3
ENCODING 931
SWIDTH 585 0
DWIDTH 13 0
BBX 12 15 1 0
BITMAP
FFE0
70E0
7860
3C60
1C00
1E00
0F00
0780
0F00
1E00
3C00
3C30
7830
F0F0
FFF0
ENDCHAR
STARTCHAR 03A4
ENCODING 932
SWIDTH 630 0
DWIDTH 14 0
BBX 13 15 1 0
BITMAP
FFF8
E738
C718
8718
0700
0700
0700
0700
0700
0700
0700
0700
0700
0F80
3FC0
ENDCHAR
STARTCHAR 03A5
ENCODING 933
SWIDTH 630 0
DWIDTH 14 0
BBX 14 15 0 0
BITMAP
FE7C
7C38
3C10
1C30
1E20
0E60
0F40
07C0
0780
0780
0780
0780
0780
07C0
1FE0
ENDCHAR
STARTCHAR 03A6
ENCODING 934
SWIDTH 765 0
DWIDTH 17 0
BBX 15 15 1 0
BITMAP
0FE0
07C0
07C0
3FF8
73BC
E39E
E38E
E38E
E38E
F38E
7B9C
3FF8
0FC0
07C0
0FE0
ENDCHAR
STARTCHAR 03A7
ENCODING 935
SWIDTH 675 0
DWIDTH 15 0
BBX 14 15 1 0
BITMAP
FE7C
7C38
3C30
3C60
1E40
0FC0
0F80
0780
07C0
0FC0
19E0
11E0
30F0
F0F8
F9FC
ENDCHAR
STARTCHAR 03A8
ENCODING 936
SWIDTH 810 0
DWIDTH 18 0
BBX 18 15 0 0
BITMAP
7BF3C0
F9E380
38E780
38E780
38E700
38E700
38E700
3CE700
1FFE00
07F800
00E000
00E000
01E000
01F000
07F800
ENDCHAR
STARTCHAR 03A9
ENCODING 937
SWIDTH 810 0
DWIDTH 18 0
BBX 17 15 1 0
BITMAP
07F000
1E3C00
3C1E00
780E00
780F00
700F00
700F00
700F00
700E00
380E00
380C00
CC1980
FC3F80
FE3F00
FE3F00
ENDCHAR
STARTCHAR 03AA
ENCODING 938
SWIDTH 360 0
DWIDTH 8 0
BBX 8 19 0 0
BITMAP
E7
E7
63
00
7F
3E
1C
1C
1C
1C
1C
1C
1C
1C
1C
1C
1C
3C
7F
ENDCHAR
STARTCHAR 03AB
ENCODING 939
SWIDTH 630 0
DWIDTH 14 0
BBX 14 19 0 0
BITMAP
0E70
0E70
0E70
0000
FE7C
7C38
3C10
1C30
1E20
0E60
0F40
07C0
0780
0780
0780
0780
0780
07C0
1FE0
ENDCHAR
STARTCHAR 03AC
ENCODING 940
SWIDTH 630 0
DWIDTH 14 0
BBX 13 16 1 0
BITMAP
0600
0600
0400
0C00
0000
0000
3E70
73F0
E1E0
E1E0
E1C0
E1C0
E1C0
F3C0
7368
3E38
ENDCHAR
STARTCHAR 03AD
ENCODING 941
SWIDTH 405 0
DWIDTH 9 0
BBX 8 16 1 0
BITMAP
0C
0C
0C
18
00
00
7F
E3
E3
70
1C
F8
E0
E3
F3
7F
ENDCHAR
STARTCHAR 03AE
ENCODING 942
SWIDTH 630 0
DWIDTH 14 0
BBX 12 21 1 -5
BITMAP
0700
0700
0600
0600
0000
0000
FBC0
F7E0
78E0
78E0
78E0
78E0
78E0
78E0
78E0
78E0
00E0
00E0
00E0
00F0
00C0
ENDCHAR
STARTCHAR 03AF
ENCODING 943
SWIDTH 315 0
DWIDTH 7 0
BBX 7 16 1 0
BITMAP
38
38
30
30
00
00
F8
F8
78
78
78
78
78
78
38
3E
ENDCHAR
STARTCHAR 03B0
ENCODING 944
SWIDTH 495 0
DWIDTH 11 0
BBX 11 16 0 0
BITMAP
0700
0600
36C0
36C0
0000
0000
F9E0
F9E0
3860
3860
3860
3860
3860
38C0
3F80
1F00
ENDCHAR
STARTCHAR 03B1
ENCODING 945
SWIDTH 630 0
DWIDTH 14 0
BBX 13 10 1 0
BITMAP
3E70
73F0
E1E0
E1E0
E1C0
E1C0
E1C0
F3C0
7368
3E38
ENDCHAR
STARTCHAR 03B2
ENCODING 946
SWIDTH 540 0
DWIDTH 12 0
BBX 11 21 1 -5
BITMAP
1F00
3FC0
71C0
61C0
E1C0
E1C0
E380
EE00
E7C0
E1E0
E0E0
E0E0
E0E0
E1E0
F1C0
FF80
E000
E000
E000
F000
C000
ENDCHAR
STARTCHAR 03B3
ENCODING 947
SWIDTH 540 0
DWIDTH 12 0
BBX 12 16 0 -6
BITMAP
F8F0
3C60
1C40
1CC0
1E80
0F80
0F00
0700
0700
0700
0780
0B80
0980
0980
0F00
0200
ENDCHAR
STARTCHAR 03B4
ENCODING 948
SWIDTH 540 0
DWIDTH 12 0
BBX 11 16 1 0
BITMAP
1F00
3F80
3F80
6000
3000
3C00
1F00
3F80
77C0
E3C0
E1C0
E1E0
E1C0
E1C0
7380
3F00
ENDCHAR
STARTCHAR 03B5
ENCODING 949
SWIDTH 405 0
DWIDTH 9 0
BBX 8 10 1 0
BITMAP
7F
E3
E3
70
1C
F8
E0
E3
F3
7F
ENDCHAR
STARTCHAR 03B6
ENCODING 950
SWIDTH 450 0
DWIDTH 10 0
BBX 9 22 1 -6
BITMAP
FF80
FF80
FF80
C300
8E00
1C00
3800
7000
7000
E000
E000
E000
F000
FC00
7F00
3F80
0780
0380
0700
0700
0C00
0800
ENDCHAR
STARTCHAR 03B7
ENCODING 951
SWIDTH 630 0
DWIDTH 14 0
BBX 12 15 1 -5
BITMAP
FBC0
F7E0
78E0
78E0
78E0
78E0
78E0
78E0
78E0
78E0
00E0
00E0
00E0
00F0
00C0
ENDCHAR
STARTCHAR 03B8
ENCODING 952
SWIDTH 540 0
DWIDTH 12 0
BBX 11 16 1 0
BITMAP
1F00
3B80
71C0
F1C0
E1E0
E1E0
E0E0
FFE0
FFE0
E0E0
E0E0
E1E0
F1C0
71C0
7B80
1F00
ENDCHAR
STARTCHAR 03B9
ENCODING 953
SWIDTH 315 0
DWIDTH 7 0
BBX 7 10 1 0
BITMAP
F8
F8
78
78
78
78
78
78
38
3E
ENDCHAR
STARTCHAR 03BA
ENCODING 954
SWIDTH 585 0
DWIDTH 13 0
BBX 12 10 1 0
BITMAP
FBE0
F9C0
7B00
7E00
7F00
7F80
7BC0
79C0
79E0
78F0
ENDCHAR
STARTCHAR 03BB
ENCODING 955
SWIDTH 540 0
DWIDTH 12 0
BBX 12 16 0 0
BITMAP
3C00
7E00
0E00
0E00
0F00
0700
0F00
0F00
1F80
1B80
1B80
3BC0
31C0
71C0
71E0
F0F0
ENDCHAR
STARTCHAR 03BC
ENCODING 956
SWIDTH 630 0
DWIDTH 14 0
BBX 13 15 1 -5
BITMAP
F3E0
F3E0
70E0
70E0
70E0
70E0
70E0
79E0
7FF8
7EF0
7000
7000
7000
7000
6000
ENDCHAR
STARTCHAR 03BD
ENCODING 957
SWIDTH 495 0
DWIDTH 11 0
BBX 11 10 0 0
BITMAP
F1E0
F9E0
3860
3C40
1CC0
1C80
0F80
0F00
0E00
0600
ENDCHAR
STARTCHAR 03BE
ENCODING 958
SWIDTH 450 0
DWIDTH 10 0
BBX 9 22 1 -6
BITMAP
FF80
FF80
FF80
CE00
3800
7000
7000
7000
7800
0E00
7800
E000
E000
F000
FE00
7F80
0780
0380
0300
0700
0C00
0800
ENDCHAR
STARTCHAR 03BF
ENCODING 959
SWIDTH 540 0
DWIDTH 12 0
BBX 11 10 1 0
BITMAP
3F80
73C0
E1C0
E1E0
E0E0
E0E0
E0E0
F1C0
79C0
3F00
ENDCHAR
STARTCHAR 03C0
ENCODING 960
SWIDTH 585 0
DWIDTH 13 0
BBX 11 11 1 0
BITMAP
0020
7FE0
FFE0
FFE0
1380
1380
3380
3380
3380
73E0
71E0
ENDCHAR
STARTCHAR 03C1
ENCODING 961
SWIDTH 540 0
DWIDTH 12 0
BBX 11 15 1 -5
BITMAP
3F80
71C0
E1E0
E1E0
E1E0
E1E0
E1C0
E1C0
E380
FF00
E000
E000
E000
E000
C000
ENDCHAR
STARTCHAR 03C2
ENCODING 962
SWIDTH 450 0
DWIDTH 10 0
BBX 9 15 1 -6
BITMAP
3F00
7300
E300
E100
E000
E000
F000
7C00
3F00
0F80
0780
0380
0700
0700
0C00
ENDCHAR
STARTCHAR 03C3
ENCODING 963
SWIDTH 630 0
DWIDTH 14 0
BBX 13 11 1 0
BITMAP
0018
3FF8
7FF8
F1F0
E1E0
E0E0
E0E0
E0E0
F1C0
79C0
3F00
ENDCHAR
STARTCHAR 03C4
ENCODING 964
SWIDTH 360 0
DWIDTH 8 0
BBX 8 11 0 0
BITMAP
03
7F
7F
DE
1C
1C
1C
1C
1C
1D
1F
ENDCHAR
STARTCHAR 03C5
ENCODING 965
SWIDTH 495 0
DWIDTH 11 0
BBX 11 10 0 0
BITMAP
F9E0
F9E0
3860
3860
3860
3860
3860
38C0
3F80
1F00
ENDCHAR
STARTCHAR 03C6
ENCODING 966
SWIDTH 765 0
DWIDTH 17 0
BBX 16 15 1 -5
BITMAP
38FC
71CE
F38E
E38F
E387
E38F
E38E
F38E
7B9C
1FF8
0380
0380
0380
03C0
0300
ENDCHAR
STARTCHAR 03C7
ENCODING 967
SWIDTH 540 0
DWIDTH 12 0
BBX 12 15 0 -6
BITMAP
79F0
FCE0
3CC0
1CC0
0E80
0F80
0F00
0700
0F00
0F00
1B80
1380
33C0
31E0
F9F0
ENDCHAR
STARTCHAR 03C8
ENCODING 968
SWIDTH 765 0
DWIDTH 17 0
BBX 16 21 0 -5
BITMAP
00C0
03C0
01C0
01C0
01C0
01C0
F9CF
F9CF
39C7
39C3
39C3
39C3
39C7
3DC6
1FDC
0FF0
01C0
01C0
01E0
01E0
0180
ENDCHAR
STARTCHAR 03C9
ENCODING 969
SWIDTH 765 0
DWIDTH 17 0
BBX 15 10 1 0
BITMAP
3838
701C
F11E
E38E
E38E
E38E
E10E
F39E
729C
3E78
ENDCHAR
STARTCHAR 03CA
ENCODING 970
SWIDTH 315 0
DWIDTH 7 0
BBX 8 15 0 0
BITMAP
42
E7
E7
00
00
7C
7C
3C
3C
3C
3C
3C
3C
1C
1F
ENDCHAR
STARTCHAR 03CB
ENCODING 971
SWIDTH 495 0
DWIDTH 11 0
BBX 11 15 0 0
BITMAP
1080
39C0
39C0
0000
0000
F9E0
F9E0
3860
3860
3860
3860
3860
38C0
3F80
1F00
ENDCHAR
STARTCHAR 03CC
ENCODING 972
SWIDTH 540 0
DWIDTH 12 0
BBX 11 16 1 0
BITMAP
0600
0600
0C00
0C00
0000
0000
3F80
73C0
E1C0
E1E0
E0E0
E0E0
E0E0
F1C0
79C0
3F00
ENDCHAR
STARTCHAR 03CD
ENCODING 973
SWIDTH 495 0
DWIDTH 11 0
BBX 11 16 0 0
BITMAP
0700
0600
0600
0600
0000
0000
F9E0
F9E0
3860
3860
3860
3860
3860
38C0
3F80
1F00
ENDCHAR
STARTCHAR 03CE
ENCODING 974
SWIDTH 765 0
DWIDTH 17 0
BBX 15 16 1 0
BITMAP
01C0
0180
0180
0100
0000
0000
3838
701C
F11E
E38E
E38E
E38E
E10E
F39E
729C
3E78
ENDCHAR
STARTCHAR 03CF
ENCODING 975
SWIDTH 720 0
DWIDTH 16 0
BBX 15 20 1 -6
BITMAP
FE7C
7C78
3860
38C0
3980
3B00
3F00
3F80
3F80
3BC0
39E0
38F0
38F0
787C
FE3E
0078
00E0
01C0
01E0
01F0
ENDCHAR
STARTCHAR 03D1
ENCODING 977
SWIDTH 585 0
DWIDTH 13 0
BBX 13 16 0 0
BITMAP
0F80
1FC0
38E0
38E0
38F0
3870
3C70
0FF8
01F8
1870
F870
38F0
38E0
38E0
3DC0
1F80
ENDCHAR
STARTCHAR 03D2
ENCODING 978
SWIDTH 675 0
DWIDTH 15 0
BBX 15 15 0 0
BITMAP
781E
FC3E
1E6E
0E46
0740
07C0
0780
0380
0380
0380
0380
0380
0380
07C0
0FE0
ENDCHAR
STARTCHAR 03D5
ENCODING 981
SWIDTH 765 0
DWIDTH 17 0
BBX 16 21 1 -5
BITMAP
0180
0F80
0380
0380
0380
0380
3FF8
739C
E38E
E38E
E38F
E38F
E38E
F38E
7B9C
3FF8
0380
0380
0380
0380
0300
ENDCHAR
STARTCHAR 03D6
ENCODING 982
SWIDTH 810 0
DWIDTH 18 0
BBX 17 11 1 0
BITMAP
000180
3FFF80
7FFF80
CC3F00
1C0E00
38CF00
38CF00
38CF00
3CCF00
3DFE00
1F3C00
ENDCHAR
STARTCHAR 03D7
ENCODING 983
SWIDTH 585 0
DWIDTH 13 0
BBX 12 16 1 -6
BITMAP
FBE0
F9C0
7B00
7E00
7F00
7F80
7BC0
79C0
79F0
78F0
0070
0070
0070
10E0
1FC0
0200
ENDCHAR
STARTCHAR 03F0
ENCODING 1008
SWIDTH 585 0
DWIDTH 13 0
BBX 12 10 1 0
BITMAP
F0F0
F1E0
33C0
3780
3F80
3F80
3D80
79D0
F9F0
70E0
ENDCHAR
STARTCHAR 03F1
ENCODING 1009
SWIDTH 540 0
DWIDTH 12 0
BBX 11 15 1 -6
BITMAP
3F80
73C0
E1E0
E0E0
E0E0
E0E0
E0E0
F1C0
FF80
DE00
C000
F000
7F80
7FC0
1FC0
ENDCHAR
STARTCHAR 03F2
ENCODING 1010
SWIDTH 450 0
DWIDTH 10 0
BBX 9 10 1 0
BITMAP
3F80
7300
E100
E100
E000
E000
E000
F000
7F80
3F00
ENDCHAR
STARTCHAR 03F4
ENCODING 1012
SWIDTH 720 0
DWIDTH 16 0
BBX 15 15 1 0
BITMAP
0FE0
3CF0
7038
703C
E01C
E01E
E01E
FFFE
E01E
F01E
F01C
701C
7838
3C70
0FE0
ENDCHAR
STARTCHAR 03F6
ENCODING 1014
SWIDTH 450 0
DWIDTH 10 0
BBX 9 10 1 0
BITMAP
FE00
CF00
C700
0780
3F80
3F80
0700
8700
CE00
FC00
ENDCHAR
STARTCHAR 03F7
ENCODING 1015
SWIDTH 630 0
DWIDTH 14 0
BBX 12 15 1 0
BITMAP
FE00
7800
3800
3FC0
39F0
3870
3870
3870
3870
3870
3BE0
3B80
3800
7C00
FE00
ENDCHAR
STARTCHAR 03F8
ENCODING 1016
SWIDTH 585 0
DWIDTH 13 0
BBX 12 21 1 -5
BITMAP
3000
F000
7000
7000
7000
7000
77E0
7DF0
78F0
7870
7070
7070
7070
70E0
79C0
7F80
7000
7000
7000
7800
6000
ENDCHAR
STARTCHAR 03F9
ENCODING 1017
SWIDTH 630 0
DWIDTH 14 0
BBX 12 15 1 0
BITMAP
0FE0
3C70
7030
7030
F030
E000
E000
E000
E000
F000
F000
7800
7800
3FF0
0FE0
ENDCHAR
STARTCHAR 0400
ENCODING 1024
SWIDTH 585 0
DWIDTH 13 0
BBX 12 19 1 0
BITMAP
0C00
0600
0600
0000
FFE0
78E0
3860
3820
3800
3880
3980
3F80
3980
3880
3800
3830
3830
7CF0
FFF0
ENDCHAR
STARTCHAR 0401
ENCODING 1025
SWIDTH 585 0
DWIDTH 13 0
BBX 12 19 1 0
BITMAP
39C0
39C0
3180
0000
FFE0
78E0
3860
3820
3800
3880
3980
3F80
3980
3880
3800
3830
3830
7CF0
FFF0
ENDCHAR
STARTCHAR 0402
ENCODING 1026
SWIDTH 765 0
DWIDTH 17 0
BBX 16 15 1 0
BITMAP
FFF8
E738
C718
8718
0700
0700
0778
07FE
070F
070F
0707
0707
0707
0F0E
1FBC
ENDCHAR
STARTCHAR 0403
ENCODING 1027
SWIDTH 585 0
DWIDTH 13 0
BBX 11 21 1 0
BITMAP
0380
0300
0600
0400
0000
0000
FFE0
78E0
3860
3820
3800
3800
3800
3800
3800
3800
3800
3800
3800
7C00
FE00
ENDCHAR
STARTCHAR 0404
ENCODING 1028
SWIDTH 630 0
DWIDTH 14 0
BBX 12 15 1 0
BITMAP
0FE0
3870
7030
7030
F020
E000
E000
FFC0
E000
E000
F030
7030
7830
3C70
0FE0
ENDCHAR
STARTCHAR 0405
ENCODING 1029
SWIDTH 540 0
DWIDTH 12 0
BBX 11 15 1 0
BITMAP
3F80
7380
61C0
E0C0
F000
7C00
7F00
3F80
1FC0
07C0
C1E0
C0E0
E0C0
F3C0
7F00
ENDCHAR
STARTCHAR 0406
ENCODING 1030
SWIDTH 360 0
DWIDTH 8 0
BBX 7 15 1 0
BITMAP
FE
7C
38
38
38
38
38
38
38
38
38
38
38
78
FE
ENDCHAR
STARTCHAR 0407
ENCODING 1031
SWIDTH 360 0
DWIDTH 8 0
BBX 8 19 0 0
BITMAP
67
F7
67
00
7F
3E
1C
1C
1C
1C
1C
1C
1C
1C
1C
1C
1C
3C
7F
ENDCHAR
STARTCHAR 0408
ENCODING 1032
SWIDTH 360 0
DWIDTH 8 0
BBX 7 21 0 -6
BITMAP
7E
3C
3C
3C
3C
3C
3C
3C
3C
3C
3C
3C
3C
3C
38
38
38
30
70
C0
80
ENDCHAR
STARTCHAR 0409
ENCODING 1033
SWIDTH 945 0
DWIDTH 21 0
BBX 20 15 0 0
BITMAP
1FFC00
0E7800
047800
047800
047800
047800
047F00
047FE0
0C79F0
0C78F0
0C78F0
1878F0
F878F0
F879E0
F0FF80
ENDCHAR
STARTCHAR 040A
ENCODING 1034
SWIDTH 990 0
DWIDTH 22 0
BBX 21 15 1 0
BITMAP
FCFF00
787C00
383800
383800
383800
383800
383F00
3FFFE0
3838F0
383878
383878
383878
383870
787CF0
FCFFC0
ENDCHAR
STARTCHAR 040B
ENCODING 1035
SWIDTH 855 0
DWIDTH 19 0
BBX 18 15 1 0
BITMAP
FFF800
E73800
C71800
871800
070000
070000
077800
07FE00
070E00
070F00
070700
070700
070700
0F8F80
1FDFC0
ENDCHAR
STARTCHAR 040C
ENCODING 1036
SWIDTH 720 0
DWIDTH 16 0
BBX 15 21 1 0
BITMAP
00C0
01C0
0180
0300
0000
0000
FE7C
7C38
3830
3860
38C0
3980
3B80
3B80
3BC0
39E0
39F0
38F0
3878
787C
FE3E
ENDCHAR
STARTCHAR 040D
ENCODING 1037
SWIDTH 765 0
DWIDTH 17 0
BBX 15 19 1 0
BITMAP
0700
0300
0180
0000
FE1E
7C3C
383C
387C
38FC
38BC
39BC
393C
3B3C
3A3C
3E3C
3C3C
3C3C
783C
F87E
ENDCHAR
STARTCHAR 040E
ENCODING 1038
SWIDTH 675 0
DWIDTH 15 0
BBX 15 20 0 0
BITMAP
0C18
0E38
0F70
03E0
0000
FE3E
7C1C
3C08
1C18
1E10
0F30
0720
07E0
03C0
03C0
0180
0180
2700
3F00
3E00
ENDCHAR
STARTCHAR 040F
ENCODING 1039
SWIDTH 765 0
DWIDTH 17 0
BBX 15 19 1 -4
BITMAP
FE7E
783C
383C
383C
383C
383C
383C
383C
383C
383C
383C
383C
383C
7C3C
FFFE
0380
0380
0380
0380
ENDCHAR
STARTCHAR 0410
ENCODING 1040
SWIDTH 675 0
DWIDTH 15 0
BBX 15 15 0 0
BITMAP
0180
0380
0380
03C0
05C0
05E0
0CE0
08F0
0870
1878
1FF8
3038
303C
703E
F87E
ENDCHAR
STARTCHAR 0411
ENCODING 1041
SWIDTH 630 0
DWIDTH 14 0
BBX 13 15 1 0
BITMAP
FFE0
78E0
3860
3830
3800
3800
3F80
3FE0
38F0
3878
3878
3878
3870
7CF0
FFC0
ENDCHAR
STARTCHAR 0412
ENCODING 1042
SWIDTH 630 0
DWIDTH 14 0
BBX 13 15 1 0
BITMAP
FFC0
79F0
38F0
3870
3870
38E0
3BC0
3FE0
38F0
3878
3878
3878
3878
7CF0
FFC0
ENDCHAR
STARTCHAR 0413
ENCODING 1043
SWIDTH 585 0
DWIDTH 13 0
BBX 11 15 1 0
BITMAP
FFE0
78E0
3860
3820
3800
3800
3800
3800
3800
3800
3800
3800
3800
7C00
FE00
ENDCHAR
STARTCHAR 0414
ENCODING 1044
SWIDTH 720 0
DWIDTH 16 0
BBX 15 19 1 -4
BITMAP
3FFC
1C78
0C70
0870
0870
0870
0870
0870
1870
1870
1870
1070
3070
6070
FFFE
C00E
C00E
C00C
C00C
ENDCHAR
STARTCHAR 0415
ENCODING 1045
SWIDTH 585 0
DWIDTH 13 0
BBX 12 15 1 0
BITMAP
FFE0
78E0
3860
3820
3800
3880
3980
3F80
3980
3880
3800
3830
3830
7CF0
FFF0
ENDCHAR
STARTCHAR 0416
ENCODING 1046
SWIDTH 1035 0
DWIDTH 23 0
BBX 23 15 0 0
BITMAP
7C7E7C
1C3C38
0C3820
063860
0338C0
013980
03BB80
03BBC0
07B9C0
0739E0
0F38F0
1E38F0
1E3878
7C3C3C
FC7E3E
ENDCHAR
STARTCHAR 0417
ENCODING 1047
SWIDTH 585 0
DWIDTH 13 0
BBX 11 15 1 0
BITMAP
7F80
73C0
61C0
C1E0
01C0
03C0
1F00
1F80
03C0
01E0
C0E0
C0E0
E1E0
F3C0
7F80
ENDCHAR
STARTCHAR 0418
ENCODING 1048
SWIDTH 765 0
DWIDTH 17 0
BBX 15 15 1 0
BITMAP
FE1E
7C3C
383C
387C
38FC
38BC
39BC
393C
3B3C
3A3C
3E3C
3C3C
3C3C
783C
F87E
ENDCHAR
STARTCHAR 0419
ENCODING 1049
SWIDTH 765 0
DWIDTH 17 0
BBX 15 20 1 0
BITMAP
1830
1C30
0E70
07C0
0000
FE1E
7C3C
383C
387C
38FC
38BC
39BC
393C
3B3C
3A3C
3E3C
3C3C
3C3C
783C
F87E
ENDCHAR
STARTCHAR 041A
ENCODING 1050
SWIDTH 720 0
DWIDTH 16 0
BBX 15 15 1 0
BITMAP
FE7C
7C38
3830
3860
38C0
3980
3B80
3B80
3BC0
39E0
39F0
38F0
3878
787C
FE3E
ENDCHAR
STARTCHAR 041B
ENCODING 1051
SWIDTH 675 0
DWIDTH 15 0
BBX 15 15 0 0
BITMAP
1FFE
0C3C
0438
0438
0438
0438
0438
0438
0C38
0C38
0C38
1838
F838
F87C
F0FE
ENDCHAR
STARTCHAR 041C
ENCODING 1052
SWIDTH 945 0
DWIDTH 21 0
BBX 20 15 1 0
BITMAP
7C03E0
3C03C0
3C0780
3E0780
3E0FC0
2F0FC0
270BC0
279BC0
2791C0
23D1C0
63F1C0
61E1C0
61E1C0
F0C3E0
F0C7F0
ENDCHAR
STARTCHAR 041D
ENCODING 1053
SWIDTH 765 0
DWIDTH 17 0
BBX 15 15 1 0
BITMAP
FE7E
7C3C
383C
383C
383C
383C
383C
3FFC
383C
383C
383C
383C
383C
783C
FE7E
ENDCHAR
STARTCHAR 041E
ENCODING 1054
SWIDTH 720 0
DWIDTH 16 0
BBX 15 15 1 0
BITMAP
0FE0
3CF0
7038
703C
F01C
E01E
E01E
E01E
E01E
F01E
F01C
701C
7838
3C70
0FE0
ENDCHAR
STARTCHAR 041F
ENCODING 1055
SWIDTH 765 0
DWIDTH 17 0
BBX 15 15 1 0
BITMAP
FFFE
783C
383C
383C
383C
383C
383C
383C
383C
383C
383C
383C
383C
783C
FE7E
ENDCHAR
STARTCHAR 0420
ENCODING 1056
SWIDTH 630 0
DWIDTH 14 0
BBX 12 15 1 0
BITMAP
FFC0
79E0
38F0
3870
3870
3870
3870
38F0
3BE0
3B80
3800
3800
3800
7C00
FE00
ENDCHAR
STARTCHAR 0421
ENCODING 1057
SWIDTH 630 0
DWIDTH 14 0
BBX 12 15 1 0
BITMAP
0FE0
3C70
7030
7030
F030
E000
E000
E000
E000
F000
F000
7800
7800
3FF0
0FE0
ENDCHAR
STARTCHAR 0422
ENCODING 1058
SWIDTH 630 0
DWIDTH 14 0
BBX 13 15 1 0
BITMAP
FFF8
E738
C718
8718
0700
0700
0700
0700
0700
0700
0700
0700
0700
0F80
3FC0
ENDCHAR
STARTCHAR 0423
ENCODING 1059
SWIDTH 675 0
DWIDTH 15 0
BBX 15 15 0 0
BITMAP
FE3E
7C1C
3C08
1C18
1E10
0F30
0720
07E0
03C0
03C0
0180
0180
2700
3F00
3E00
ENDCHAR
STARTCHAR 0424
ENCODING 1060
SWIDTH 855 0
DWIDTH 19 0
BBX 17 16 1 0
BITMAP
07F000
03F000
01C000
0FFC00
3DDF00
71C780
E1C380
E1C380
E1C380
F1C380
71C780
7DCF00
1FFC00
01C000
03E000
07F000
ENDCHAR
STARTCHAR 0425
ENCODING 1061
SWIDTH 675 0
DWIDTH 15 0
BBX 14 15 1 0
BITMAP
FE7C
7C38
3C30
3C60
1E40
0FC0
0F80
0780
07C0
0FC0
19E0
11E0
30F0
F0F8
F9FC
ENDCHAR
STARTCHAR 0426
ENCODING 1062
SWIDTH 810 0
DWIDTH 18 0
BBX 16 19 1 -4
BITMAP
FE7E
783C
383C
383C
383C
383C
383C
383C
383C
383C
383C
383C
383C
783C
FFFF
0003
0003
0003
0003
ENDCHAR
STARTCHAR 0427
ENCODING 1063
SWIDTH 720 0
DWIDTH 16 0
BBX 14 15 1 0
BITMAP
FCFC
7878
7878
7878
7878
7878
3878
3C78
1FF8
0078
0078
0078
0078
00F8
01FC
ENDCHAR
STARTCHAR 0428
ENCODING 1064
SWIDTH 1035 0
DWIDTH 23 0
BBX 22 15 1 0
BITMAP
FCFDFC
7878F0
3870F0
387070
387070
387070
387070
387070
387070
387070
387070
387070
387070
787070
FFFFFC
ENDCHAR
STARTCHAR 0429
ENCODING 1065
SWIDTH 1080 0
DWIDTH 24 0
BBX 23 19 1 -4
BITMAP
FCFDFC
7878F0
3870F0
387070
387070
387070
387070
387070
387070
387070
387070
387070
387070
787070
FFFFFE
00000E
00000E
00000E
00000E
ENDCHAR
STARTCHAR 042A
ENCODING 1066
SWIDTH 765 0
DWIDTH 17 0
BBX 15 15 1 0
BITMAP
FFC0
EF80
CF00
8F00
0F00
0F00
0FE0
0FFC
0F1E
0F1E
0F0E
0F0E
0F1E
0F3C
1FF8
ENDCHAR
STARTCHAR 042B
ENCODING 1067
SWIDTH 900 0
DWIDTH 20 0
BBX 19 15 1 0
BITMAP
FE0FE0
7C07C0
380380
380380
380380
380380
3F0380
3FE380
38F380
38F380
387380
387380
38F380
7DE3C0
FFCFE0
ENDCHAR
STARTCHAR 042C
ENCODING 1068
SWIDTH 630 0
DWIDTH 14 0
BBX 13 15 1 0
BITMAP
FE00
7C00
3800
3800
3800
3800
3F80
3FF0
38F0
3878
3878
3878
3878
7CF0
FFC0
ENDCHAR
STARTCHAR 042D
ENCODING 1069
SWIDTH 630 0
DWIDTH 14 0
BBX 12 15 1 0
BITMAP
7F80
61C0
60E0
C0F0
0070
0070
0070
1FF0
0070
0070
4070
C0F0
C0E0
E1C0
7F80
ENDCHAR
STARTCHAR 042E
ENCODING 1070
SWIDTH 1035 0
DWIDTH 23 0
BBX 22 15 1 0
BITMAP
FE1FC0
7C71E0
38E070
38E078
39E038
39C038
39C03C
3FC03C
39C03C
39E038
39E038
38E038
38F070
7878E0
FE1F80
ENDCHAR
STARTCHAR 042F
ENCODING 1071
SWIDTH 675 0
DWIDTH 15 0
BBX 15 15 0 0
BITMAP
07FE
1E3C
3C38
3C38
3C38
3C38
1E38
0FF8
07F8
0F38
0E38
1E38
3C38
7C7C
F8FE
ENDCHAR
STARTCHAR 0430
ENCODING 1072
SWIDTH 495 0
DWIDTH 11 0
BBX 10 10 1 0
BITMAP
3F00
6F00
E700
E700
0F00
7700
E700
E700
E7C0
FFC0
ENDCHAR
STARTCHAR 0431
ENCODING 1073
SWIDTH 540 0
DWIDTH 12 0
BBX 11 16 1 0
BITMAP
0060
03E0
0FC0
3F80
6000
6000
E700
FFC0
E3C0
E1E0
E0E0
E0E0
E0E0
E1C0
7180
3F00
ENDCHAR
STARTCHAR 0432
ENCODING 1074
SWIDTH 540 0
DWIDTH 12 0
BBX 11 10 1 0
BITMAP
FF80
71C0
71C0
71C0
7F00
73C0
71E0
70E0
79E0
FF80
ENDCHAR
STARTCHAR 0433
ENCODING 1075
SWIDTH 450 0
DWIDTH 10 0
BBX 9 10 1 0
BITMAP
FF80
7180
7080
7000
7000
7000
7000
7000
7800
FC00
ENDCHAR
STARTCHAR 0434
ENCODING 1076
SWIDTH 585 0
DWIDTH 13 0
BBX 13 14 0 -4
BITMAP
3FF0
08E0
08E0
08E0
18E0
18E0
18E0
10E0
30E0
FFF8
E018
E018
6018
6018
ENDCHAR
STARTCHAR 0435
ENCODING 1077
SWIDTH 495 0
DWIDTH 11 0
BBX 10 10 1 0
BITMAP
3F00
7380
E380
E180
FFC0
F000
E000
F000
7D80
3F00
ENDCHAR
STARTCHAR 0436
ENCODING 1078
SWIDTH 855 0
DWIDTH 19 0
BBX 18 10 1 0
BITMAP
FBF7C0
31E300
19E600
0DEC00
0FFC00
1FFE00
1DEE00
3DEF00
F9E7C0
F3F3C0
ENDCHAR
STARTCHAR 0437
ENCODING 1079
SWIDTH 450 0
DWIDTH 10 0
BBX 9 10 1 0
BITMAP
FF00
C780
C380
0700
1C00
1F80
0380
C380
E780
FF00
ENDCHAR
STARTCHAR 0438
ENCODING 1080
SWIDTH 630 0
DWIDTH 14 0
BBX 13 10 1 0
BITMAP
F8F8
70F0
71E0
73E0
72E0
76E0
7CE0
78E0
78F0
F1F8
ENDCHAR
STARTCHAR 0439
ENCODING 1081
SWIDTH 630 0
DWIDTH 14 0
BBX 13 16 1 0
BITMAP
1040
30E0
38C0
1F80
0000
0000
F8F8
70F0
71E0
73E0
72E0
76E0
7CE0
78E0
78F0
F1F8
ENDCHAR
STARTCHAR 043A
ENCODING 1082
SWIDTH 585 0
DWIDTH 13 0
BBX 12 10 1 0
BITMAP
F9F0
78C0
7180
7300
7700
7700
7380
73C0
79E0
FCF0
ENDCHAR
STARTCHAR 043B
ENCODING 1083
SWIDTH 585 0
DWIDTH 13 0
BBX 12 10 0 0
BITMAP
3FF0
08E0
08E0
08E0
08E0
08E0
18E0
B0E0
F1E0
E1F0
ENDCHAR
STARTCHAR 043C
ENCODING 1084
SWIDTH 720 0
DWIDTH 16 0
BBX 16 10 0 0
BITMAP
7C1F
3C3C
3E3C
3E7C
2F5C
275E
278E
238E
639E
F13F
ENDCHAR
STARTCHAR 043D
ENCODING 1085
SWIDTH 630 0
DWIDTH 14 0
BBX 13 10 1 0
BITMAP
FDF8
78F0
70E0
70E0
7FE0
78E0
70E0
70E0
78F0
FDF8
ENDCHAR
STARTCHAR 043E
ENCODING 1086
SWIDTH 540 0
DWIDTH 12 0
BBX 11 10 1 0
BITMAP
3F80
73C0
E1C0
E1E0
E0E0
E0E0
E0E0
F1C0
79C0
3F00
ENDCHAR
STARTCHAR 043F
ENCODING 1087
SWIDTH 630 0
DWIDTH 14 0
BBX 12 10 1 0
BITMAP
FFF0
70E0
70E0
70E0
70E0
70E0
70E0
70E0
78F0
FDF0
ENDCHAR
STARTCHAR 0440
ENCODING 1088
SWIDTH 630 0
DWIDTH 14 0
BBX 12 15 1 -5
BITMAP
FBE0
FDF0
7870
7870
7870
7870
7870
78E0
78E0
7F80
7800
7800
7800
7800
FE00
ENDCHAR
STARTCHAR 0441
ENCODING 1089
SWIDTH 450 0
DWIDTH 10 0
BBX 9 10 1 0
BITMAP
3F80
7300
E100
E100
E000
E000
E000
F000
7F80
3F00
ENDCHAR
STARTCHAR 0442
ENCODING 1090
SWIDTH 540 0
DWIDTH 12 0
BBX 12 10 0 0
BITMAP
7FF0
6730
C730
0700
0700
0700
0700
0700
0F00
1FC0
ENDCHAR
STARTCHAR 0443
ENCODING 1091
SWIDTH 540 0
DWIDTH 12 0
BBX 12 15 0 -6
BITMAP
FEF0
7860
3860
3C40
1CC0
1E80
0F80
0F00
0700
0700
0200
0600
0400
7C00
7800
ENDCHAR
STARTCHAR 0444
ENCODING 1092
SWIDTH 765 0
DWIDTH 17 0
BBX 16 21 1 -5
BITMAP
0180
0780
0380
0380
0380
0380
1FF8
7BBE
E38E
E38F
E38F
E387
E38F
F38E
7FBC
1FF8
0380
0380
0380
03C0
0FE0
ENDCHAR
STARTCHAR 0445
ENCODING 1093
SWIDTH 540 0
DWIDTH 12 0
BBX 11 10 1 0
BITMAP
FDE0
79C0
3980
3F00
1E00
1F00
3780
2780
63C0
F7E0
ENDCHAR
STARTCHAR 0446
ENCODING 1094
SWIDTH 675 0
DWIDTH 15 0
BBX 14 14 1 -4
BITMAP
F9F0
70E0
70E0
70E0
70E0
70E0
70E0
70E0
70F0
FFFC
001C
001C
0018
0018
ENDCHAR
STARTCHAR 0447
ENCODING 1095
SWIDTH 585 0
DWIDTH 13 0
BBX 12 10 0 0
BITMAP
FDF0
78E0
38E0
38E0
38E0
3FE0
00E0
00E0
01F0
03F0
ENDCHAR
STARTCHAR 0448
ENCODING 1096
SWIDTH 855 0
DWIDTH 19 0
BBX 18 10 1 0
BITMAP
FBFFC0
71E780
71C380
71C380
71C380
71C380
71C380
71C380
71C380
FFFFC0
ENDCHAR
STARTCHAR 0449
ENCODING 1097
SWIDTH 900 0
DWIDTH 20 0
BBX 19 14 1 -4
BITMAP
FBFFC0
71E780
71C380
71C380
71C380
71C380
71C380
71C380
71C380
FFFFE0
000060
000060
000060
000060
ENDCHAR
STARTCHAR 044A
ENCODING 1098
SWIDTH 585 0
DWIDTH 13 0
BBX 13 10 0 0
BITMAP
7F80
EF00
CE00
4E00
0FF0
0E78
0E38
0E38
0F70
1FE0
ENDCHAR
STARTCHAR 044B
ENCODING 1099
SWIDTH 810 0
DWIDTH 18 0
BBX 17 10 1 0
BITMAP
FC1F80
780F00
700F00
700E00
7F8E00
71CE00
71EE00
71EF00
7BCF00
FF9F80
ENDCHAR
STARTCHAR 044C
ENCODING 1100
SWIDTH 540 0
DWIDTH 12 0
BBX 11 10 1 0
BITMAP
FC00
7800
7000
7000
7FC0
71E0
71E0
71E0
79C0
FF80
ENDCHAR
STARTCHAR 044D
ENCODING 1101
SWIDTH 450 0
DWIDTH 10 0
BBX 9 10 1 0
BITMAP
FE00
CF00
C700
0780
3F80
3F80
0700
8700
CE00
FC00
ENDCHAR
STARTCHAR 044E
ENCODING 1102
SWIDTH 810 0
DWIDTH 18 0
BBX 17 10 1 0
BITMAP
FCFE00
71CF00
738700
738700
7F8780
7F8780
738700
73C700
79EE00
FCFC00
ENDCHAR
STARTCHAR 044F
ENCODING 1103
SWIDTH 540 0
DWIDTH 12 0
BBX 12 10 0 0
BITMAP
1FF0
39E0
79E0
79E0
39E0
1FE0
1DE0
1DE0
79E0
FBF0
ENDCHAR
STARTCHAR 0450
ENCODING 1104
SWIDTH 495 0
DWIDTH 11 0
BBX 10 16 1 0
BITMAP
3000
3800
1800
0C00
0000
0000
3F00
7380
E380
E180
FFC0
F000
E000
F000
7D80
3F00
ENDCHAR
STARTCHAR 0451
ENCODING 1105
SWIDTH 495 0
DWIDTH 11 0
BBX 10 15 1 0
BITMAP
2100
7380
7380
0000
0000
3F00
7380
E380
E180
FFC0
F000
E000
F000
7D80
3F00
ENDCHAR
STARTCHAR 0452
ENCODING 1106
SWIDTH 585 0
DWIDTH 13 0
BBX 13 21 0 -6
BITMAP
1800
7800
3800
3800
FF80
3800
39E0
3BF0
3C70
3C70
3878
3878
3838
3878
3C70
7E70
0070
0060
00E0
01C0
0380
ENDCHAR
STARTCHAR 0453
ENCODING 1107
SWIDTH 450 0
DWIDTH 10 0
BBX 9 16 1 0
BITMAP
0700
0E00
0C00
0800
0000
0000
FF80
7180
7080
7000
7000
7000
7000
7000
7800
FC00
ENDCHAR
STARTCHAR 0454
ENCODING 1108
SWIDTH 450 0
DWIDTH 10 0
BBX 9 10 1 0
BITMAP
3F80
7380
E180
E000
FE00
FE00
E000
E180
7180
3F80
ENDCHAR
STARTCHAR 0455
ENCODING 1109
SWIDTH 450 0
DWIDTH 10 0
BBX 8 10 1 0
BITMAP
7F
E7
E3
F8
7E
3F
CF
C7
E7
FE
ENDCHAR
STARTCHAR 0456
ENCODING 1110
SWIDTH 315 0
DWIDTH 7 0
BBX 6 15 1 0
BITMAP
78
78
70
00
00
F8
F8
78
78
78
78
78
78
78
FC
ENDCHAR
STARTCHAR 0457
ENCODING 1111
SWIDTH 315 0
DWIDTH 7 0
BBX 8 15 0 0
BITMAP
46
EF
EF
00
00
7C
7C
3C
3C
3C
3C
3C
3C
3C
7E
ENDCHAR
STARTCHAR 0458
ENCODING 1112
SWIDTH 270 0
DWIDTH 6 0
BBX 6 20 0 -6
BITMAP
38
3C
38
00
00
78
7C
3C
3C
3C
3C
3C
3C
3C
38
38
38
30
70
E0
ENDCHAR
STARTCHAR 0459
ENCODING 1113
SWIDTH 810 0
DWIDTH 18 0
BBX 17 10 0 0
BITMAP
1FF000
0CE000
08E000
08E000
08FF00
08E780
18E380
38E380
F0F780
F1FF00
ENDCHAR
STARTCHAR 045A
ENCODING 1114
SWIDTH 810 0
DWIDTH 18 0
BBX 17 10 1 0
BITMAP
F9F800
71E000
70E000
70E000
7FFE00
78EF80
70E780
70E380
79E780
F9FE00
ENDCHAR
STARTCHAR 045B
ENCODING 1115
SWIDTH 630 0
DWIDTH 14 0
BBX 14 16 0 0
BITMAP
1800
7800
3800
3800
FF80
3800
39E0
3BF0
3C70
3C70
3C70
3870
3870
3878
3C78
7EFC
ENDCHAR
STARTCHAR 045C
ENCODING 1116
SWIDTH 585 0
DWIDTH 13 0
BBX 12 16 1 0
BITMAP
01C0
0180
0300
0300
0000
0000
F9F0
78C0
7180
7300
7700
7700
7380
73C0
79E0
FCF0
ENDCHAR
STARTCHAR 045D
ENCODING 1117
SWIDTH 630 0
DWIDTH 14 0
BBX 13 16 1 0
BITMAP
1C00
0C00
0600
0600
0000
0000
F8F8
70F0
71E0
73E0
72E0
76E0
7CE0
78E0
78F0
F1F8
ENDCHAR
STARTCHAR 045E
ENCODING 1118
SWIDTH 540 0
DWIDTH 12 0
BBX 12 21 0 -6
BITMAP
0820
1870
1C60
0FC0
0000
0000
FEF0
7860
3860
3C40
1CC0
1E80
0F80
0F00
0700
0700
0200
0600
0400
7C00
7800
ENDCHAR
STARTCHAR 045F
ENCODING 1119
SWIDTH 630 0
DWIDTH 14 0
BBX 12 14 1 -4
BITMAP
F9F0
70E0
70E0
70E0
70E0
70E0
70E0
70E0
78F0
FFF0
0700
0600
0600
0600
ENDCHAR
STARTCHAR 0462
ENCODING 1122
SWIDTH 720 0
DWIDTH 16 0
BBX 15 16 0 0
BITMAP
1F80
1F80
0F00
7FF0
7FF0
6F30
CF10
0F00
0FF8
0FFC
0F1E
0F0E
0F0E
0F0E
0F3C
1FF8
ENDCHAR
STARTCHAR 0463
ENCODING 1123
SWIDTH 630 0
DWIDTH 14 0
BBX 14 16 0 0
BITMAP
0600
3E00
0E00
0E00
0E00
0E00
7FE0
4E60
CE20
0E00
0FF0
0E78
0E3C
0E38
1F78
1FF0
ENDCHAR
STARTCHAR 046A
ENCODING 1130
SWIDTH 945 0
DWIDTH 21 0
BBX 21 15 0 0
BITMAP
1FFFC0
0F0080
0F0180
078300
03C600
01E400
00EC00
03FE00
07FF80
0E7380
1E73C0
1E71C0
1C71E0
7CF9F0
F9FCF8
ENDCHAR
STARTCHAR 046B
ENCODING 1131
SWIDTH 810 0
DWIDTH 18 0
BBX 18 10 0 0
BITMAP
3FFF00
1E0600
0F0C00
079800
03F000
1FFE00
1DEE00
3DE700
79E780
F3F3C0
ENDCHAR
STARTCHAR 0472
ENCODING 1138
SWIDTH 720 0
DWIDTH 16 0
BBX 15 15 1 0
BITMAP
0FE0
3CF0
7038
703C
F01C
E01E
EF1E
FFFE
F1DE
F01E
F01C
701C
7838
3C70
0FE0
ENDCHAR
STARTCHAR 0473
ENCODING 1139
SWIDTH 540 0
DWIDTH 12 0
BBX 11 10 1 0
BITMAP
3F80
73C0
E1C0
E1E0
FFE0
F6E0
E0E0
F1C0
79C0
3F00
ENDCHAR
STARTCHAR 0474
ENCODING 1140
SWIDTH 720 0
DWIDTH 16 0
BBX 16 15 0 0
BITMAP
FE0F
7C0F
3C1E
3C10
1C10
1E30
0E20
0E20
0F60
0740
0740
07C0
0380
0380
0180
ENDCHAR
STARTCHAR 0475
ENCODING 1141
SWIDTH 495 0
DWIDTH 11 0
BBX 12 10 0 0
BITMAP
FC70
78F0
3880
3D80
1D00
1D00
1F00
0E00
0E00
0600
ENDCHAR
STARTCHAR 048A
ENCODING 1162
SWIDTH 810 0
DWIDTH 18 0
BBX 16 24 1 -4
BITMAP
1830
1C30
0E70
07C0
0000
FE1E
7C3C
383C
387C
38FC
38BC
39BC
393C
3B3C
3A3C
3E3C
3C3C
3C3C
783C
F87F
0007
0007
0006
0004
ENDCHAR
STARTCHAR 048B
ENCODING 1163
SWIDTH 675 0
DWIDTH 15 0
BBX 13 20 1 -4
BITMAP
1040
30E0
38C0
1F80
0000
0000
F8F8
70F0
71E0
73E0
72E0
76E0
7CE0
78E0
78F0
F1F8
0018
0038
0030
0020
ENDCHAR
STARTCHAR 048C
ENCODING 1164
SWIDTH 630 0
DWIDTH 14 0
BBX 14 15 0 0
BITMAP
7F00
3E00
1C00
FF80
FF80
1C00
1FC0
1FF8
1C78
1C3C
1C3C
1C3C
1C3C
3E78
7FE0
ENDCHAR
STARTCHAR 048D
ENCODING 1165
SWIDTH 540 0
DWIDTH 12 0
BBX 12 16 0 0
BITMAP
1800
F800
3800
3800
3800
3800
FF80
3800
3800
3F00
3FE0
38F0
38F0
38F0
3CF0
7FC0
ENDCHAR
STARTCHAR 048E
ENCODING 1166
SWIDTH 630 0
DWIDTH 14 0
BBX 12 15 1 0
BITMAP
FFC0
79E0
3870
3870
3830
3830
39F0
39F0
3BE0
3BB0
3810
3800
3800
7C00
FE00
ENDCHAR
STARTCHAR 048F
ENCODING 1167
SWIDTH 630 0
DWIDTH 14 0
BBX 12 15 1 -5
BITMAP
FBE0
FDF0
7870
7870
7870
7870
7870
7BE0
79E0
7FC0
7860
7800
7800
7800
FE00
ENDCHAR
STARTCHAR 0490
ENCODING 1168
SWIDTH 540 0
DWIDTH 12 0
BBX 11 19 1 0
BITMAP
0060
00E0
00E0
00E0
FFE0
7800
3800
3800
3800
3800
3800
3800
3800
3800
3800
3800
3800
7C00
FE00
ENDCHAR
STARTCHAR 0491
ENCODING 1169
SWIDTH 450 0
DWIDTH 10 0
BBX 9 14 1 0
BITMAP
0180
0180
0180
0380
FF80
7000
7000
7000
7000
7000
7000
7000
7800
FC00
ENDCHAR
STARTCHAR 0492
ENCODING 1170
SWIDTH 585 0
DWIDTH 13 0
BBX 12 15 0 0
BITMAP
7FF0
3C70
1C30
1C10
1C00
1C00
1C00
FFC0
1C00
1C00
1C00
1C00
1C00
3E00
7F00
ENDCHAR
STARTCHAR 0493
ENCODING 1171
SWIDTH 450 0
DWIDTH 10 0
BBX 10 10 0 0
BITMAP
7FC0
38C0
3840
3800
3800
FF00
3800
3800
3C00
7E00
ENDCHAR
STARTCHAR 0494
ENCODING 1172
SWIDTH 630 0
DWIDTH 14 0
BBX 13 20 1 -6
BITMAP
FFE0
78E0
3860
3820
3800
3800
3800
3FE0
38F0
38F0
3870
3878
3878
7C70
FC70
0070
0070
00E0
00C0
0180
ENDCHAR
STARTCHAR 0495
ENCODING 1173
SWIDTH 540 0
DWIDTH 12 0
BBX 11 16 1 -6
BITMAP
FFC0
70C0
70C0
7000
7F00
7FC0
71C0
78E0
78E0
FCE0
00E0
00C0
01C0
0380
0300
0200
ENDCHAR
STARTCHAR 0496
ENCODING 1174
SWIDTH 1080 0
DWIDTH 24 0
BBX 24 19 0 -4
BITMAP
7CFE7C
3C7C38
0C3860
063840
0238C0
033980
03BB80
03BBC0
07B9C0
0F39E0
0F38E0
1E38F0
3C3878
7C7C7C
F8FE3F
000007
000007
000006
000006
ENDCHAR
STARTCHAR 0497
ENCODING 1175
SWIDTH 855 0
DWIDTH 19 0
BBX 20 14 0 -4
BITMAP
7DFBE0
18F180
0CE300
04E600
06EE00
0FEE00
1EE700
1CE780
7CF3C0
F9F9F0
000070
000070
000030
000030
ENDCHAR
STARTCHAR 0498
ENCODING 1176
SWIDTH 585 0
DWIDTH 13 0
BBX 11 19 1 -4
BITMAP
7F80
73C0
61C0
C1E0
01C0
03C0
1F00
1F80
03C0
01E0
C0E0
C0E0
E1E0
F3C0
7F80
0C00
0C00
0C00
0C00
ENDCHAR
STARTCHAR 0499
ENCODING 1177
SWIDTH 450 0
DWIDTH 10 0
BBX 9 14 1 -4
BITMAP
FF00
C780
C380
0700
1C00
1F80
0380
C380
E780
FF00
1800
1800
1800
1800
ENDCHAR
STARTCHAR 049A
ENCODING 1178
SWIDTH 765 0
DWIDTH 17 0
BBX 16 19 1 -4
BITMAP
FE7C
7C38
3830
3860
38C0
3980
3B80
3B80
3BC0
39E0
39F0
38F0
3878
787C
FE3F
0007
0007
0007
0007
ENDCHAR
STARTCHAR 049B
ENCODING 1179
SWIDTH 585 0
DWIDTH 13 0
BBX 13 14 1 -4
BITMAP
F9F0
78C0
7180
7300
7700
7700
7380
73C0
79E0
FCF8
0038
0038
0018
0018
ENDCHAR
STARTCHAR 049C
ENCODING 1180
SWIDTH 720 0
DWIDTH 16 0
BBX 15 15 1 0
BITMAP
FE1E
7C1E
3836
3A26
3A40
3AC0
3F80
3FE0
3AE0
3AF0
3A70
3878
3838
783C
FE1E
ENDCHAR
STARTCHAR 049D
ENCODING 1181
SWIDTH 630 0
DWIDTH 14 0
BBX 14 10 1 0
BITMAP
FC38
7878
76D8
7680
7F80
77C0
76E0
70F0
7878
FC7C
ENDCHAR
STARTCHAR 049E
ENCODING 1182
SWIDTH 720 0
DWIDTH 16 0
BBX 16 15 0 0
BITMAP
7E0E
3C1E
1C36
FF26
FF60
1CC0
1F80
1FE0
1CF0
1C70
1C78
1C38
1C3C
3C1E
7E1F
ENDCHAR
STARTCHAR 049F
ENCODING 1183
SWIDTH 585 0
DWIDTH 13 0
BBX 13 16 0 0
BITMAP
1800
7800
3800
3800
FF80
3800
3870
3870
3898
3900
3F80
3BC0
39E0
38E0
3CF0
7E78
ENDCHAR
STARTCHAR 04A0
ENCODING 1184
SWIDTH 810 0
DWIDTH 18 0
BBX 18 15 1 0
BITMAP
FFC780
E78780
C70D80
871980
071000
073000
07E000
07F800
073800
071C00
071E00
071E00
070F00
0F8F80
1FC7C0
ENDCHAR
STARTCHAR 04A1
ENCODING 1185
SWIDTH 675 0
DWIDTH 15 0
BBX 15 10 0 0
BITMAP
7F9C
6F1C
CF26
0F60
0FE0
0FF0
0F78
0F38
0F3C
1F9E
ENDCHAR
STARTCHAR 04A2
ENCODING 1186
SWIDTH 810 0
DWIDTH 18 0
BBX 17 19 1 -4
BITMAP
FE7E00
7C3C00
383C00
383C00
383C00
383C00
383C00
3FFC00
383C00
383C00
383C00
383C00
383C00
783C00
FE7F80
000380
000300
000300
000300
ENDCHAR
STARTCHAR 04A3
ENCODING 1187
SWIDTH 675 0
DWIDTH 15 0
BBX 14 14 1 -4
BITMAP
FDF8
78F0
70E0
70E0
7FE0
78E0
70E0
70E0
78F0
FDFC
001C
000C
000C
000C
ENDCHAR
STARTCHAR 04A4
ENCODING 1188
SWIDTH 900 0
DWIDTH 20 0
BBX 19 15 1 0
BITMAP
FEFFC0
7C78C0
383860
383860
383800
383800
383800
3FF800
383800
383800
383800
383800
383800
787C00
FEFE00
ENDCHAR
STARTCHAR 04A5
ENCODING 1189
SWIDTH 720 0
DWIDTH 16 0
BBX 16 10 1 0
BITMAP
F9FE
70E6
70E3
70E0
7FE0
78E0
70E0
70E0
79F0
F9F8
ENDCHAR
STARTCHAR 04A8
ENCODING 1192
SWIDTH 900 0
DWIDTH 20 0
BBX 19 15 1 0
BITMAP
0E0000
3C7E00
78E700
71C780
F1C380
E3C380
E3C380
E3C380
E3C380
F1C380
F1C780
71E700
78FE00
1E7FE0
0FFF80
ENDCHAR
STARTCHAR 04A9
ENCODING 1193
SWIDTH 765 0
DWIDTH 17 0
BBX 16 10 1 0
BITMAP
39F0
73BC
E71C
E71C
E71C
E71C
E71C
F3B8
7DF7
1FFC
ENDCHAR
STARTCHAR 04AA
ENCODING 1194
SWIDTH 630 0
DWIDTH 14 0
BBX 12 19 1 -4
BITMAP
0FE0
3C70
7030
7030
F030
E000
E000
E000
E000
F000
F000
7800
7800
3FF0
0FE0
0300
0300
0300
0300
ENDCHAR
STARTCHAR 04AB
ENCODING 1195
SWIDTH 450 0
DWIDTH 10 0
BBX 9 14 1 -4
BITMAP
3F80
7300
E100
E100
E000
E000
E000
F000
7F80
3F00
0C00
0C00
0C00
0C00
ENDCHAR
STARTCHAR 04AC
ENCODING 1196
SWIDTH 630 0
DWIDTH 14 0
BBX 13 19 1 -4
BITMAP
FFF8
E738
C718
8718
0700
0700
0700
0700
0700
0700
0700
0700
0700
0F80
3FE0
00E0
00E0
00E0
0060
ENDCHAR
STARTCHAR 04AD
ENCODING 1197
SWIDTH 540 0
DWIDTH 12 0
BBX 12 14 0 -4
BITMAP
7FF0
6730
C730
0700
0700
0700
0700
0700
0F00
1FC0
00C0
00C0
00C0
00C0
ENDCHAR
STARTCHAR 04AE
ENCODING 1198
SWIDTH 630 0
DWIDTH 14 0
BBX 14 15 0 0
BITMAP
FE7C
7C38
3C10
1C30
1E20
0E60
0F40
07C0
0780
0780
0780
0780
0780
07C0
1FE0
ENDCHAR
STARTCHAR 04AF
ENCODING 1199
SWIDTH 540 0
DWIDTH 12 0
BBX 12 15 0 -5
BITMAP
FCF0
7860
3860
3C40
1CC0
1E80
0E80
0F00
0700
0700
0700
0700
0700
0700
1FC0
ENDCHAR
STARTCHAR 04B0
ENCODING 1200
SWIDTH 630 0
DWIDTH 14 0
BBX 14 15 0 0
BITMAP
FE7C
7C38
3C10
1C30
1E20
0E60
0F40
07C0
0780
1FF0
1FE0
0780
0780
07C0
1FE0
ENDCHAR
STARTCHAR 04B1
ENCODING 1201
SWIDTH 540 0
DWIDTH 12 0
BBX 12 15 0 -5
BITMAP
FCF0
7860
3860
3C40
1CC0
1E80
0E80
0F00
0700
3FE0
0700
0700
0700
0700
1FC0
ENDCHAR
STARTCHAR 04B2
ENCODING 1202
SWIDTH 720 0
DWIDTH 16 0
BBX 15 19 1 -4
BITMAP
FE7C
7C38
3C30
3C60
1E40
0FC0
0F80
0780
07C0
0FC0
19E0
11E0
30F0
F0F8
F9FE
000E
000C
000C
000C
ENDCHAR
STARTCHAR 04B3
ENCODING 1203
SWIDTH 540 0
DWIDTH 12 0
BBX 12 14 1 -4
BITMAP
FDE0
79C0
3980
3F00
1E00
1F00
3780
2780
63C0
F7F0
0070
0070
0060
0060
ENDCHAR
STARTCHAR 04B4
ENCODING 1204
SWIDTH 1035 0
DWIDTH 23 0
BBX 21 19 1 -4
BITMAP
FFF7F0
E773E0
C731C0
8731C0
0701C0
0701C0
0701C0
0701C0
0701C0
0701C0
0701C0
0701C0
0701C0
0F83C0
1FFFF8
000018
000018
000018
000018
ENDCHAR
STARTCHAR 04B5
ENCODING 1205
SWIDTH 810 0
DWIDTH 18 0
BBX 18 14 0 -4
BITMAP
7FEF80
676F00
C76700
070700
070700
070700
070700
0F0700
0F0F00
1FFFC0
0000C0
0000C0
0000C0
0000C0
ENDCHAR
STARTCHAR 04B6
ENCODING 1206
SWIDTH 765 0
DWIDTH 17 0
BBX 16 19 1 -4
BITMAP
FCFC
7878
7878
7878
7878
7878
3878
3C78
1FF8
0078
0078
0078
0078
00F8
01FF
0007
0007
0006
0006
ENDCHAR
STARTCHAR 04B7
ENCODING 1207
SWIDTH 630 0
DWIDTH 14 0
BBX 14 14 0 -4
BITMAP
FDF0
78E0
38E0
38E0
38E0
3FE0
00E0
00E0
01F0
03FC
001C
001C
0018
0018
ENDCHAR
STARTCHAR 04B8
ENCODING 1208
SWIDTH 765 0
DWIDTH 17 0
BBX 15 15 1 0
BITMAP
FC7E
783C
783C
783C
79BC
393C
3D3C
1FFC
07BC
013C
01BC
01BC
003C
007C
00FE
ENDCHAR
STARTCHAR 04B9
ENCODING 1209
SWIDTH 630 0
DWIDTH 14 0
BBX 14 10 0 0
BITMAP
FCFC
7878
3B78
3B78
3FF8
1FF8
0378
0378
0078
01FC
ENDCHAR
STARTCHAR 04BA
ENCODING 1210
SWIDTH 720 0
DWIDTH 16 0
BBX 15 15 1 0
BITMAP
FE00
7C00
7800
3800
3800
3800
3FE0
38F0
3878
3838
3838
3838
7838
787C
FCFE
ENDCHAR
STARTCHAR 04BB
ENCODING 1211
SWIDTH 630 0
DWIDTH 14 0
BBX 13 16 1 0
BITMAP
3000
F000
7000
7000
7000
7000
77C0
7FE0
70E0
70E0
70E0
70E0
70E0
70E0
78F0
FDF8
ENDCHAR
STARTCHAR 04BC
ENCODING 1212
SWIDTH 810 0
DWIDTH 18 0
BBX 17 15 1 0
BITMAP
01F800
039E00
070E00
EE0700
CE0700
DE0700
FFFF80
7FFF00
1E0000
1E0000
0E0000
0F0000
078300
07FF00
01FC00
ENDCHAR
STARTCHAR 04BD
ENCODING 1213
SWIDTH 630 0
DWIDTH 14 0
BBX 13 10 1 0
BITMAP
07E0
6E70
CC38
DC38
FFF8
1E00
1E00
0E00
0FB8
07F0
ENDCHAR
STARTCHAR 04BE
ENCODING 1214
SWIDTH 810 0
DWIDTH 18 0
BBX 17 19 1 -4
BITMAP
01F800
039E00
070E00
EE0700
CE0700
DE0700
FFFF80
7FFF00
1E0000
1E0000
0E0000
0F0000
078300
03FF00
01FC00
007000
003000
003000
003000
ENDCHAR
STARTCHAR 04BF
ENCODING 1215
SWIDTH 630 0
DWIDTH 14 0
BBX 13 14 1 -4
BITMAP
07E0
6E70
CC38
DC38
FFF8
1E00
1E00
0E00
0FB8
07F0
01C0
01C0
0080
0080
ENDCHAR
STARTCHAR 04C0
ENCODING 1216
SWIDTH 360 0
DWIDTH 8 0
BBX 7 15 1 0
BITMAP
FE
7C
38
38
38
38
38
38
38
38
38
38
38
78
FE
ENDCHAR
STARTCHAR 04C1
ENCODING 1217
SWIDTH 1035 0
DWIDTH 23 0
BBX 23 20 0 0
BITMAP
018300
01C300
00E600
007C00
000000
7CFE7C
3C7C38
0C3860
063840
0238C0
033980
03BB80
03BBC0
07B9C0
0F39E0
0F38E0
1E38F0
3C3878
7C7C7C
F8FE3E
ENDCHAR
STARTCHAR 04C2
ENCODING 1218
SWIDTH 855 0
DWIDTH 19 0
BBX 19 16 0 0
BITMAP
000800
070C00
031C00
03F800
000000
000000
7DFBE0
18F180
0CE300
04E600
06EE00
0FEE00
1EE700
1CE780
7CF3C0
F9F9E0
ENDCHAR
STARTCHAR 04C3
ENCODING 1219
SWIDTH 675 0
DWIDTH 15 0
BBX 14 20 1 -6
BITMAP
FE38
7C78
3858
38C8
3980
3900
3F00
3FE0
38F0
3878
383C
383C
383C
783C
FE3C
0038
0038
0070
00E0
01C0
ENDCHAR
STARTCHAR 04C4
ENCODING 1220
SWIDTH 585 0
DWIDTH 13 0
BBX 11 15 1 -6
BITMAP
FCE0
71E0
7360
7200
7F00
73C0
71E0
70E0
78E0
FCE0
00E0
00E0
01C0
0380
0700
ENDCHAR
STARTCHAR 04C5
ENCODING 1221
SWIDTH 720 0
DWIDTH 16 0
BBX 16 19 0 -4
BITMAP
1FFE
0C3C
0438
0438
0438
0438
0438
0438
0C38
0C38
0C38
1838
F838
F87C
F0FF
0007
0006
000C
000C
ENDCHAR
STARTCHAR 04C6
ENCODING 1222
SWIDTH 585 0
DWIDTH 13 0
BBX 13 14 0 -4
BITMAP
3FF0
08E0
08E0
08E0
08E0
08E0
18E0
B0E0
F1E0
E1F8
0038
0038
0030
0020
ENDCHAR
STARTCHAR 04C7
ENCODING 1223
SWIDTH 765 0
DWIDTH 17 0
BBX 15 20 1 -6
BITMAP
FE7E
7C3C
383C
383C
383C
383C
383C
3FFC
383C
383C
383C
383C
383C
783C
FE3C
0038
0038
0038
0070
00E0
ENDCHAR
STARTCHAR 04C8
ENCODING 1224
SWIDTH 630 0
DWIDTH 14 0
BBX 13 15 1 -6
BITMAP
FDF8
78F0
70E0
70E0
7FE0
78E0
70E0
70E0
78E0
FCE0
00E0
00E0
01C0
0180
0300
ENDCHAR
STARTCHAR 04C9
ENCODING 1225
SWIDTH 810 0
DWIDTH 18 0
BBX 16 19 1 -4
BITMAP
FE7E
7C3C
383C
383C
383C
383C
383C
3FFC
383C
383C
383C
383C
383C
783C
FE7F
0007
0007
0006
0004
ENDCHAR
STARTCHAR 04CA
ENCODING 1226
SWIDTH 675 0
DWIDTH 15 0
BBX 14 14 1 -4
BITMAP
FDF8
78F0
70E0
70E0
7FE0
78E0
70E0
70E0
78F0
FDFC
001C
0018
0030
0030
ENDCHAR
STARTCHAR 04CB
ENCODING 1227
SWIDTH 720 0
DWIDTH 16 0
BBX 14 19 1 -4
BITMAP
FCFC
7878
7878
7878
7878
7878
3878
3C78
1FF8
0078
0078
0078
0078
00F8
03FC
0380
0180
0180
0180
ENDCHAR
STARTCHAR 04CC
ENCODING 1228
SWIDTH 585 0
DWIDTH 13 0
BBX 12 14 0 -4
BITMAP
FDF0
78E0
38E0
38E0
38E0
3FE0
00E0
00E0
01F0
07F0
0700
0700
0300
0300
ENDCHAR
STARTCHAR 04CD
ENCODING 1229
SWIDTH 990 0
DWIDTH 22 0
BBX 21 19 1 -4
BITMAP
7C03E0
3C03C0
3C0780
3E0780
3E0FC0
2F0FC0
270BC0
279BC0
2791C0
23D1C0
63F1C0
61E1C0
61E1C0
F0C3E0
F0C7F8
000038
000030
000070
000060
ENDCHAR
STARTCHAR 04CE
ENCODING 1230
SWIDTH 765 0
DWIDTH 17 0
BBX 17 14 0 -4
BITMAP
7C1F00
3C3C00
3E3C00
3E7C00
2F5C00
275E00
278E00
238E00
639E00
F13F80
000380
000300
000300
000200
ENDCHAR
STARTCHAR 04CF
ENCODING 1231
SWIDTH 315 0
DWIDTH 7 0
BBX 6 16 1 0
BITMAP
30
F0
70
70
70
70
70
70
70
70
70
70
70
70
78
FC
ENDCHAR
STARTCHAR 04D0
ENCODING 1232
SWIDTH 675 0
DWIDTH 15 0
BBX 15 20 0 0
BITMAP
1830
1C30
0E70
07C0
0000
0180
0380
0380
03C0
05C0
05E0
0CE0
08F0
0870
1878
1FF8
3038
303C
703E
F87E
ENDCHAR
STARTCHAR 04D1
ENCODING 1233
SWIDTH 540 0
DWIDTH 12 0
BBX 11 16 1 0
BITMAP
2100
6380
7300
3F00
0000
0000
1F00
3780
7380
F380
0F80
3B80
7380
7380
73E0
7FE0
ENDCHAR
STARTCHAR 04D2
ENCODING 1234
SWIDTH 675 0
DWIDTH 15 0
BBX 15 19 0 0
BITMAP
0E70
1EF0
0C60
0000
0180
0380
0380
03C0
05C0
05E0
0CE0
08F0
0870
1878
1FF8
3038
303C
703E
F87E
ENDCHAR
STARTCHAR 04D3
ENCODING 1235
SWIDTH 540 0
DWIDTH 12 0
BBX 11 15 1 0
BITMAP
6300
7380
7380
0000
0000
1F00
3780
7380
F380
0F80
3B80
7380
7380
73E0
7FE0
ENDCHAR
STARTCHAR 04D4
ENCODING 1236
SWIDTH 945 0
DWIDTH 21 0
BBX 21 15 0 0
BITMAP
01FFE0
00FCF0
00FC30
00BC30
01BC00
033CC0
023CC0
07FFC0
07FFC0
0C3CC0
083C40
183C18
303C30
703C70
F87FF0
ENDCHAR
STARTCHAR 04D5
ENCODING 1237
SWIDTH 720 0
DWIDTH 16 0
BBX 14 10 1 0
BITMAP
FEF8
679C
679C
078C
1FFC
7780
E780
E780
FDFC
78F8
ENDCHAR
STARTCHAR 04D6
ENCODING 1238
SWIDTH 585 0
DWIDTH 13 0
BBX 12 20 1 0
BITMAP
30C0
70C0
39C0
0F00
0000
FFE0
78E0
3860
3820
3800
3880
3980
3F80
3980
3880
3800
3830
3830
7CF0
FFF0
ENDCHAR
STARTCHAR 04D7
ENCODING 1239
SWIDTH 495 0
DWIDTH 11 0
BBX 10 16 1 0
BITMAP
2300
6380
7300
3F00
0000
0000
3F00
7380
E380
E180
FFC0
F000
E000
F000
7D80
3F00
ENDCHAR
STARTCHAR 04D8
ENCODING 1240
SWIDTH 630 0
DWIDTH 14 0
BBX 13 15 1 0
BITMAP
7F80
61E0
60F0
4070
0078
0078
0038
FFF8
E1F8
E038
E078
F070
7060
38E0
1F80
ENDCHAR
STARTCHAR 04D9
ENCODING 1241
SWIDTH 495 0
DWIDTH 11 0
BBX 10 10 1 0
BITMAP
FF00
C780
C380
0380
FFC0
FFC0
E380
E380
7700
3E00
ENDCHAR
STARTCHAR 04DA
ENCODING 1242
SWIDTH 630 0
DWIDTH 14 0
BBX 13 19 1 0
BITMAP
39C0
3DE0
18C0
0000
7F80
61E0
60F0
4070
0078
0078
0038
FFF8
E1F8
E038
E078
F070
7060
38E0
1F80
ENDCHAR
STARTCHAR 04DB
ENCODING 1243
SWIDTH 495 0
DWIDTH 11 0
BBX 10 15 1 0
BITMAP
6300
7380
7380
0000
0000
FF00
C780
C380
0380
FFC0
FFC0
E380
E380
7700
3E00
ENDCHAR
STARTCHAR 04DC
ENCODING 1244
SWIDTH 1035 0
DWIDTH 23 0
BBX 23 19 0 0
BITMAP
00E700
01EF00
00C600
000000
7CFE7C
3C7C38
0C3860
063840
0238C0
033980
03BB80
03BBC0
07B9C0
0F39E0
0F38E0
1E38F0
3C3878
7C7C7C
F8FE3E
ENDCHAR
STARTCHAR 04DD
ENCODING 1245
SWIDTH 855 0
DWIDTH 19 0
BBX 19 15 0 0
BITMAP
011800
039C00
039C00
000000
000000
7DFBE0
18F180
0CE300
04E600
06EE00
0FEE00
1EE700
1CE780
7CF3C0
F9F9E0
ENDCHAR
STARTCHAR 04DE
ENCODING 1246
SWIDTH 585 0
DWIDTH 13 0
BBX 11 19 1 0
BITMAP
7380
7BC0
3180
0000
7F80
73C0
61C0
C1E0
01C0
03C0
1F00
1F80
03C0
01E0
C0E0
C0E0
E1E0
F3C0
7F80
ENDCHAR
STARTCHAR 04DF
ENCODING 1247
SWIDTH 450 0
DWIDTH 10 0
BBX 9 15 1 0
BITMAP
6300
F780
F780
0000
0000
FF00
C780
C380
0700
1C00
1F80
0380
C380
E780
FF00
ENDCHAR
STARTCHAR 04E0
ENCODING 1248
SWIDTH 540 0
DWIDTH 12 0
BBX 11 15 1 0
BITMAP
7FC0
7FC0
7F80
E100
4300
0600
0E00
1FC0
0FC0
01E0
01E0
C1E0
C1C0
E3C0
7F00
ENDCHAR
STARTCHAR 04E1
ENCODING 1249
SWIDTH 495 0
DWIDTH 11 0
BBX 9 16 1 -6
BITMAP
7F80
FF80
E300
C600
0600
0C00
1C00
1F00
0F80
0380
0380
C380
C380
E700
FF00
1800
ENDCHAR
STARTCHAR 04E2
ENCODING 1250
SWIDTH 765 0
DWIDTH 17 0
BBX 15 18 1 0
BITMAP
1FF0
0000
0000
FE1E
7C3C
383C
387C
38FC
38BC
39BC
393C
3B3C
3A3C
3E3C
3C3C
3C3C
783C
F87E
ENDCHAR
STARTCHAR 04E3
ENCODING 1251
SWIDTH 630 0
DWIDTH 14 0
BBX 13 14 1 0
BITMAP
3FC0
0000
0000
0000
F8F8
70F0
71E0
73E0
72E0
76E0
7CE0
78E0
78F0
F1F8
ENDCHAR
STARTCHAR 04E4
ENCODING 1252
SWIDTH 765 0
DWIDTH 17 0
BBX 15 19 1 0
BITMAP
0E70
1EF0
0C60
0000
FE1E
7C3C
383C
387C
38FC
38BC
39BC
393C
3B3C
3A3C
3E3C
3C3C
3C3C
783C
F87E
ENDCHAR
STARTCHAR 04E5
ENCODING 1253
SWIDTH 630 0
DWIDTH 14 0
BBX 13 15 1 0
BITMAP
1080
39C0
39C0
0000
0000
F8F8
70F0
71E0
73E0
72E0
76E0
7CE0
78E0
78F0
F1F8
ENDCHAR
STARTCHAR 04E6
ENCODING 1254
SWIDTH 720 0
DWIDTH 16 0
BBX 15 19 1 0
BITMAP
1CE0
1CF0
0C60
0000
0FE0
3CF0
7038
703C
F01C
E01E
E01E
E01E
E01E
F01E
F01C
701C
7838
3C70
0FE0
ENDCHAR
STARTCHAR 04E7
ENCODING 1255
SWIDTH 540 0
DWIDTH 12 0
BBX 11 15 1 0
BITMAP
3180
7380
7380
0000
0000
3F80
73C0
E1C0
E1E0
E0E0
E0E0
E0E0
F1C0
79C0
3F00
ENDCHAR
STARTCHAR 04E8
ENCODING 1256
SWIDTH 720 0
DWIDTH 16 0
BBX 15 15 1 0
BITMAP
0FE0
3CF0
7038
703C
E01C
E01E
E01E
FFFE
E01E
F01E
F01C
701C
7838
3C70
0FE0
ENDCHAR
STARTCHAR 04E9
ENCODING 1257
SWIDTH 540 0
DWIDTH 12 0
BBX 11 10 1 0
BITMAP
3F80
73C0
E1C0
E1E0
FFE0
FFE0
E0E0
F1C0
79C0
3F00
ENDCHAR
STARTCHAR 04EA
ENCODING 1258
SWIDTH 720 0
DWIDTH 16 0
BBX 15 19 1 0
BITMAP
1CE0
1CF0
0C60
0000
0FE0
3CF0
7038
703C
E01C
E01E
E01E
FFFE
E01E
F01E
F01C
701C
7838
3C70
0FE0
ENDCHAR
STARTCHAR 04EB
ENCODING 1259
SWIDTH 540 0
DWIDTH 12 0
BBX 11 15 1 0
BITMAP
3180
7380
7380
0000
0000
3F80
73C0
E1C0
E1E0
FFE0
FFE0
E0E0
F1C0
79C0
3F00
ENDCHAR
STARTCHAR 04EC
ENCODING 1260
SWIDTH 630 0
DWIDTH 14 0
BBX 12 19 1 0
BITMAP
7380
7BC0
3180
0000
7F80
61C0
60E0
C0F0
0070
0070
0070
1FF0
0070
0070
4070
C0F0
C0E0
E1C0
7F80
ENDCHAR
STARTCHAR 04ED
ENCODING 1261
SWIDTH 450 0
DWIDTH 10 0
BBX 10 15 0 0
BITMAP
6300
F780
E780
0000
0000
7F00
6780
6380
03C0
1FC0
1FC0
0380
4380
6700
7E00
ENDCHAR
STARTCHAR 04EE
ENCODING 1262
SWIDTH 675 0
DWIDTH 15 0
BBX 15 18 0 0
BITMAP
0FF8
0000
0000
FE3E
7C1C
3C08
1C18
1E10
0F30
0720
07E0
03C0
03C0
0180
0180
2700
3F00
3E00
ENDCHAR
STARTCHAR 04EF
ENCODING 1263
SWIDTH 540 0
DWIDTH 12 0
BBX 12 19 0 -6
BITMAP
1FE0
0000
0000
0000
FEF0
7860
3860
3C40
1CC0
1E80
0F80
0F00
0700
0700
0200
0600
0400
7C00
7800
ENDCHAR
STARTCHAR 04F0
ENCODING 1264
SWIDTH 675 0
DWIDTH 15 0
BBX 15 19 0 0
BITMAP
0E70
0F78
0630
0000
FE3E
7C1C
3C08
1C18
1E10
0F30
0720
07E0
03C0
03C0
0180
0180
2700
3F00
3E00
ENDCHAR
STARTCHAR 04F1
ENCODING 1265
SWIDTH 540 0
DWIDTH 12 0
BBX 12 20 0 -6
BITMAP
0840
1CE0
1CE0
0000
0000
FEF0
7860
3860
3C40
1CC0
1E80
0F80
0F00
0700
0700
0200
0600
0400
7C00
7800
ENDCHAR
STARTCHAR 04F2
ENCODING 1266
SWIDTH 675 0
DWIDTH 15 0
BBX 15 20 0 0
BITMAP
0198
0338
0330
0220
0000
FE3E
7C1C
3C08
1C18
1E10
0F30
0720
07E0
03C0
03C0
0180
0180
2700
3F00
3E00
ENDCHAR
STARTCHAR 04F3
ENCODING 1267
SWIDTH 540 0
DWIDTH 12 0
BBX 12 21 0 -6
BITMAP
0770
0660
0660
0CC0
0000
0000
FEF0
7860
3860
3C40
1CC0
1E80
0F80
0F00
0700
0700
0200
0600
0400
7C00
7800
ENDCHAR
STARTCHAR 04F4
ENCODING 1268
SWIDTH 720 0
DWIDTH 16 0
BBX 14 19 1 0
BITMAP
1CE0
1CE0
1CE0
0000
FCFC
7878
7878
7878
7878
7878
3878
3C78
1FF8
0078
0078
0078
0078
00F8
01FC
ENDCHAR
STARTCHAR 04F5
ENCODING 1269
SWIDTH 585 0
DWIDTH 13 0
BBX 12 15 0 0
BITMAP
18C0
39E0
39C0
0000
0000
FDF0
78E0
38E0
38E0
38E0
3FE0
00E0
00E0
01F0
03F0
ENDCHAR
STARTCHAR 04F6
ENCODING 1270
SWIDTH 585 0
DWIDTH 13 0
BBX 11 19 1 -4
BITMAP
FFE0
78E0
3860
3820
3800
3800
3800
3800
3800
3800
3800
3800
3800
7C00
FF00
0300
0300
0300
0300
ENDCHAR
STARTCHAR 04F7
ENCODING 1271
SWIDTH 450 0
DWIDTH 10 0
BBX 9 14 1 -4
BITMAP
FF80
7180
7080
7000
7000
7000
7000
7000
7800
FE00
0600
0600
0600
0600
ENDCHAR
STARTCHAR 04F8
ENCODING 1272
SWIDTH 900 0
DWIDTH 20 0
BBX 19 19 1 0
BITMAP
039C00
039C00
039C00
000000
FE0FE0
7C07C0
380380
380380
380380
380380
3F0380
3FE380
38F380
38F380
387380
387380
38F380
7DE3C0
FFCFE0
ENDCHAR
STARTCHAR 04F9
ENCODING 1273
SWIDTH 810 0
DWIDTH 18 0
BBX 17 15 1 0
BITMAP
063000
0E7000
0E7000
000000
000000
FC1F80
780F00
700F00
700E00
7F8E00
71CE00
71EE00
71EF00
7BCF00
FF9F80
ENDCHAR
STARTCHAR 04FA
ENCODING 1274
SWIDTH 585 0
DWIDTH 13 0
BBX 12 21 0 -6
BITMAP
7FF0
3C70
1C30
1C10
1C00
1C00
1C00
FFC0
1C00
1C00
1C00
1C00
1C00
3E00
7F80
01C0
0180
0380
0700
0E00
0800
ENDCHAR
STARTCHAR 04FB
ENCODING 1275
SWIDTH 450 0
DWIDTH 10 0
BBX 10 16 0 -6
BITMAP
7FC0
38C0
3840
3800
3800
FF00
3800
3800
3C00
7F00
0380
0300
0700
0E00
1C00
1000
ENDCHAR
STARTCHAR 04FC
ENCODING 1276
SWIDTH 675 0
DWIDTH 15 0
BBX 14 20 1 -6
BITMAP
FC78
7C78
3C60
3C60
1EC0
0F80
0780
0780
07C0
0DE0
18F0
10F8
3078
F03C
F83C
001C
0018
0038
0070
0060
ENDCHAR
STARTCHAR 04FD
ENCODING 1277
SWIDTH 540 0
DWIDTH 12 0
BBX 11 15 1 -6
BITMAP
FDE0
78C0
3980
1F00
1E00
1F00
1780
23C0
E1C0
F1E0
00E0
00E0
00E0
00C0
0180
ENDCHAR
STARTCHAR 04FE
ENCODING 1278
SWIDTH 675 0
DWIDTH 15 0
BBX 14 15 1 0
BITMAP
FE7C
7C38
3C30
3C60
1E40
0FC0
0F80
7FF8
07C0
0FC0
19E0
11E0
30F0
F0F8
F9FC
ENDCHAR
STARTCHAR 04FF
ENCODING 1279
SWIDTH 540 0
DWIDTH 12 0
BBX 11 10 1 0
BITMAP
FDE0
79C0
3980
3F00
FFC0
DF00
3780
2780
63C0
F7E0
ENDCHAR
STARTCHAR 0510
ENCODING 1296
SWIDTH 585 0
DWIDTH 13 0
BBX 11 15 1 0
BITMAP
1FC0
79C0
70C0
70C0
7000
7800
3F00
1F00
7800
F000
E060
E060
F060
78E0
3FC0
ENDCHAR
STARTCHAR 0511
ENCODING 1297
SWIDTH 450 0
DWIDTH 10 0
BBX 9 10 1 0
BITMAP
7F80
F180
E180
7000
3C00
7C00
E000
E180
F180
7F80
ENDCHAR
STARTCHAR 0512
ENCODING 1298
SWIDTH 675 0
DWIDTH 15 0
BBX 15 21 0 -6
BITMAP
1FFE
0E7C
0438
0438
0438
0438
0438
0438
0C38
0C38
0C38
1838
F838
F838
F038
0038
0030
0070
00E0
00C0
0080
ENDCHAR
STARTCHAR 0513
ENCODING 1299
SWIDTH 585 0
DWIDTH 13 0
BBX 13 15 0 -6
BITMAP
1FF8
0CE0
08E0
08E0
08E0
08E0
18E0
38E0
F0E0
E0E0
00E0
00E0
01C0
0180
0300
ENDCHAR
STARTCHAR 051A
ENCODING 1306
SWIDTH 720 0
DWIDTH 16 0
BBX 16 19 1 -4
BITMAP
0FE0
3CF0
7038
703C
F01C
E01E
E01E
E01E
E01E
F01E
F01C
701C
7838
3C70
0FE0
00F0
003C
003F
001F
ENDCHAR
STARTCHAR 051B
ENCODING 1307
SWIDTH 585 0
DWIDTH 13 0
BBX 12 15 1 -5
BITMAP
3FC0
71E0
F1E0
E1E0
E1E0
E1E0
E1E0
F1E0
7FE0
3DE0
01E0
01E0
01E0
01E0
07F0
ENDCHAR
STARTCHAR 051C
ENCODING 1308
SWIDTH 990 0
DWIDTH 22 0
BBX 22 15 0 0
BITMAP
FE187C
7C1838
383C10
3C3C10
3C3C30
1C7E20
1E4E20
1E4F60
0ECF40
0F8740
0F87C0
0787C0
070380
070380
030180
ENDCHAR
STARTCHAR 051D
ENCODING 1309
SWIDTH 765 0
DWIDTH 17 0
BBX 17 10 0 0
BITMAP
FC6780
78E300
38F300
3CF200
1DF200
1D3E00
1F3C00
0E3C00
0E1C00
0E1800
ENDCHAR
STARTCHAR 0524
ENCODING 1316
SWIDTH 810 0
DWIDTH 18 0
BBX 16 19 1 -4
BITMAP
FFFE
783C
383C
383C
383C
383C
383C
383C
383C
383C
383C
383C
383C
783C
FE7F
0003
0003
0003
0003
ENDCHAR
STARTCHAR 0525
ENCODING 1317
SWIDTH 675 0
DWIDTH 15 0
BBX 14 14 1 -4
BITMAP
FFF0
70E0
70E0
70E0
70E0
70E0
70E0
70E0
78F0
FDFC
001C
001C
001C
001C
ENDCHAR
STARTCHAR 0526
ENCODING 1318
SWIDTH 765 0
DWIDTH 17 0
BBX 16 19 1 -4
BITMAP
FE00
7C00
7800
3800
3800
3800
3FE0
38F0
3878
3838
3838
3838
7838
787C
FCFF
0007
0007
0003
0003
ENDCHAR
STARTCHAR 0527
ENCODING 1319
SWIDTH 675 0
DWIDTH 15 0
BBX 14 20 1 -4
BITMAP
3000
F000
7000
7000
7000
7000
77C0
7FE0
70E0
70E0
70E0
70E0
70E0
70E0
78F0
FDFC
000C
000C
000C
000C
ENDCHAR
STARTCHAR 0528
ENCODING 1320
SWIDTH 765 0
DWIDTH 17 0
BBX 15 20 1 -6
BITMAP
FE7E
7C3C
383C
383C
383C
383C
383C
3FFC
383C
383C
383C
383C
383C
383C
387E
3800
7000
7000
E000
C000
ENDCHAR
STARTCHAR 0529
ENCODING 1321
SWIDTH 630 0
DWIDTH 14 0
BBX 14 15 0 -6
BITMAP
7EFC
3C78
3C70
3C70
3FF0
3C70
3C70
3C70
3C78
38FC
3800
3800
3000
7000
E000
ENDCHAR
STARTCHAR 052E
ENCODING 1326
SWIDTH 720 0
DWIDTH 16 0
BBX 16 19 0 -4
BITMAP
1FFE
0C3C
0438
0438
0438
0438
0438
0438
0C38
0C38
0C38
1838
F838
F87C
F0FF
0007
0003
0003
0003
ENDCHAR
STARTCHAR 052F
ENCODING 1327
SWIDTH 585 0
DWIDTH 13 0
BBX 14 14 0 -4
BITMAP
3FF0
08E0
08E0
08E0
08E0
08E0
18E0
B0E0
F1E0
E1FC
0018
0018
0018
0018
ENDCHAR
STARTCHAR 058F
ENCODING 1423
SWIDTH 585 0
DWIDTH 13 0
BBX 12 15 1 0
BITMAP
3F00
7780
E380
E3C0
E3C0
03C0
1FF0
1FF0
03C0
1FF0
1FF0
03C0
03C0
07C0
0FE0
ENDCHAR
STARTCHAR 1E08
ENCODING 7688
SWIDTH 630 0
DWIDTH 14 0
BBX 12 25 1 -5
BITMAP
00C0
01C0
0180
0300
0000
0FE0
3C70
7030
7030
F030
E000
E000
E000
E000
F000
F000
7800
7800
3FF0
0FE0
0200
0700
0180
0180
0700
ENDCHAR
STARTCHAR 1E09
ENCODING 7689
SWIDTH 450 0
DWIDTH 10 0
BBX 9 21 1 -5
BITMAP
0700
0600
0600
0C00
0000
0000
3F80
7300
E100
E100
E000
E000
E000
F000
7F80
3F00
0800
1C00
0600
0600
1C00
ENDCHAR
STARTCHAR 1E0C
ENCODING 7692
SWIDTH 720 0
DWIDTH 16 0
BBX 15 20 1 -5
BITMAP
FFC0
78F0
3838
383C
381C
381C
381E
381E
381C
381C
381C
383C
3838
7CF0
FFC0
0000
0000
0700
0F00
0700
ENDCHAR
STARTCHAR 1E0D
ENCODING 7693
SWIDTH 585 0
DWIDTH 13 0
BBX 12 21 1 -5
BITMAP
0040
03E0
01E0
01E0
01E0
01E0
3FE0
71E0
71E0
E1E0
E1E0
E1E0
E1E0
F1E0
7FF0
7EE0
0000
0000
0E00
0F00
0E00
ENDCHAR
STARTCHAR 1E0E
ENCODING 7694
SWIDTH 720 0
DWIDTH 16 0
BBX 15 19 1 -4
BITMAP
FFC0
78F0
3838
383C
381C
381C
381E
381E
381C
381C
381C
383C
3838
7CF0
FFC0
0000
0000
3FE0
3800
ENDCHAR
STARTCHAR 1E0F
ENCODING 7695
SWIDTH 585 0
DWIDTH 13 0
BBX 12 20 1 -4
BITMAP
0040
03E0
01E0
01E0
01E0
01E0
3FE0
71E0
71E0
E1E0
E1E0
E1E0
E1E0
F1E0
7FF0
7EE0
0000
0000
3FC0
3000
ENDCHAR
STARTCHAR 1E10
ENCODING 7696
SWIDTH 720 0
DWIDTH 16 0
BBX 15 22 1 -7
BITMAP
FFC0
78F0
3838
383C
381C
381C
381E
381E
381C
381C
381C
383C
3838
7CF0
FFC0
0000
0700
0700
0700
0300
0600
0400
ENDCHAR
STARTCHAR 1E11
ENCODING 7697
SWIDTH 585 0
DWIDTH 13 0
BBX 12 23 1 -7
BITMAP
0040
03E0
01E0
01E0
01E0
01E0
3FE0
71E0
71E0
E1E0
E1E0
E1E0
E1E0
F1E0
7FF0
7EE0
0000
0600
0E00
0600
0600
0C00
0800
ENDCHAR
STARTCHAR 1E14
ENCODING 7700
SWIDTH 585 0
DWIDTH 13 0
BBX 12 23 1 0
BITMAP
0800
1C00
0C00
0400
0000
3FC0
0000
0000
FFE0
78E0
3860
3820
3800
3880
3980
3F80
3980
3880
3800
3830
3830
7CF0
FFF0
ENDCHAR
STARTCHAR 1E15
ENCODING 7701
SWIDTH 495 0
DWIDTH 11 0
BBX 10 18 1 0
BITMAP
3800
1800
0C00
0000
0000
7F80
0000
0000
3F00
7380
E380
E180
FFC0
F000
E000
F000
7D80
3F00
ENDCHAR
STARTCHAR 1E16
ENCODING 7702
SWIDTH 585 0
DWIDTH 13 0
BBX 12 23 1 0
BITMAP
0380
0700
0600
0400
0000
3FC0
0000
0000
FFE0
78E0
3860
3820
3800
3880
3980
3F80
3980
3880
3800
3830
3830
7CF0
FFF0
ENDCHAR
STARTCHAR 1E17
ENCODING 7703
SWIDTH 495 0
DWIDTH 11 0
BBX 10 18 1 0
BITMAP
0700
0600
0C00
0000
0000
7F80
0000
0000
3F00
7380
E380
E180
FFC0
F000
E000
F000
7D80
3F00
ENDCHAR
STARTCHAR 1E1C
ENCODING 7708
SWIDTH 585 0
DWIDTH 13 0
BBX 12 24 1 -5
BITMAP
3080
3F80
0F00
0000
FFE0
78E0
3860
3820
3800
3880
3980
3F80
3980
3880
3800
3830
3830
7CF0
FFF0
0400
0E00
0300
0300
0E00
ENDCHAR
STARTCHAR 1E1D
ENCODING 7709
SWIDTH 495 0
DWIDTH 11 0
BBX 10 21 1 -5
BITMAP
4080
6180
7F80
3F00
0000
0000
3F00
7380
E380
E180
FFC0
F000
E000
F000
7D80
3F00
0800
1C00
0600
0600
1C00
ENDCHAR
STARTCHAR 1E20
ENCODING 7712
SWIDTH 675 0
DWIDTH 15 0
BBX 14 18 1 0
BITMAP
1FF0
0000
0000
0FF0
3C78
7838
7018
F010
E000
E000
E000
E0FC
F038
F038
7038
7838
3C78
0FE0
ENDCHAR
STARTCHAR 1E21
ENCODING 7713
SWIDTH 540 0
DWIDTH 12 0
BBX 11 20 1 -6
BITMAP
7F80
0000
0000
0000
7FE0
E3A0
E380
E380
E380
7780
7E00
6000
FF80
FFC0
7FC0
C1C0
C0C0
E180
FF00
1800
ENDCHAR
STARTCHAR 1E24
ENCODING 7716
SWIDTH 765 0
DWIDTH 17 0
BBX 15 20 1 -5
BITMAP
FE7E
7C3C
383C
383C
383C
383C
383C
3FFC
383C
383C
383C
383C
383C
783C
FE7E
0000
0000
0380
03C0
0380
ENDCHAR
STARTCHAR 1E25
ENCODING 7717
SWIDTH 630 0
DWIDTH 14 0
BBX 13 21 1 -5
BITMAP
3000
F000
7000
7000
7000
7000
77C0
7FE0
70E0
70E0
70E0
70E0
70E0
70E0
78F0
FDF8
0000
0000
0700
0F00
0700
ENDCHAR
STARTCHAR 1E2A
ENCODING 7722
SWIDTH 765 0
DWIDTH 17 0
BBX 15 19 1 -4
BITMAP
FE7E
7C3C
383C
383C
383C
383C
383C
3FFC
383C
383C
383C
383C
383C
783C
FE7E
0000
0C20
0E60
07E0
ENDCHAR
STARTCHAR 1E2B
ENCODING 7723
SWIDTH 630 0
DWIDTH 14 0
BBX 13 20 1 -4
BITMAP
3000
F000
7000
7000
7000
7000
77C0
7FE0
70E0
70E0
70E0
70E0
70E0
70E0
78F0
FDF8
0000
1040
1DC0
1F80
ENDCHAR
STARTCHAR 1E2E
ENCODING 7726
SWIDTH 360 0
DWIDTH 8 0
BBX 8 23 0 0
BITMAP
0E
0C
18
00
67
F7
67
00
7F
3E
1C
1C
1C
1C
1C
1C
1C
1C
1C
1C
1C
3C
7F
ENDCHAR
STARTCHAR 1E2F
ENCODING 7727
SWIDTH 315 0
DWIDTH 7 0
BBX 8 18 0 0
BITMAP
0C
1C
18
00
EE
EF
66
00
7C
7C
3C
3C
3C
3C
3C
3C
3C
7E
ENDCHAR
STARTCHAR 1E36
ENCODING 7734
SWIDTH 585 0
DWIDTH 13 0
BBX 12 20 1 -5
BITMAP
FE00
7800
3800
3800
3800
3800
3800
3800
3800
3800
3800
3830
3830
7CF0
FFE0
0000
0000
0E00
0F00
0E00
ENDCHAR
STARTCHAR 1E37
ENCODING 7735
SWIDTH 315 0
DWIDTH 7 0
BBX 6 21 1 -5
BITMAP
30
F0
70
70
70
70
70
70
70
70
70
70
70
70
78
FC
00
00
70
78
70
ENDCHAR
STARTCHAR 1E3A
ENCODING 7738
SWIDTH 585 0
DWIDTH 13 0
BBX 12 19 1 -4
BITMAP
FE00
7800
3800
3800
3800
3800
3800
3800
3800
3800
3800
3830
3830
7CF0
FFE0
0000
0000
3FC0
3000
ENDCHAR
STARTCHAR 1E3B
ENCODING 7739
SWIDTH 315 0
DWIDTH 7 0
BBX 7 20 0 -4
BITMAP
18
78
38
38
38
38
38
38
38
38
38
38
38
38
3C
7E
00
00
FE
F8
ENDCHAR
STARTCHAR 1E42
ENCODING 7746
SWIDTH 945 0
DWIDTH 21 0
BBX 20 20 1 -5
BITMAP
7C03E0
3C03C0
3C0780
3E0780
3E0FC0
2F0FC0
270BC0
279BC0
2791C0
23D1C0
63F1C0
61E1C0
61E1C0
F0C3E0
F0C7F0
000000
000000
01E000
01E000
00C000
ENDCHAR
STARTCHAR 1E43
ENCODING 7747
SWIDTH 945 0
DWIDTH 21 0
BBX 20 15 1 -5
BITMAP
F3C780
FFFFC0
78F1C0
78F1C0
78F1C0
78F1C0
78F1C0
78F1E0
78F1E0
FDFBF0
000000
000000
00E000
00F000
00E000
ENDCHAR
STARTCHAR 1E44
ENCODING 7748
SWIDTH 720 0
DWIDTH 16 0
BBX 14 19 1 0
BITMAP
0380
0780
0380
0000
F83C
7818
3C18
3E18
3F18
2F18
2798
23D8
23D8
21F8
20F8
2078
6078
7038
F818
ENDCHAR
STARTCHAR 1E45
ENCODING 7749
SWIDTH 630 0
DWIDTH 14 0
BBX 13 15 1 0
BITMAP
0700
0700
0700
0000
0000
FBE0
FFE0
78F0
78F0
78F0
78F0
78F0
78F0
78F0
FDF8
ENDCHAR
STARTCHAR 1E46
ENCODING 7750
SWIDTH 720 0
DWIDTH 16 0
BBX 14 20 1 -5
BITMAP
F83C
7818
3C18
3E18
3F18
2F18
2798
23D8
23D8
21F8
20F8
2078
6078
7038
F818
0000
0000
0380
03C0
0380
ENDCHAR
STARTCHAR 1E47
ENCODING 7751
SWIDTH 630 0
DWIDTH 14 0
BBX 13 15 1 -5
BITMAP
FBE0
FFE0
78F0
78F0
78F0
78F0
78F0
78F0
78F0
FDF8
0000
0000
0700
0F00
0700
ENDCHAR
STARTCHAR 1E48
ENCODING 7752
SWIDTH 720 0
DWIDTH 16 0
BBX 14 19 1 -4
BITMAP
F83C
7818
3C18
3E18
3F18
2F18
2798
23D8
23D8
21F8
20F8
2078
6078
7038
F818
0000
0000
0FF0
0C00
ENDCHAR
STARTCHAR 1E49
ENCODING 7753
SWIDTH 630 0
DWIDTH 14 0
BBX 13 14 1 -4
BITMAP
FBE0
FFE0
78F0
78F0
78F0
78F0
78F0
78F0
78F0
FDF8
0000
0000
3FE0
3800
ENDCHAR
STARTCHAR 1E4C
ENCODING 7756
SWIDTH 720 0
DWIDTH 16 0
BBX 15 24 1 0
BITMAP
00C0
0180
0180
0300
0000
0F20
1FE0
0080
0000
0FE0
3CF0
7038
703C
F01C
E01E
E01E
E01E
E01E
F01E
F01C
701C
7838
3C70
0FE0
ENDCHAR
STARTCHAR 1E4D
ENCODING 7757
SWIDTH 540 0
DWIDTH 12 0
BBX 11 19 1 0
BITMAP
0700
0600
0C00
0400
0000
3F80
6F80
0000
0000
3F80
73C0
E1C0
E1E0
E0E0
E0E0
E0E0
F1C0
79C0
3F00
ENDCHAR
STARTCHAR 1E4E
ENCODING 7758
SWIDTH 720 0
DWIDTH 16 0
BBX 15 23 1 0
BITMAP
1CE0
1CF0
0C60
0000
0F20
1FE0
0080
0000
0FE0
3CF0
7038
703C
F01C
E01E
E01E
E01E
E01E
F01E
F01C
701C
7838
3C70
0FE0
ENDCHAR
STARTCHAR 1E4F
ENCODING 7759
SWIDTH 540 0
DWIDTH 12 0
BBX 11 18 1 0
BITMAP
7380
7380
3180
0000
3F80
6F80
0000
0000
3F80
73C0
E1C0
E1E0
E0E0
E0E0
E0E0
F1C0
79C0
3F00
ENDCHAR
STARTCHAR 1E50
ENCODING 7760
SWIDTH 720 0
DWIDTH 16 0
BBX 15 23 1 0
BITMAP
0600
0700
0300
0100
0000
1FE0
0000
0000
0FE0
3CF0
7038
703C
F01C
E01E
E01E
E01E
E01E
F01E
F01C
701C
7838
3C70
0FE0
ENDCHAR
STARTCHAR 1E51
ENCODING 7761
SWIDTH 540 0
DWIDTH 12 0
BBX 11 18 1 0
BITMAP
1800
1C00
0C00
0000
0000
7F80
0000
0000
3F80
73C0
E1C0
E1E0
E0E0
E0E0
E0E0
F1C0
79C0
3F00
ENDCHAR
STARTCHAR 1E52
ENCODING 7762
SWIDTH 720 0
DWIDTH 16 0
BBX 15 23 1 0
BITMAP
01C0
0180
0180
0100
0000
1FE0
0000
0000
0FE0
3CF0
7038
703C
F01C
E01E
E01E
E01E
E01E
F01E
F01C
701C
7838
3C70
0FE0
ENDCHAR
STARTCHAR 1E53
ENCODING 7763
SWIDTH 540 0
DWIDTH 12 0
BBX 11 18 1 0
BITMAP
0700
0600
0C00
0000
0000
7F80
0000
0000
3F80
73C0
E1C0
E1E0
E0E0
E0E0
E0E0
F1C0
79C0
3F00
ENDCHAR
STARTCHAR 1E5A
ENCODING 7770
SWIDTH 675 0
DWIDTH 15 0
BBX 14 20 1 -5
BITMAP
FFC0
78F0
3870
3878
3878
3870
38F0
3FE0
3FC0
39C0
38E0
38F0
38F0
7878
FC7C
0000
0000
0380
0780
0380
ENDCHAR
STARTCHAR 1E5B
ENCODING 7771
SWIDTH 450 0
DWIDTH 10 0
BBX 9 15 1 -5
BITMAP
F380
F780
7980
7980
7800
7800
7800
7800
7C00
FE00
0000
0000
3800
7800
3800
ENDCHAR
STARTCHAR 1E5E
ENCODING 7774
SWIDTH 675 0
DWIDTH 15 0
BBX 14 19 1 -4
BITMAP
FFC0
78F0
3870
3878
3878
3870
38F0
3FE0
3FC0
39C0
38E0
38F0
38F0
7878
FC7C
0000
0000
1FE0
1800
ENDCHAR
STARTCHAR 1E5F
ENCODING 7775
SWIDTH 450 0
DWIDTH 10 0
BBX 10 14 0 -4
BITMAP
79C0
7BC0
3CC0
3CC0
3C00
3C00
3C00
3C00
3E00
7F00
0000
0000
FF80
E000
ENDCHAR
STARTCHAR 1E60
ENCODING 7776
SWIDTH 540 0
DWIDTH 12 0
BBX 11 19 1 0
BITMAP
0E00
1E00
0E00
0000
3F80
7380
61C0
E0C0
F000
7C00
7F00
3F80
1FC0
07C0
C1E0
C0E0
E0C0
F3C0
7F00
ENDCHAR
STARTCHAR 1E61
ENCODING 7777
SWIDTH 450 0
DWIDTH 10 0
BBX 8 15 1 0
BITMAP
18
3C
3C
00
00
7F
E7
E3
F8
7E
3F
CF
C7
E7
FE
ENDCHAR
STARTCHAR 1E62
ENCODING 7778
SWIDTH 540 0
DWIDTH 12 0
BBX 11 20 1 -5
BITMAP
3F80
7380
61C0
E0C0
F000
7C00
7F00
3F80
1FC0
07C0
C1E0
C0E0
E0C0
F3C0
7F00
0000
0000
0E00
1E00
0E00
ENDCHAR
STARTCHAR 1E63
ENCODING 7779
SWIDTH 450 0
DWIDTH 10 0
BBX 8 15 1 -5
BITMAP
7F
E7
E3
F8
7E
3F
CF
C7
E7
FE
00
00
3C
3C
18
ENDCHAR
STARTCHAR 1E64
ENCODING 7780
SWIDTH 540 0
DWIDTH 12 0
BBX 11 24 1 0
BITMAP
0600
0E00
0E00
0400
0300
0700
0600
0C00
0000
3F80
7380
61C0
E0C0
F000
7C00
7F00
3F80
1FC0
07C0
C1E0
C0E0
E0C0
F3C0
7F00
ENDCHAR
STARTCHAR 1E65
ENCODING 7781
SWIDTH 450 0
DWIDTH 10 0
BBX 8 19 1 0
BITMAP
1C
3C
1C
00
0E
0C
18
00
00
7F
E7
E3
F8
7E
3F
CF
C7
E7
FE
ENDCHAR
STARTCHAR 1E66
ENCODING 7782
SWIDTH 540 0
DWIDTH 12 0
BBX 11 24 1 0
BITMAP
0E00
1E00
0E00
0000
2000
3B80
1E00
0C00
0000
3F80
7380
61C0
E0C0
F000
7C00
7F00
3F80
1FC0
07C0
C1E0
C0E0
E0C0
F3C0
7F00
ENDCHAR
STARTCHAR 1E67
ENCODING 7783
SWIDTH 450 0
DWIDTH 10 0
BBX 8 19 1 0
BITMAP
18
3C
3C
00
42
FE
3C
10
00
7F
E7
E3
F8
7E
3F
CF
C7
E7
FE
ENDCHAR
STARTCHAR 1E68
ENCODING 7784
SWIDTH 540 0
DWIDTH 12 0
BBX 11 24 1 -5
BITMAP
0E00
1E00
0E00
0000
3F80
7380
61C0
E0C0
F000
7C00
7F00
3F80
1FC0
07C0
C1E0
C0E0
E0C0
F3C0
7F00
0000
0000
0E00
1E00
0E00
ENDCHAR
STARTCHAR 1E69
ENCODING 7785
SWIDTH 450 0
DWIDTH 10 0
BBX 8 20 1 -5
BITMAP
18
3C
3C
00
00
7F
E7
E3
F8
7E
3F
CF
C7
E7
FE
00
00
3C
3C
18
ENDCHAR
STARTCHAR 1E6C
ENCODING 7788
SWIDTH 630 0
DWIDTH 14 0
BBX 13 20 1 -5
BITMAP
FFF8
E738
C718
8718
0700
0700
0700
0700
0700
0700
0700
0700
0700
0F80
3FC0
0000
0000
0700
0F00
0700
ENDCHAR
STARTCHAR 1E6D
ENCODING 7789
SWIDTH 360 0
DWIDTH 8 0
BBX 8 19 0 -5
BITMAP
08
38
38
38
FF
7E
38
38
38
38
38
38
3D
1F
00
00
1E
1E
1C
ENDCHAR
STARTCHAR 1E6E
ENCODING 7790
SWIDTH 630 0
DWIDTH 14 0
BBX 13 19 1 -4
BITMAP
FFF8
E738
C718
8718
0700
0700
0700
0700
0700
0700
0700
0700
0700
0F80
3FC0
0000
0000
3FC0
3000
ENDCHAR
STARTCHAR 1E6F
ENCODING 7791
SWIDTH 360 0
DWIDTH 8 0
BBX 9 18 0 -4
BITMAP
0800
3800
3800
3800
FF00
7E00
3800
3800
3800
3800
3800
3800
3D00
1F00
0000
0000
7F80
6000
ENDCHAR
STARTCHAR 1E78
ENCODING 7800
SWIDTH 675 0
DWIDTH 15 0
BBX 13 24 1 0
BITMAP
00C0
01C0
0180
0100
0000
0FB0
1FE0
0080
0000
FC78
7838
7830
7810
7810
7810
7810
7810
7810
7810
7830
7830
3830
3C60
1FC0
ENDCHAR
STARTCHAR 1E79
ENCODING 7801
SWIDTH 585 0
DWIDTH 13 0
BBX 13 21 0 0
BITMAP
01C0
0180
0300
0300
0000
0000
0E20
3FC0
0180
0000
0000
79F0
F9F0
38F0
38F0
38F0
38F0
38F0
38F0
3FF8
1F70
ENDCHAR
STARTCHAR 1E7A
ENCODING 7802
SWIDTH 675 0
DWIDTH 15 0
BBX 13 22 1 0
BITMAP
1EF0
1EF0
0C60
0000
1FF0
0000
0000
FC78
7838
7830
7810
7810
7810
7810
7810
7810
7810
7830
7830
3830
3C60
1FC0
ENDCHAR
STARTCHAR 1E7B
ENCODING 7803
SWIDTH 585 0
DWIDTH 13 0
BBX 13 17 0 1
BITMAP
1DE0
3CE0
18C0
0000
3FE0
0000
0000
79F0
F9F0
38F0
38F0
38F0
38F0
38F0
38F0
3FF8
1F70
ENDCHAR
STARTCHAR 1E80
ENCODING 7808
SWIDTH 990 0
DWIDTH 22 0
BBX 22 19 0 0
BITMAP
003000
003800
001800
000000
FE187C
7C1838
383C10
3C3C10
3C3C30
1C7E20
1E4E20
1E4F60
0ECF40
0F8740
0F87C0
0787C0
070380
070380
030180
ENDCHAR
STARTCHAR 1E81
ENCODING 7809
SWIDTH 765 0
DWIDTH 17 0
BBX 17 16 0 0
BITMAP
038000
01C000
00C000
006000
000000
000000
FC6780
78E300
38F300
3CF200
1DF200
1D3E00
1F3C00
0E3C00
0E1C00
0E1800
ENDCHAR
STARTCHAR 1E82
ENCODING 7810
SWIDTH 990 0
DWIDTH 22 0
BBX 22 20 0 0
BITMAP
000400
000C00
001800
001000
000000
FE187C
7C1838
383C10
3C3C10
3C3C30
1C7E20
1E4E20
1E4F60
0ECF40
0F8740
0F87C0
0787C0
070380
070380
030180
ENDCHAR
STARTCHAR 1E83
ENCODING 7811
SWIDTH 765 0
DWIDTH 17 0
BBX 17 16 0 0
BITMAP
003800
003000
006000
006000
000000
000000
FC6780
78E300
38F300
3CF200
1DF200
1D3E00
1F3C00
0E3C00
0E1C00
0E1800
ENDCHAR
STARTCHAR 1E84
ENCODING 7812
SWIDTH 990 0
DWIDTH 22 0
BBX 22 19 0 0
BITMAP
00E700
00E700
00E700
000000
FE187C
7C1838
383C10
3C3C10
3C3C30
1C7E20
1E4E20
1E4F60
0ECF40
0F8740
0F87C0
0787C0
070380
070380
030180
ENDCHAR
STARTCHAR 1E85
ENCODING 7813
SWIDTH 765 0
DWIDTH 17 0
BBX 17 15 0 0
BITMAP
031800
07BC00
07BC00
000000
000000
FC6780
78E300
38F300
3CF200
1DF200
1D3E00
1F3C00
0E3C00
0E1C00
0E1800
ENDCHAR
STARTCHAR 1E8E
ENCODING 7822
SWIDTH 630 0
DWIDTH 14 0
BBX 14 19 0 0
BITMAP
03C0
03C0
0380
0000
FE7C
7C38
3C10
1C30
1E20
0E60
0F40
07C0
0780
0780
0780
0780
0780
07C0
1FE0
ENDCHAR
STARTCHAR 1E8F
ENCODING 7823
SWIDTH 540 0
DWIDTH 12 0
BBX 12 20 0 -6
BITMAP
0300
0780
0780
0000
0000
FEF0
7860
3860
3C40
1CC0
1E80
0F80
0F00
0700
0700
0200
0600
0400
7C00
7800
ENDCHAR
STARTCHAR 1E90
ENCODING 7824
SWIDTH 585 0
DWIDTH 13 0
BBX 11 20 1 0
BITMAP
0600
0F00
1F80
1080
0000
7FE0
71E0
61C0
43C0
0780
0780
0F00
0F00
1E00
1E00
3C00
7860
7860
F0E0
FFE0
ENDCHAR
STARTCHAR 1E91
ENCODING 7825
SWIDTH 495 0
DWIDTH 11 0
BBX 10 16 1 0
BITMAP
0C00
1E00
3F00
6380
4000
0000
FF80
E780
CF00
0F00
1E00
3C00
3880
7880
F1C0
FFC0
ENDCHAR
STARTCHAR 1E92
ENCODING 7826
SWIDTH 585 0
DWIDTH 13 0
BBX 11 20 1 -5
BITMAP
7FE0
71E0
61C0
43C0
0780
0780
0F00
0F00
1E00
1E00
3C00
7860
7860
F0E0
FFE0
0000
0000
0E00
0F00
0E00
ENDCHAR
STARTCHAR 1E93
ENCODING 7827
SWIDTH 495 0
DWIDTH 11 0
BBX 10 15 1 -5
BITMAP
FF80
E780
CF00
0F00
1E00
3C00
3880
7880
F1C0
FFC0
0000
0000
1C00
1E00
1C00
ENDCHAR
STARTCHAR 1E97
ENCODING 7831
SWIDTH 360 0
DWIDTH 8 0
BBX 8 17 0 0
BITMAP
E7
E7
E7
08
38
38
38
FF
7E
38
38
38
38
38
38
3D
1F
ENDCHAR
STARTCHAR 1E9E
ENCODING 7838
SWIDTH 720 0
DWIDTH 16 0
BBX 15 15 1 0
BITMAP
0FFC
1C3C
3878
3878
78F0
78E0
79F0
78F8
783C
781E
780E
7B0E
7B1E
7B9C
FBF8
ENDCHAR
STARTCHAR 1EA0
ENCODING 7840
SWIDTH 675 0
DWIDTH 15 0
BBX 15 20 0 -5
BITMAP
0180
0380
0380
03C0
05C0
05E0
0CE0
08F0
0870
1878
1FF8
3038
303C
703E
F87E
0000
0000
0780
0780
0300
ENDCHAR
STARTCHAR 1EA1
ENCODING 7841
SWIDTH 540 0
DWIDTH 12 0
BBX 11 15 1 -5
BITMAP
1F00
3780
7380
F380
0F80
3B80
7380
7380
73E0
7FE0
0000
0000
1E00
1E00
0C00
ENDCHAR
STARTCHAR 1EA2
ENCODING 7842
SWIDTH 675 0
DWIDTH 15 0
BBX 15 20 0 0
BITMAP
03C0
06C0
0180
0100
0000
0180
0380
0380
03C0
05C0
05E0
0CE0
08F0
0870
1878
1FF8
3038
303C
703E
F87E
ENDCHAR
STARTCHAR 1EA3
ENCODING 7843
SWIDTH 540 0
DWIDTH 12 0
BBX 11 16 1 0
BITMAP
1C00
3600
3600
0C00
0800
0000
1F00
3780
7380
F380
0F80
3B80
7380
7380
73E0
7FE0
ENDCHAR
STARTCHAR 1EA4
ENCODING 7844
SWIDTH 675 0
DWIDTH 15 0
BBX 15 22 0 0
BITMAP
001C
0018
01B0
03C0
0EE0
0820
0000
0180
0380
0380
03C0
05C0
05E0
0CE0
08F0
0870
1878
1FF8
3038
303C
703E
F87E
ENDCHAR
STARTCHAR 1EA5
ENCODING 7845
SWIDTH 540 0
DWIDTH 12 0
BBX 11 17 1 0
BITMAP
00C0
00C0
0D80
1E00
7700
4100
0000
1F00
3780
7380
F380
0F80
3B80
7380
7380
73E0
7FE0
ENDCHAR
STARTCHAR 1EA6
ENCODING 7846
SWIDTH 675 0
DWIDTH 15 0
BBX 15 22 0 0
BITMAP
00E0
0060
01B0
03C0
0EE0
0820
0000
0180
0380
0380
03C0
05C0
05E0
0CE0
08F0
0870
1878
1FF8
3038
303C
703E
F87E
ENDCHAR
STARTCHAR 1EA7
ENCODING 7847
SWIDTH 540 0
DWIDTH 12 0
BBX 11 17 1 0
BITMAP
0700
0380
0D80
1E00
7700
4100
0000
1F00
3780
7380
F380
0F80
3B80
7380
7380
73E0
7FE0
ENDCHAR
STARTCHAR 1EA8
ENCODING 7848
SWIDTH 675 0
DWIDTH 15 0
BBX 15 23 0 0
BITMAP
0078
0058
0030
01B0
03C0
0EE0
0820
0000
0180
0380
0380
03C0
05C0
05E0
0CE0
08F0
0870
1878
1FF8
3038
303C
703E
F87E
ENDCHAR
STARTCHAR 1EA9
ENCODING 7849
SWIDTH 540 0
DWIDTH 12 0
BBX 11 18 1 0
BITMAP
03C0
02C0
0180
0D80
1E00
7700
4100
0000
1F00
3780
7380
F380
0F80
3B80
7380
7380
73E0
7FE0
ENDCHAR
STARTCHAR 1EAA
ENCODING 7850
SWIDTH 675 0
DWIDTH 15 0
BBX 15 23 0 1
BITMAP
0FF0
0BE0
0000
0180
03C0
0EE0
0820
0000
0180
0380
0380
03C0
05C0
05E0
0CE0
08F0
0870
1878
1FF8
3038
303C
703E
F87E
ENDCHAR
STARTCHAR 1EAB
ENCODING 7851
SWIDTH 540 0
DWIDTH 12 0
BBX 11 19 1 0
BITMAP
3000
7F80
4F00
0000
0C00
1E00
7700
4100
0000
1F00
3780
7380
F380
0F80
3B80
7380
7380
73E0
7FE0
ENDCHAR
STARTCHAR 1EAC
ENCODING 7852
SWIDTH 675 0
DWIDTH 15 0
BBX 15 25 0 -5
BITMAP
0180
03C0
0EE0
0820
0000
0180
0380
0380
03C0
05C0
05E0
0CE0
08F0
0870
1878
1FF8
3038
303C
703E
F87E
0000
0000
0780
0780
0300
ENDCHAR
STARTCHAR 1EAD
ENCODING 7853
SWIDTH 540 0
DWIDTH 12 0
BBX 11 21 1 -5
BITMAP
0C00
1E00
3F00
6380
4000
0000
1F00
3780
7380
F380
0F80
3B80
7380
7380
73E0
7FE0
0000
0000
1E00
1E00
0C00
ENDCHAR
STARTCHAR 1EAE
ENCODING 7854
SWIDTH 675 0
DWIDTH 15 0
BBX 15 23 0 0
BITMAP
0040
00C0
0180
0100
0C20
0FE0
03C0
0000
0180
0380
0380
03C0
05C0
05E0
0CE0
08F0
0870
1878
1FF8
3038
303C
703E
F87E
ENDCHAR
STARTCHAR 1EAF
ENCODING 7855
SWIDTH 540 0
DWIDTH 12 0
BBX 11 18 1 0
BITMAP
0700
0E00
0C00
2100
6300
3F00
1C00
0000
1F00
3780
7380
F380
0F80
3B80
7380
7380
73E0
7FE0
ENDCHAR
STARTCHAR 1EB0
ENCODING 7856
SWIDTH 675 0
DWIDTH 15 0
BBX 15 23 0 0
BITMAP
0300
0700
0300
0180
0C20
0FE0
03C0
0000
0180
0380
0380
03C0
05C0
05E0
0CE0
08F0
0870
1878
1FF8
3038
303C
703E
F87E
ENDCHAR
STARTCHAR 1EB1
ENCODING 7857
SWIDTH 540 0
DWIDTH 12 0
BBX 11 18 1 0
BITMAP
1800
3800
0C00
2100
6300
3F00
1C00
0000
1F00
3780
7380
F380
0F80
3B80
7380
7380
73E0
7FE0
ENDCHAR
STARTCHAR 1EB2
ENCODING 7858
SWIDTH 675 0
DWIDTH 15 0
BBX 15 23 0 0
BITMAP
03C0
06C0
0180
0100
0C20
0FE0
03C0
0000
0180
0380
0380
03C0
05C0
05E0
0CE0
08F0
0870
1878
1FF8
3038
303C
703E
F87E
ENDCHAR
STARTCHAR 1EB3
ENCODING 7859
SWIDTH 540 0
DWIDTH 12 0
BBX 11 18 1 0
BITMAP
3E00
3600
0C00
2900
6300
3F00
1C00
0000
1F00
3780
7380
F380
0F80
3B80
7380
7380
73E0
7FE0
ENDCHAR
STARTCHAR 1EB4
ENCODING 7860
SWIDTH 675 0
DWIDTH 15 0
BBX 15 23 0 0
BITMAP
0700
0FE0
01C0
0000
0C20
0FE0
03C0
0000
0180
0380
0380
03C0
05C0
05E0
0CE0
08F0
0870
1878
1FF8
3038
303C
703E
F87E
ENDCHAR
STARTCHAR 1EB5
ENCODING 7861
SWIDTH 540 0
DWIDTH 12 0
BBX 11 18 1 0
BITMAP
3980
7F00
0600
2100
6300
3F00
1C00
0000
1F00
3780
7380
F380
0F80
3B80
7380
7380
73E0
7FE0
ENDCHAR
STARTCHAR 1EB6
ENCODING 7862
SWIDTH 675 0
DWIDTH 15 0
BBX 15 24 0 -5
BITMAP
0C20
0FE0
03C0
0000
0180
0380
0380
03C0
05C0
05E0
0CE0
08F0
0870
1878
1FF8
3038
303C
703E
F87E
0000
0000
0780
0780
0300
ENDCHAR
STARTCHAR 1EB7
ENCODING 7863
SWIDTH 540 0
DWIDTH 12 0
BBX 11 21 1 -5
BITMAP
4180
6180
7F00
3F00
0000
0000
1F00
3780
7380
F380
0F80
3B80
7380
7380
73E0
7FE0
0000
0000
1E00
1E00
0C00
ENDCHAR
STARTCHAR 1EB8
ENCODING 7864
SWIDTH 585 0
DWIDTH 13 0
BBX 12 20 1 -5
BITMAP
FFE0
78E0
3860
3820
3800
3880
3980
3F80
3980
3880
3800
3830
3830
7CF0
FFF0
0000
0000
0700
0F00
0700
ENDCHAR
STARTCHAR 1EB9
ENCODING 7865
SWIDTH 495 0
DWIDTH 11 0
BBX 10 15 1 -5
BITMAP
3F00
7380
E380
E180
FFC0
F000
E000
F000
7D80
3F00
0000
0000
0E00
1E00
0E00
ENDCHAR
STARTCHAR 1EBA
ENCODING 7866
SWIDTH 585 0
DWIDTH 13 0
BBX 12 20 1 0
BITMAP
0F00
1B00
0600
0400
0000
FFE0
78E0
3860
3820
3800
3880
3980
3F80
3980
3880
3800
3830
3830
7CF0
FFF0
ENDCHAR
STARTCHAR 1EBB
ENCODING 7867
SWIDTH 495 0
DWIDTH 11 0
BBX 10 16 1 0
BITMAP
0E00
3700
3600
0C00
0C00
0000
3F00
7380
E380
E180
FFC0
F000
E000
F000
7D80
3F00
ENDCHAR
STARTCHAR 1EBC
ENCODING 7868
SWIDTH 585 0
DWIDTH 13 0
BBX 12 19 1 0
BITMAP
3EC0
3F80
0200
0000
FFE0
78E0
3860
3820
3800
3880
3980
3F80
3980
3880
3800
3830
3830
7CF0
FFF0
ENDCHAR
STARTCHAR 1EBD
ENCODING 7869
SWIDTH 495 0
DWIDTH 11 0
BBX 10 15 1 0
BITMAP
3880
7F80
4700
0000
0000
3F00
7380
E380
E180
FFC0
F000
E000
F000
7D80
3F00
ENDCHAR
STARTCHAR 1EBE
ENCODING 7870
SWIDTH 585 0
DWIDTH 13 0
BBX 12 22 1 0
BITMAP
0070
0060
06C0
0F00
3B80
2080
0000
FFE0
78E0
3860
3820
3800
3880
3980
3F80
3980
3880
3800
3830
3830
7CF0
FFF0
ENDCHAR
STARTCHAR 1EBF
ENCODING 7871
SWIDTH 495 0
DWIDTH 11 0
BBX 11 17 1 0
BITMAP
00E0
00C0
0D80
1E00
7700
0100
0000
3F00
7380
E380
E180
FFC0
F000
E000
F000
7D80
3F00
ENDCHAR
STARTCHAR 1EC0
ENCODING 7872
SWIDTH 585 0
DWIDTH 13 0
BBX 12 22 1 0
BITMAP
0380
0180
06C0
0F00
3B80
2080
0000
FFE0
78E0
3860
3820
3800
3880
3980
3F80
3980
3880
3800
3830
3830
7CF0
FFF0
ENDCHAR
STARTCHAR 1EC1
ENCODING 7873
SWIDTH 495 0
DWIDTH 11 0
BBX 10 17 1 0
BITMAP
0300
0180
0D80
1E00
7700
0100
0000
3F00
7380
E380
E180
FFC0
F000
E000
F000
7D80
3F00
ENDCHAR
STARTCHAR 1EC2
ENCODING 7874
SWIDTH 585 0
DWIDTH 13 0
BBX 12 23 1 0
BITMAP
01E0
0160
00C0
06C0
0F00
3B80
2080
0000
FFE0
78E0
3860
3820
3800
3880
3980
3F80
3980
3880
3800
3830
3830
7CF0
FFF0
ENDCHAR
STARTCHAR 1EC3
ENCODING 7875
SWIDTH 495 0
DWIDTH 11 0
BBX 10 18 1 0
BITMAP
03C0
02C0
0180
0C80
1E00
7700
0100
0000
3F00
7380
E380
E180
FFC0
F000
E000
F000
7D80
3F00
ENDCHAR
STARTCHAR 1EC4
ENCODING 7876
SWIDTH 585 0
DWIDTH 13 0
BBX 12 23 1 1
BITMAP
3FC0
2780
0000
0600
0F00
3B80
2080
0000
FFE0
78E0
3860
3820
3800
3880
3980
3F80
3980
3880
3800
3830
3830
7CF0
FFF0
ENDCHAR
STARTCHAR 1EC5
ENCODING 7877
SWIDTH 495 0
DWIDTH 11 0
BBX 10 19 1 0
BITMAP
1800
7F80
4F00
0000
0C00
1E00
7700
0100
0000
3F00
7380
E380
E180
FFC0
F000
E000
F000
7D80
3F00
ENDCHAR
STARTCHAR 1EC6
ENCODING 7878
SWIDTH 585 0
DWIDTH 13 0
BBX 12 25 1 -5
BITMAP
0600
0F00
3B80
2080
0000
FFE0
78E0
3860
3820
3800
3880
3980
3F80
3980
3880
3800
3830
3830
7CF0
FFF0
0000
0000
0700
0F00
0700
ENDCHAR
STARTCHAR 1EC7
ENCODING 7879
SWIDTH 495 0
DWIDTH 11 0
BBX 10 21 1 -5
BITMAP
0C00
1E00
3F00
6380
0000
0000
3F00
7380
E380
E180
FFC0
F000
E000
F000
7D80
3F00
0000
0000
0E00
1E00
0E00
ENDCHAR
STARTCHAR 1EC8
ENCODING 7880
SWIDTH 360 0
DWIDTH 8 0
BBX 7 20 1 0
BITMAP
78
4C
18
10
00
FE
7C
38
38
38
38
38
38
38
38
38
38
38
78
FE
ENDCHAR
STARTCHAR 1EC9
ENCODING 7881
SWIDTH 315 0
DWIDTH 7 0
BBX 6 16 1 0
BITMAP
70
D8
D8
30
20
00
F8
F8
78
78
78
78
78
78
78
FC
ENDCHAR
STARTCHAR 1ECA
ENCODING 7882
SWIDTH 360 0
DWIDTH 8 0
BBX 7 20 1 -5
BITMAP
FE
7C
38
38
38
38
38
38
38
38
38
38
38
78
FE
00
00
38
78
38
ENDCHAR
STARTCHAR 1ECB
ENCODING 7883
SWIDTH 315 0
DWIDTH 7 0
BBX 6 20 1 -5
BITMAP
78
78
70
00
00
F8
F8
78
78
78
78
78
78
78
FC
00
00
78
78
30
ENDCHAR
STARTCHAR 1ECC
ENCODING 7884
SWIDTH 720 0
DWIDTH 16 0
BBX 15 20 1 -5
BITMAP
0FE0
3CF0
7038
703C
F01C
E01E
E01E
E01E
E01E
F01E
F01C
701C
7838
3C70
0FE0
0000
0000
0380
0780
0380
ENDCHAR
STARTCHAR 1ECD
ENCODING 7885
SWIDTH 540 0
DWIDTH 12 0
BBX 11 15 1 -5
BITMAP
3F80
73C0
E1C0
E1E0
E0E0
E0E0
E0E0
F1C0
79C0
3F00
0000
0000
0E00
1E00
0E00
ENDCHAR
STARTCHAR 1ECE
ENCODING 7886
SWIDTH 720 0
DWIDTH 16 0
BBX 15 20 1 0
BITMAP
0780
06C0
0180
0100
0000
0FE0
3CF0
7038
703C
F01C
E01E
E01E
E01E
E01E
F01E
F01C
701C
7838
3C70
0FE0
ENDCHAR
STARTCHAR 1ECF
ENCODING 7887
SWIDTH 540 0
DWIDTH 12 0
BBX 11 16 1 0
BITMAP
0E00
1B00
1700
0C00
0400
0000
3F80
73C0
E1C0
E1E0
E0E0
E0E0
E0E0
F1C0
79C0
3F00
ENDCHAR
STARTCHAR 1ED0
ENCODING 7888
SWIDTH 720 0
DWIDTH 16 0
BBX 15 22 1 0
BITMAP
0018
0030
0130
0780
0FE0
0860
0000
0FE0
3CF0
7038
703C
F01C
E01E
E01E
E01E
E01E
F01E
F01C
701C
7838
3C70
0FE0
ENDCHAR
STARTCHAR 1ED1
ENCODING 7889
SWIDTH 540 0
DWIDTH 12 0
BBX 11 17 1 0
BITMAP
0060
00C0
0C80
1E00
3B80
2100
0000
3F80
73C0
E1C0
E1E0
E0E0
E0E0
E0E0
F1C0
79C0
3F00
ENDCHAR
STARTCHAR 1ED2
ENCODING 7890
SWIDTH 720 0
DWIDTH 16 0
BBX 15 22 1 0
BITMAP
00E0
0060
0130
0780
0FE0
0860
0000
0FE0
3CF0
7038
703C
F01C
E01E
E01E
E01E
E01E
F01E
F01C
701C
7838
3C70
0FE0
ENDCHAR
STARTCHAR 1ED3
ENCODING 7891
SWIDTH 540 0
DWIDTH 12 0
BBX 11 17 1 0
BITMAP
0380
0180
0CC0
1E00
3B80
2100
0000
3F80
73C0
E1C0
E1E0
E0E0
E0E0
E0E0
F1C0
79C0
3F00
ENDCHAR
STARTCHAR 1ED4
ENCODING 7892
SWIDTH 720 0
DWIDTH 16 0
BBX 15 23 1 0
BITMAP
00F8
00D8
0030
0120
0780
0FE0
0860
0000
0FE0
3CF0
7038
703C
F01C
E01E
E01E
E01E
E01E
F01E
F01C
701C
7838
3C70
0FE0
ENDCHAR
STARTCHAR 1ED5
ENCODING 7893
SWIDTH 540 0
DWIDTH 12 0
BBX 11 18 1 0
BITMAP
03E0
0360
00C0
0C80
1E00
3B80
2100
0000
3F80
73C0
E1C0
E1E0
E0E0
E0E0
E0E0
F1C0
79C0
3F00
ENDCHAR
STARTCHAR 1ED6
ENCODING 7894
SWIDTH 720 0
DWIDTH 16 0
BBX 15 23 1 1
BITMAP
0FE0
1BC0
0000
0100
0780
0FE0
0860
0000
0FE0
3CF0
7038
703C
F01C
E01E
E01E
E01E
E01E
F01E
F01C
701C
7838
3C70
0FE0
ENDCHAR
STARTCHAR 1ED7
ENCODING 7895
SWIDTH 540 0
DWIDTH 12 0
BBX 11 19 1 0
BITMAP
1800
7F80
4F00
0000
0C00
1E00
3B80
2100
0000
3F80
73C0
E1C0
E1E0
E0E0
E0E0
E0E0
F1C0
79C0
3F00
ENDCHAR
STARTCHAR 1ED8
ENCODING 7896
SWIDTH 720 0
DWIDTH 16 0
BBX 15 25 1 -5
BITMAP
0100
0780
0FE0
0860
0000
0FE0
3CF0
7038
703C
F01C
E01E
E01E
E01E
E01E
F01E
F01C
701C
7838
3C70
0FE0
0000
0000
0380
0780
0380
ENDCHAR
STARTCHAR 1ED9
ENCODING 7897
SWIDTH 540 0
DWIDTH 12 0
BBX 11 21 1 -5
BITMAP
0600
0E00
1F00
7180
0000
0000
3F80
73C0
E1C0
E1E0
E0E0
E0E0
E0E0
F1C0
79C0
3F00
0000
0000
0E00
1E00
0E00
ENDCHAR
STARTCHAR 1EDA
ENCODING 7898
SWIDTH 720 0
DWIDTH 16 0
BBX 15 20 1 0
BITMAP
00C0
01C0
018C
030E
000C
0FFC
3CF0
7038
703C
F01C
E01E
E01E
E01E
E01E
F01E
F01C
701C
7838
3C70
0FE0
ENDCHAR
STARTCHAR 1EDB
ENCODING 7899
SWIDTH 585 0
DWIDTH 13 0
BBX 11 16 1 0
BITMAP
0300
0700
0600
0460
0060
0060
3FC0
73C0
E1E0
E1E0
E0E0
E0E0
E0E0
F1C0
79C0
3F00
ENDCHAR
STARTCHAR 1EDC
ENCODING 7900
SWIDTH 720 0
DWIDTH 16 0
BBX 15 19 1 0
BITMAP
0600
030C
010E
000C
0FFC
3CF0
7038
703C
F01C
E01E
E01E
E01E
E01E
F01E
F01C
701C
7838
3C70
0FE0
ENDCHAR
STARTCHAR 1EDD
ENCODING 7901
SWIDTH 585 0
DWIDTH 13 0
BBX 11 16 1 0
BITMAP
3800
1800
0C00
0C60
0060
0060
3FC0
73C0
E1E0
E1E0
E0E0
E0E0
E0E0
F1C0
79C0
3F00
ENDCHAR
STARTCHAR 1EDE
ENCODING 7902
SWIDTH 720 0
DWIDTH 16 0
BBX 15 20 1 0
BITMAP
0780
06C0
018C
010E
000C
0FFC
3CF0
7038
703C
F01C
E01E
E01E
E01E
E01E
F01E
F01C
701C
7838
3C70
0FE0
ENDCHAR
STARTCHAR 1EDF
ENCODING 7903
SWIDTH 585 0
DWIDTH 13 0
BBX 11 16 1 0
BITMAP
0E00
1B00
1700
0C60
0460
0060
3FC0
73C0
E1E0
E1E0
E0E0
E0E0
E0E0
F1C0
79C0
3F00
ENDCHAR
STARTCHAR 1EE0
ENCODING 7904
SWIDTH 720 0
DWIDTH 16 0
BBX 15 19 1 0
BITMAP
0F20
1FEC
008E
000C
0FFC
3CF0
7038
703C
F01C
E01E
E01E
E01E
E01E
F01E
F01C
701C
7838
3C70
0FE0
ENDCHAR
STARTCHAR 1EE1
ENCODING 7905
SWIDTH 585 0
DWIDTH 13 0
BBX 11 15 1 0
BITMAP
3C80
7F80
4760
0060
0060
3FC0
73C0
E1E0
E1E0
E0E0
E0E0
E0E0
F1C0
79C0
3F00
ENDCHAR
STARTCHAR 1EE2
ENCODING 7906
SWIDTH 720 0
DWIDTH 16 0
BBX 15 23 1 -5
BITMAP
000C
000E
000C
0FFC
3CF0
7038
703C
F01C
E01E
E01E
E01E
E01E
F01E
F01C
701C
7838
3C70
0FE0
0000
0000
0380
0780
0380
ENDCHAR
STARTCHAR 1EE3
ENCODING 7907
SWIDTH 585 0
DWIDTH 13 0
BBX 11 18 1 -5
BITMAP
0060
0060
0060
3FC0
73C0
E1E0
E1E0
E0E0
E0E0
E0E0
F1C0
79C0
3F00
0000
0000
0E00
1E00
0E00
ENDCHAR
STARTCHAR 1EE4
ENCODING 7908
SWIDTH 675 0
DWIDTH 15 0
BBX 13 20 1 -5
BITMAP
FC78
7838
7830
7810
7810
7810
7810
7810
7810
7810
7830
7830
3830
3C60
1FC0
0000
0000
0700
0780
0700
ENDCHAR
STARTCHAR 1EE5
ENCODING 7909
SWIDTH 585 0
DWIDTH 13 0
BBX 13 15 0 -5
BITMAP
79F0
F9F0
38F0
38F0
38F0
38F0
38F0
38F0
3FF8
1F70
0000
0000
0700
0780
0700
ENDCHAR
STARTCHAR 1EE6
ENCODING 7910
SWIDTH 675 0
DWIDTH 15 0
BBX 13 20 1 0
BITMAP
0380
06C0
0180
0100
0000
FC78
7838
7830
7810
7810
7810
7810
7810
7810
7810
7830
7830
3830
3C60
1FC0
ENDCHAR
STARTCHAR 1EE7
ENCODING 7911
SWIDTH 585 0
DWIDTH 13 0
BBX 13 16 0 0
BITMAP
0700
0D80
0980
0300
0200
0000
79F0
F9F0
38F0
38F0
38F0
38F0
38F0
38F0
3FF8
1F70
ENDCHAR
STARTCHAR 1EE8
ENCODING 7912
SWIDTH 765 0
DWIDTH 17 0
BBX 16 20 1 0
BITMAP
00C0
01C0
0186
0307
0006
FC7E
7838
7830
7810
7810
7810
7810
7810
7810
7810
7830
7830
3830
3C60
1FC0
ENDCHAR
STARTCHAR 1EE9
ENCODING 7913
SWIDTH 630 0
DWIDTH 14 0
BBX 14 16 0 0
BITMAP
01C0
0180
0300
0318
000C
001C
79F8
F9F0
38F0
38F0
38F0
38F0
38F0
38F0
3FF8
1F70
ENDCHAR
STARTCHAR 1EEA
ENCODING 7914
SWIDTH 765 0
DWIDTH 17 0
BBX 16 19 1 0
BITMAP
0700
0306
0187
0006
FC7E
7838
7830
7810
7810
7810
7810
7810
7810
7810
7830
7830
3830
3C60
1FC0
ENDCHAR
STARTCHAR 1EEB
ENCODING 7915
SWIDTH 630 0
DWIDTH 14 0
BBX 14 16 0 0
BITMAP
0C00
0E00
0600
0318
000C
001C
79F8
F9F0
38F0
38F0
38F0
38F0
38F0
38F0
3FF8
1F70
ENDCHAR
STARTCHAR 1EEC
ENCODING 7916
SWIDTH 765 0
DWIDTH 17 0
BBX 16 20 1 0
BITMAP
0380
06C0
0186
0107
0006
FC7E
7838
7830
7810
7810
7810
7810
7810
7810
7810
7830
7830
3830
3C60
1FC0
ENDCHAR
STARTCHAR 1EED
ENCODING 7917
SWIDTH 630 0
DWIDTH 14 0
BBX 14 16 0 0
BITMAP
0700
0D80
0980
0318
020C
001C
79F8
F9F0
38F0
38F0
38F0
38F0
38F0
38F0
3FF8
1F70
ENDCHAR
STARTCHAR 1EEE
ENCODING 7918
SWIDTH 765 0
DWIDTH 17 0
BBX 16 19 1 0
BITMAP
0FB0
1FE6
0087
0006
FC7E
7838
7830
7810
7810
7810
7810
7810
7810
7810
7830
7830
3830
3C60
1FC0
ENDCHAR
STARTCHAR 1EEF
ENCODING 7919
SWIDTH 630 0
DWIDTH 14 0
BBX 14 15 0 0
BITMAP
0E20
3FC0
0198
000C
001C
79F8
F9F0
38F0
38F0
38F0
38F0
38F0
38F0
3FF8
1F70
ENDCHAR
STARTCHAR 1EF0
ENCODING 7920
SWIDTH 765 0
DWIDTH 17 0
BBX 16 23 1 -5
BITMAP
0006
0007
0006
FC7E
7838
7830
7810
7810
7810
7810
7810
7810
7810
7830
7830
3830
3C60
1FC0
0000
0000
0700
0780
0700
ENDCHAR
STARTCHAR 1EF1
ENCODING 7921
SWIDTH 630 0
DWIDTH 14 0
BBX 14 18 0 -5
BITMAP
0018
000C
001C
79F8
F9F0
38F0
38F0
38F0
38F0
38F0
38F0
3FF8
1F70
0000
0000
0700
0780
0700
ENDCHAR
STARTCHAR 1EF2
ENCODING 7922
SWIDTH 630 0
DWIDTH 14 0
BBX 14 19 0 0
BITMAP
0300
0180
0180
0000
FE7C
7C38
3C10
1C30
1E20
0E60
0F40
07C0
0780
0780
0780
0780
0780
07C0
1FE0
ENDCHAR
STARTCHAR 1EF3
ENCODING 7923
SWIDTH 540 0
DWIDTH 12 0
BBX 12 21 0 -6
BITMAP
0E00
0600
0300
0300
0000
0000
FEF0
7860
3860
3C40
1CC0
1E80
0F80
0F00
0700
0700
0200
0600
0400
7C00
7800
ENDCHAR
STARTCHAR 1EF4
ENCODING 7924
SWIDTH 630 0
DWIDTH 14 0
BBX 14 20 0 -5
BITMAP
FE7C
7C38
3C10
1C30
1E20
0E60
0F40
07C0
0780
0780
0780
0780
0780
07C0
1FE0
0000
0000
0780
0780
0300
ENDCHAR
STARTCHAR 1EF5
ENCODING 7925
SWIDTH 540 0
DWIDTH 12 0
BBX 12 15 0 -6
BITMAP
FEF0
7860
3860
3C40
1CC0
1E80
0F80
0F00
0700
0700
0200
0600
05E0
7DE0
78C0
ENDCHAR
STARTCHAR 1EF6
ENCODING 7926
SWIDTH 630 0
DWIDTH 14 0
BBX 14 20 0 0
BITMAP
03C0
0240
00C0
0180
0000
FE7C
7C38
3C10
1C30
1E20
0E60
0F40
07C0
0780
0780
0780
0780
0780
07C0
1FE0
ENDCHAR
STARTCHAR 1EF7
ENCODING 7927
SWIDTH 540 0
DWIDTH 12 0
BBX 12 21 0 -6
BITMAP
0380
07C0
0580
0300
0300
0000
FEF0
7860
3860
3C40
1CC0
1E80
0F80
0F00
0700
0700
0200
0600
0400
7C00
7800
ENDCHAR
STARTCHAR 1EF8
ENCODING 7928
SWIDTH 630 0
DWIDTH 14 0
BBX 14 19 0 0
BITMAP
07B0
0FE0
0040
0000
FE7C
7C38
3C10
1C30
1E20
0E60
0F40
07C0
0780
0780
0780
0780
0780
07C0
1FE0
ENDCHAR
STARTCHAR 1EF9
ENCODING 7929
SWIDTH 540 0
DWIDTH 12 0
BBX 12 20 0 -6
BITMAP
0F20
1FE0
11C0
0000
0000
FEF0
7860
3860
3C40
1CC0
1E80
0F80
0F00
0700
0700
0200
0600
0400
7C00
7800
ENDCHAR
STARTCHAR 2007
ENCODING 8199
SWIDTH 540 0
DWIDTH 12 0
BBX 0 0 0 0
BITMAP
ENDCHAR
STARTCHAR 2008
ENCODING 8200
SWIDTH 180 0
DWIDTH 4 0
BBX 0 0 0 0
BITMAP
ENDCHAR
STARTCHAR 2009
ENCODING 8201
SWIDTH 90 0
DWIDTH 2 0
BBX 0 0 0 0
BITMAP
ENDCHAR
STARTCHAR 200A
ENCODING 8202
SWIDTH 45 0
DWIDTH 1 0
BBX 0 0 0 0
BITMAP
ENDCHAR
STARTCHAR 200B
ENCODING 8203
SWIDTH 0 0
DWIDTH 0 0
BBX 0 0 0 0
BITMAP
ENDCHAR
STARTCHAR 2010
ENCODING 8208
SWIDTH 405 0
DWIDTH 9 0
BBX 7 2 1 5
BITMAP
7E
FE
ENDCHAR
STARTCHAR 2011
ENCODING 8209
SWIDTH 405 0
DWIDTH 9 0
BBX 7 2 1 5
BITMAP
7E
FE
ENDCHAR
STARTCHAR 2012
ENCODING 8210
SWIDTH 540 0
DWIDTH 12 0
BBX 10 2 1 5
BITMAP
FFC0
FFC0
ENDCHAR
STARTCHAR 2013
ENCODING 8211
SWIDTH 540 0
DWIDTH 12 0
BBX 11 2 1 5
BITMAP
7FE0
FFC0
ENDCHAR
STARTCHAR 2014
ENCODING 8212
SWIDTH 990 0
DWIDTH 22 0
BBX 20 2 1 5
BITMAP
7FFFF0
FFFFF0
ENDCHAR
STARTCHAR 2015
ENCODING 8213
SWIDTH 990 0
DWIDTH 22 0
BBX 20 2 1 5
BITMAP
7FFFF0
FFFFF0
ENDCHAR
STARTCHAR 2016
ENCODING 8214
SWIDTH 315 0
DWIDTH 7 0
BBX 5 21 1 -5
BITMAP
C8
C8
C8
C8
C8
C8
C8
C8
C8
C8
C8
C8
C8
C8
C8
C8
C8
C8
C8
C8
C8
ENDCHAR
STARTCHAR 2018
ENCODING 8216
SWIDTH 270 0
DWIDTH 6 0
BBX 4 6 1 10
BITMAP
20
60
60
E0
F0
F0
ENDCHAR
STARTCHAR 2019
ENCODING 8217
SWIDTH 270 0
DWIDTH 6 0
BBX 4 6 1 10
BITMAP
70
F0
F0
30
20
60
ENDCHAR
STARTCHAR 201A
ENCODING 8218
SWIDTH 270 0
DWIDTH 6 0
BBX 4 6 1 -3
BITMAP
30
F0
F0
30
20
60
ENDCHAR
STARTCHAR 201B
ENCODING 8219
SWIDTH 270 0
DWIDTH 6 0
BBX 4 6 1 10
BITMAP
60
F0
F0
60
60
20
ENDCHAR
STARTCHAR 201C
ENCODING 8220
SWIDTH 450 0
DWIDTH 10 0
BBX 8 6 1 10
BITMAP
22
66
64
EE
FF
67
ENDCHAR
STARTCHAR 201D
ENCODING 8221
SWIDTH 450 0
DWIDTH 10 0
BBX 8 6 1 10
BITMAP
77
FF
FF
33
66
44
ENDCHAR
STARTCHAR 201E
ENCODING 8222
SWIDTH 450 0
DWIDTH 10 0
BBX 8 6 1 -3
BITMAP
22
F7
FF
33
26
66
ENDCHAR
STARTCHAR 201F
ENCODING 8223
SWIDTH 450 0
DWIDTH 10 0
BBX 8 6 1 10
BITMAP
66
FF
FF
64
66
22
ENDCHAR
STARTCHAR 2020
ENCODING 8224
SWIDTH 450 0
DWIDTH 10 0
BBX 9 21 1 -6
BITMAP
0C00
1C00
1C00
1800
1800
FF80
FF00
1800
1800
1800
1800
1800
1800
1800
1800
1800
1800
1800
1800
1800
0800
ENDCHAR
STARTCHAR 2021
ENCODING 8225
SWIDTH 450 0
DWIDTH 10 0
BBX 9 19 1 -5
BITMAP
0C00
1C00
1C00
1800
1800
FF80
EF00
0800
0800
1C00
1800
0800
0800
FF80
FF80
0800
0C00
1C00
1C00
ENDCHAR
STARTCHAR 2022
ENCODING 8226
SWIDTH 360 0
DWIDTH 8 0
BBX 6 6 1 3
BITMAP
10
7C
FC
FC
7C
78
ENDCHAR
STARTCHAR 2023
ENCODING 8227
SWIDTH 360 0
DWIDTH 8 0
BBX 5 6 2 3
BITMAP
80
E0
F8
F8
F0
C0
ENDCHAR
STARTCHAR 2024
ENCODING 8228
SWIDTH 270 0
DWIDTH 6 0
BBX 4 4 1 0
BITMAP
20
F0
F0
70
ENDCHAR
STARTCHAR 2025
ENCODING 8229
SWIDTH 585 0
DWIDTH 13 0
BBX 11 3 1 0
BITMAP
70E0
F0E0
70E0
ENDCHAR
STARTCHAR 2026
ENCODING 8230
SWIDTH 900 0
DWIDTH 20 0
BBX 18 4 1 0
BITMAP
204080
F0E1C0
F0E1C0
70E1C0
ENDCHAR
STARTCHAR 2027
ENCODING 8231
SWIDTH 270 0
DWIDTH 6 0
BBX 4 3 1 5
BITMAP
F0
F0
60
ENDCHAR
STARTCHAR 202F
ENCODING 8239
SWIDTH 180 0
DWIDTH 4 0
BBX 0 0 0 0
BITMAP
ENDCHAR
STARTCHAR 2030
ENCODING 8240
SWIDTH 1215 0
DWIDTH 27 0
BBX 24 15 2 0
BITMAP
3C0C00
6E0C00
C61800
C63000
C66000
ECC000
798000
018000
033C3C
066E7E
0CE666
18C667
30C666
306666
607C3C
ENDCHAR
STARTCHAR 2031
ENCODING 8241
SWIDTH 1575 0
DWIDTH 35 0
BBX 32 15 2 0
BITMAP
3C0C0000
6E0C0000
C6180000
C6300000
C6600000
ECC00000
79800000
01800000
033C3C1C
066E7E76
0CC66667
18C6E763
30C66663
30666676
607C3C3C
ENDCHAR
STARTCHAR 2032
ENCODING 8242
SWIDTH 270 0
DWIDTH 6 0
BBX 4 6 1 10
BITMAP
10
30
60
60
40
C0
ENDCHAR
STARTCHAR 2033
ENCODING 8243
SWIDTH 450 0
DWIDTH 10 0
BBX 8 6 1 10
BITMAP
11
33
67
66
44
C4
ENDCHAR
STARTCHAR 2034
ENCODING 8244
SWIDTH 630 0
DWIDTH 14 0
BBX 12 6 1 10
BITMAP
1110
3330
6730
6660
4460
C440
ENDCHAR
STARTCHAR 2035
ENCODING 8245
SWIDTH 270 0
DWIDTH 6 0
BBX 3 6 2 10
BITMAP
C0
C0
C0
40
60
60
ENDCHAR
STARTCHAR 2036
ENCODING 8246
SWIDTH 450 0
DWIDTH 10 0
BBX 7 6 2 10
BITMAP
CC
CC
CC
44
66
62
ENDCHAR
STARTCHAR 2037
ENCODING 8247
SWIDTH 630 0
DWIDTH 14 0
BBX 11 6 2 10
BITMAP
CCC0
CCC0
CCC0
4440
6660
6620
ENDCHAR
STARTCHAR 2038
ENCODING 8248
SWIDTH 540 0
DWIDTH 12 0
BBX 10 7 1 0
BITMAP
0C00
1E00
1200
3300
6180
C0C0
80C0
ENDCHAR
STARTCHAR 2039
ENCODING 8249
SWIDTH 315 0
DWIDTH 7 0
BBX 5 7 1 2
BITMAP
18
30
60
E0
70
30
18
ENDCHAR
STARTCHAR 203A
ENCODING 8250
SWIDTH 315 0
DWIDTH 7 0
BBX 4 7 2 2
BITMAP
80
E0
70
70
60
C0
80
ENDCHAR
STARTCHAR 203D
ENCODING 8253
SWIDTH 585 0
DWIDTH 13 0
BBX 9 16 3 0
BITMAP
7E00
E780
C380
BB80
1B80
1B80
1B00
1E00
1400
1800
1800
0000
0000
1C00
3C00
1C00
ENDCHAR
STARTCHAR 203F
ENCODING 8255
SWIDTH 675 0
DWIDTH 15 0
BBX 14 3 1 -3
BITMAP
E01C
7FF8
1FE0
ENDCHAR
STARTCHAR 2040
ENCODING 8256
SWIDTH 675 0
DWIDTH 15 0
BBX 12 4 2 15
BITMAP
1F80
7FE0
E070
8010
ENDCHAR
STARTCHAR 2043
ENCODING 8259
SWIDTH 360 0
DWIDTH 8 0
BBX 6 4 1 4
BITMAP
FC
FC
FC
FC
ENDCHAR
STARTCHAR 2044
ENCODING 8260
SWIDTH 180 0
DWIDTH 4 0
BBX 13 16 -4 0
BITMAP
0018
0030
0020
0060
00C0
0180
0180
0300
0600
0C00
0C00
1800
3000
2000
6000
C000
ENDCHAR
STARTCHAR 204B
ENCODING 8267
SWIDTH 585 0
DWIDTH 13 0
BBX 11 20 1 -6
BITMAP
FF80
69C0
68E0
68E0
68E0
68E0
69E0
6FC0
6800
6800
6800
6800
6800
6800
6800
6800
6800
6800
6800
6800
ENDCHAR
STARTCHAR 2052
ENCODING 8274
SWIDTH 585 0
DWIDTH 13 0
BBX 11 13 1 1
BITMAP
6020
F060
F0C0
6180
0300
0600
0C00
0C00
1800
30C0
61E0
C1E0
80C0
ENDCHAR
STARTCHAR 205D
ENCODING 8285
SWIDTH 270 0
DWIDTH 6 0
BBX 4 15 1 0
BITMAP
70
F0
70
00
00
00
70
F0
70
00
00
00
70
F0
70
ENDCHAR
STARTCHAR 2070
ENCODING 8304
SWIDTH 405 0
DWIDTH 9 0
BBX 8 8 1 9
BITMAP
3C
EE
C7
C3
C3
C7
E6
3C
ENDCHAR
STARTCHAR 2074
ENCODING 8308
SWIDTH 405 0
DWIDTH 9 0
BBX 9 10 0 6
BITMAP
0600
0E00
0E00
1600
2600
6600
FF80
7F80
0600
0600
ENDCHAR
STARTCHAR 2075
ENCODING 8309
SWIDTH 315 0
DWIDTH 7 0
BBX 6 12 1 6
BITMAP
04
7C
FC
80
C0
F8
7C
1C
1C
1C
F8
40
ENDCHAR
STARTCHAR 2076
ENCODING 8310
SWIDTH 360 0
DWIDTH 8 0
BBX 7 10 1 9
BITMAP
1C
30
60
C0
FC
CE
C6
C6
EE
7C
ENDCHAR
STARTCHAR 2077
ENCODING 8311
SWIDTH 315 0
DWIDTH 7 0
BBX 6 10 1 6
BITMAP
FC
FC
88
18
10
30
60
60
60
60
ENDCHAR
STARTCHAR 2078
ENCODING 8312
SWIDTH 360 0
DWIDTH 8 0
BBX 7 10 1 9
BITMAP
7C
CC
CE
FC
78
7C
CE
CE
EE
7C
ENDCHAR
STARTCHAR 2079
ENCODING 8313
SWIDTH 360 0
DWIDTH 8 0
BBX 7 10 1 7
BITMAP
7C
CE
C6
C6
C6
FE
0E
0C
18
70
ENDCHAR
STARTCHAR 2080
ENCODING 8320
SWIDTH 405 0
DWIDTH 9 0
BBX 8 8 1 -3
BITMAP
38
6E
C7
C7
C3
C3
E6
7C
ENDCHAR
STARTCHAR 2081
ENCODING 8321
SWIDTH 270 0
DWIDTH 6 0
BBX 5 8 1 -3
BITMAP
F8
F0
60
60
60
60
60
F8
ENDCHAR
STARTCHAR 2082
ENCODING 8322
SWIDTH 315 0
DWIDTH 7 0
BBX 6 8 1 -3
BITMAP
78
DC
9C
1C
30
64
FC
FC
ENDCHAR
STARTCHAR 2083
ENCODING 8323
SWIDTH 315 0
DWIDTH 7 0
BBX 6 11 1 -6
BITMAP
FC
FC
C8
90
30
7C
1C
0C
0C
9C
F0
ENDCHAR
STARTCHAR 2084
ENCODING 8324
SWIDTH 405 0
DWIDTH 9 0
BBX 8 11 1 -6
BITMAP
0C
0C
1C
2C
6C
CC
FF
FF
0C
0C
08
ENDCHAR
STARTCHAR 2085
ENCODING 8325
SWIDTH 315 0
DWIDTH 7 0
BBX 6 12 1 -6
BITMAP
04
7C
FC
F8
80
F0
F8
1C
1C
1C
38
E0
ENDCHAR
STARTCHAR 2086
ENCODING 8326
SWIDTH 360 0
DWIDTH 8 0
BBX 7 10 1 -3
BITMAP
0C
38
60
E0
FC
CE
C6
C6
EE
7C
ENDCHAR
STARTCHAR 2087
ENCODING 8327
SWIDTH 315 0
DWIDTH 7 0
BBX 6 11 1 -6
BITMAP
FC
FC
F8
98
10
30
20
60
60
60
40
ENDCHAR
STARTCHAR 2088
ENCODING 8328
SWIDTH 360 0
DWIDTH 8 0
BBX 7 10 1 -3
BITMAP
38
EC
CE
EC
78
7C
CE
CE
CE
7C
ENDCHAR
STARTCHAR 2089
ENCODING 8329
SWIDTH 360 0
DWIDTH 8 0
BBX 7 11 1 -6
BITMAP
38
EC
CE
C6
C6
FE
7E
0C
1C
70
C0
ENDCHAR
STARTCHAR 20A1
ENCODING 8353
SWIDTH 630 0
DWIDTH 14 0
BBX 12 19 1 -2
BITMAP
0140
0160
0FE0
3C70
7030
7030
F030
E000
E000
E000
E000
F000
F000
7800
7800
3FF0
0FE0
0900
0B00
ENDCHAR
STARTCHAR 20A3
ENCODING 8355
SWIDTH 585 0
DWIDTH 13 0
BBX 11 15 1 0
BITMAP
FFE0
78E0
3860
3820
3800
3800
38C0
3FC0
3FC0
38C0
38C0
FE00
3800
7C00
FE00
ENDCHAR
STARTCHAR 20A4
ENCODING 8356
SWIDTH 540 0
DWIDTH 12 0
BBX 11 15 1 0
BITMAP
1FC0
39C0
70C0
70C0
7000
7800
7C00
FF00
FF00
3800
3800
3720
3FE0
7FC0
C3C0
ENDCHAR
STARTCHAR 20A6
ENCODING 8358
SWIDTH 720 0
DWIDTH 16 0
BBX 16 15 0 0
BITMAP
7C1E
3C0C
1E0C
1F0C
1F8C
178C
FFFF
FFFF
11EC
10FC
107C
103C
303C
381C
7C0C
ENDCHAR
STARTCHAR 20A7
ENCODING 8359
SWIDTH 630 0
DWIDTH 14 0
BBX 15 15 0 0
BITMAP
7FE0
3CF8
1C78
1C38
FFFE
FFFE
1C38
1C78
1DF0
1DC0
1C00
1C00
1C00
3E00
7F00
ENDCHAR
STARTCHAR 20A9
ENCODING 8361
SWIDTH 990 0
DWIDTH 22 0
BBX 22 15 0 0
BITMAP
FE187C
7C1838
383C10
3C3C10
3C3C30
FFFFFC
FFCFFC
1E4F60
7ECF7C
FF877C
0F87C0
0787C0
070380
070380
030180
ENDCHAR
STARTCHAR 20AB
ENCODING 8363
SWIDTH 585 0
DWIDTH 13 0
BBX 12 16 1 0
BITMAP
0040
03E0
01E0
0FF0
01E0
01E0
3FE0
71E0
E1E0
E1E0
E1E0
F3F0
7EF0
1880
0000
FFF0
ENDCHAR
STARTCHAR 20AC
ENCODING 8364
SWIDTH 720 0
DWIDTH 16 0
BBX 14 15 1 0
BITMAP
03F8
0F1C
1E0C
1C0C
3C0C
FFE0
FFE0
3800
FFC0
FFC0
3C00
1E00
1E00
0FFC
03F8
ENDCHAR
STARTCHAR 20AD
ENCODING 8365
SWIDTH 720 0
DWIDTH 16 0
BBX 16 15 0 0
BITMAP
7F3E
3E3C
1C30
1C60
1CC0
1D80
1F00
FFFC
1FC0
1DE0
1CF0
1C78
1C78
3C3E
7F1F
ENDCHAR
STARTCHAR 20AE
ENCODING 8366
SWIDTH 630 0
DWIDTH 14 0
BBX 13 15 1 0
BITMAP
FFF8
E738
C718
8718
0700
0760
0FC0
3F00
0760
07E0
3F00
2700
0700
0F80
3FC0
ENDCHAR
STARTCHAR 20B1
ENCODING 8369
SWIDTH 630 0
DWIDTH 14 0
BBX 15 15 0 0
BITMAP
7FE0
3CF8
1C78
FC3E
1C38
1C38
FC3E
1C78
1DF0
1DC0
1C00
1C00
1C00
3E00
7F00
ENDCHAR
STARTCHAR 20B2
ENCODING 8370
SWIDTH 675 0
DWIDTH 15 0
BBX 14 19 1 -2
BITMAP
0100
0100
0FF0
3C78
7838
7018
F010
E000
E000
E000
E0FC
F038
F038
7038
7838
3C78
0FE0
0100
0100
ENDCHAR
STARTCHAR 20B4
ENCODING 8372
SWIDTH 585 0
DWIDTH 13 0
BBX 12 15 1 0
BITMAP
3FC0
39E0
30E0
30E0
01C0
FFF0
FFF0
0000
FFF0
FFF0
3800
7060
7060
78E0
3FC0
ENDCHAR
STARTCHAR 20B5
ENCODING 8373
SWIDTH 630 0
DWIDTH 14 0
BBX 12 19 1 -2
BITMAP
0100
0100
0FE0
3D70
7130
7130
F130
E100
E100
E100
E100
F100
F100
7900
7900
3FF0
0FE0
0100
0100
ENDCHAR
STARTCHAR 20B8
ENCODING 8376
SWIDTH 630 0
DWIDTH 14 0
BBX 13 15 1 0
BITMAP
FFF8
0000
0000
FFF8
E738
C718
8718
0700
0700
0700
0700
0700
0700
0F80
3FC0
ENDCHAR
STARTCHAR 20B9
ENCODING 8377
SWIDTH 540 0
DWIDTH 12 0
BBX 11 15 1 0
BITMAP
FFE0
FFE0
0F00
0700
FFE0
8700
0F00
1E00
FC00
3C00
1E00
0F00
0700
07C0
03E0
ENDCHAR
STARTCHAR 20BA
ENCODING 8378
SWIDTH 585 0
DWIDTH 13 0
BBX 12 15 0 0
BITMAP
7F00
3E00
1C00
1D80
1F80
1E00
3C00
7F80
DF30
1C30
7C30
DC30
1C60
1DE0
1F80
ENDCHAR
STARTCHAR 20BC
ENCODING 8380
SWIDTH 765 0
DWIDTH 17 0
BBX 16 17 1 0
BITMAP
0100
0300
0FE0
1FF8
3B38
333C
331C
331C
331C
331C
331C
331C
331C
331C
331C
703E
F87F
ENDCHAR
STARTCHAR 20BD
ENCODING 8381
SWIDTH 675 0
DWIDTH 15 0
BBX 13 15 1 0
BITMAP
7FE0
3C78
1C38
1C38
1C38
1C38
1C78
FFF0
FF00
1C00
FFE0
FFC0
1C00
3E00
7F00
ENDCHAR
STARTCHAR 2102
ENCODING 8450
SWIDTH 630 0
DWIDTH 14 0
BBX 12 15 1 0
BITMAP
0FE0
3870
7830
7830
D830
D800
D800
D800
D800
D800
F800
7800
7800
3FF0
0FE0
ENDCHAR
STARTCHAR 210D
ENCODING 8461
SWIDTH 765 0
DWIDTH 17 0
BBX 15 15 1 0
BITMAP
FF3E
661C
261C
241C
241C
241C
241C
27FC
241C
241C
241C
241C
261C
661C
FF3E
ENDCHAR
STARTCHAR 2113
ENCODING 8467
SWIDTH 450 0
DWIDTH 10 0
BBX 9 16 0 0
BITMAP
0700
0F80
1C80
1C80
1C80
3D80
3D00
3B00
3E00
3C00
F800
B800
3C00
1C80
1F80
0F00
ENDCHAR
STARTCHAR 2115
ENCODING 8469
SWIDTH 765 0
DWIDTH 17 0
BBX 15 15 1 0
BITMAP
FC1E
660E
330C
398C
398C
2CCC
266C
233C
213C
219C
20CC
206C
203C
703C
F81C
ENDCHAR
STARTCHAR 2116
ENCODING 8470
SWIDTH 1170 0
DWIDTH 26 0
BBX 24 15 1 0
BITMAP
F83C7C
7818C6
3C18C7
3E19C7
3F19C7
2F18C7
2798EE
23D838
23D800
21F9FF
20F9FF
207800
607800
703800
F81800
ENDCHAR
STARTCHAR 2117
ENCODING 8471
SWIDTH 765 0
DWIDTH 17 0
BBX 16 16 1 -3
BITMAP
03C0
0E70
1008
2FE4
6776
473A
C73B
C73B
C773
C7E2
4702
6F86
384C
1818
0FF0
0180
ENDCHAR
STARTCHAR 2119
ENCODING 8473
SWIDTH 630 0
DWIDTH 14 0
BBX 13 15 1 0
BITMAP
FFE0
6470
2438
2438
2418
2418
2438
2430
25F0
25C0
2400
2400
2600
6700
FF80
ENDCHAR
STARTCHAR 211A
ENCODING 8474
SWIDTH 720 0
DWIDTH 16 0
BBX 16 19 1 -4
BITMAP
0FE0
3870
7838
781C
D80C
D80E
D80E
D80E
D80E
D80E
F80C
781C
7818
3C70
0FE0
00F0
0078
003F
001F
ENDCHAR
STARTCHAR 211D
ENCODING 8477
SWIDTH 675 0
DWIDTH 15 0
BBX 14 15 1 0
BITMAP
FFE0
6470
6438
6438
6418
6438
6430
67E0
67C0
64E0
6460
6470
6430
6638
FE3C
ENDCHAR
STARTCHAR 2122
ENCODING 8482
SWIDTH 990 0
DWIDTH 22 0
BBX 20 8 1 9
BITMAP
7F78E0
5D79E0
DD39E0
1C3DE0
1C4EE0
1C4EE0
1C6EE0
3EE4F0
ENDCHAR
STARTCHAR 2124
ENCODING 8484
SWIDTH 675 0
DWIDTH 15 0
BBX 13 15 1 0
BITMAP
7FF8
7198
61B0
4330
0660
06C0
0CC0
0D80
1980
1B00
3300
6618
6C18
CC38
FFF8
ENDCHAR
STARTCHAR 2126
ENCODING 8486
SWIDTH 810 0
DWIDTH 18 0
BBX 17 15 1 0
BITMAP
07F000
1E3C00
3C1E00
780E00
780F00
700F00
700F00
700F00
700E00
380E00
380C00
CC1980
FC3F80
FE3F00
FE3F00
ENDCHAR
STARTCHAR 212E
ENCODING 8494
SWIDTH 585 0
DWIDTH 13 0
BBX 13 13 0 0
BITMAP
0F80
3060
2030
6030
6030
E038
FFC0
6000
6000
6010
2020
3060
0F80
ENDCHAR
STARTCHAR 2153
ENCODING 8531
SWIDTH 945 0
DWIDTH 21 0
BBX 20 16 1 0
BITMAP
780300
F80600
380400
380C00
381800
383000
3837E0
3867E0
78C6C0
FF8480
0181C0
0303E0
0600F0
040060
0C00E0
180FC0
ENDCHAR
STARTCHAR 2154
ENCODING 8532
SWIDTH 990 0
DWIDTH 22 0
BBX 21 16 1 0
BITMAP
FC0180
CE0100
CE0300
4E0600
1C0C00
380800
621BF0
FE33F0
FE6320
FE6240
00C0E0
0180F0
030038
030038
060070
0C03E0
ENDCHAR
STARTCHAR 215B
ENCODING 8539
SWIDTH 945 0
DWIDTH 21 0
BBX 20 16 1 0
BITMAP
780300
F80600
380400
380C00
381800
383000
3833C0
386E60
78CE70
FF8F60
0187C0
0307E0
060EF0
040E70
0C0E70
1807E0
ENDCHAR
STARTCHAR 215C
ENCODING 8540
SWIDTH 945 0
DWIDTH 21 0
BBX 20 16 1 0
BITMAP
FC0200
FC0600
980C00
100800
3C1800
3E3000
0E67C0
0E6EE0
9CCE60
F98FE0
0307C0
0307E0
060CF0
0C0C70
180E60
1807C0
ENDCHAR
STARTCHAR 215D
ENCODING 8541
SWIDTH 945 0
DWIDTH 21 0
BBX 20 17 1 0
BITMAP
060000
7E0300
FE0600
C00600
800C00
FC1800
9E1000
0E33C0
0E6E70
9ECE70
F88F60
0187C0
0307E0
060EF0
060E70
0C0E70
1807E0
ENDCHAR
STARTCHAR 215E
ENCODING 8542
SWIDTH 900 0
DWIDTH 20 0
BBX 19 16 1 0
BITMAP
FC0400
FC0C00
CC1800
983000
183000
306000
70CF80
7099C0
719CC0
731FC0
061F00
040FC0
0C19C0
1838E0
301CC0
300F80
ENDCHAR
STARTCHAR 2190
ENCODING 8592
SWIDTH 810 0
DWIDTH 18 0
BBX 17 8 1 1
BITMAP
0C0000
180000
380000
FFFF80
FFFF80
380000
0C0000
040000
ENDCHAR
STARTCHAR 2191
ENCODING 8593
SWIDTH 450 0
DWIDTH 10 0
BBX 8 17 1 -1
BITMAP
18
1C
3C
3E
7F
C9
08
08
08
08
08
08
08
08
08
08
08
ENDCHAR
STARTCHAR 2192
ENCODING 8594
SWIDTH 810 0
DWIDTH 18 0
BBX 17 9 1 1
BITMAP
001000
001800
001C00
000F00
FFFF80
FFFF00
000C00
001800
001000
ENDCHAR
STARTCHAR 2193
ENCODING 8595
SWIDTH 450 0
DWIDTH 10 0
BBX 8 17 1 -1
BITMAP
18
18
18
18
18
18
18
18
18
18
18
DB
7E
3E
3C
18
18
ENDCHAR
STARTCHAR 2194
ENCODING 8596
SWIDTH 900 0
DWIDTH 20 0
BBX 19 8 1 1
BITMAP
0C0400
180700
780380
FFFFE0
7FFFC0
380300
0C0600
040400
ENDCHAR
STARTCHAR 2195
ENCODING 8597
SWIDTH 450 0
DWIDTH 10 0
BBX 8 17 1 -1
BITMAP
18
1C
3C
7E
7B
D8
18
18
18
18
18
9B
7F
3E
3C
18
18
ENDCHAR
STARTCHAR 2196
ENCODING 8598
SWIDTH 720 0
DWIDTH 16 0
BBX 13 14 1 1
BITMAP
4000
FE00
7C00
7800
7C00
6E00
6700
0380
01C0
00E0
0070
0038
0018
0008
ENDCHAR
STARTCHAR 2197
ENCODING 8599
SWIDTH 675 0
DWIDTH 15 0
BBX 14 14 1 1
BITMAP
0008
01FC
01F8
0078
00F8
01D8
0398
0700
0E00
1C00
3800
7000
E000
C000
ENDCHAR
STARTCHAR 2198
ENCODING 8600
SWIDTH 720 0
DWIDTH 16 0
BBX 14 13 1 1
BITMAP
E000
7000
3800
1C00
0E00
0700
0388
01C8
00F8
007C
007C
01FC
001C
ENDCHAR
STARTCHAR 2199
ENCODING 8601
SWIDTH 720 0
DWIDTH 16 0
BBX 14 13 1 2
BITMAP
000C
0018
0030
0060
00C0
0380
4700
6E00
7C00
7800
7C00
FE00
E000
ENDCHAR
STARTCHAR 21A4
ENCODING 8612
SWIDTH 855 0
DWIDTH 19 0
BBX 17 8 1 1
BITMAP
0C0180
180180
380180
FFFF80
FFFF80
380180
0C0180
040180
ENDCHAR
STARTCHAR 21A5
ENCODING 8613
SWIDTH 450 0
DWIDTH 10 0
BBX 9 16 1 0
BITMAP
1800
1C00
3C00
3E00
7F00
C900
0800
0800
0800
0800
0800
0800
0800
0800
7F80
FF00
ENDCHAR
STARTCHAR 21A6
ENCODING 8614
SWIDTH 855 0
DWIDTH 19 0
BBX 17 8 1 2
BITMAP
C01800
C00C00
C00F00
FFFF80
FFFF00
C00E00
C00800
C01000
ENDCHAR
STARTCHAR 21A7
ENCODING 8615
SWIDTH 450 0
DWIDTH 10 0
BBX 8 17 1 -1
BITMAP
FF
FF
18
18
18
18
18
18
18
18
18
DB
7E
3E
3C
18
08
ENDCHAR
STARTCHAR 21B0
ENCODING 8624
SWIDTH 675 0
DWIDTH 15 0
BBX 12 16 1 0
BITMAP
0C00
1800
3800
FFF0
FFF0
3830
0C30
0430
0030
0030
0030
0030
0030
0030
0030
0030
ENDCHAR
STARTCHAR 21B1
ENCODING 8625
SWIDTH 675 0
DWIDTH 15 0
BBX 13 17 2 0
BITMAP
0100
0180
01C0
00F0
FFF8
FFF0
C0C0
C180
C100
C000
C000
C000
C000
C000
C000
C000
C000
ENDCHAR
STARTCHAR 21B2
ENCODING 8626
SWIDTH 675 0
DWIDTH 15 0
BBX 12 17 1 -1
BITMAP
0030
0030
0030
0030
0030
0030
0030
0030
0030
0430
1C30
3830
FFF0
FFF0
3800
1C00
0400
ENDCHAR
STARTCHAR 21B3
ENCODING 8627
SWIDTH 720 0
DWIDTH 16 0
BBX 13 17 2 -1
BITMAP
C000
C000
C000
C000
C000
C000
C000
C000
C000
C180
C1C0
C0E0
FFF8
FFF8
00E0
00C0
0100
ENDCHAR
STARTCHAR 21BC
ENCODING 8636
SWIDTH 810 0
DWIDTH 18 0
BBX 17 5 1 4
BITMAP
0C0000
180000
380000
FFFF80
FFFF80
ENDCHAR
STARTCHAR 21BD
ENCODING 8637
SWIDTH 810 0
DWIDTH 18 0
BBX 17 5 1 1
BITMAP
FFFF80
FFFF80
380000
0C0000
040000
ENDCHAR
STARTCHAR 21BE
ENCODING 8638
SWIDTH 360 0
DWIDTH 8 0
BBX 5 17 2 -1
BITMAP
C0
C0
E0
F0
F8
C8
C0
C0
C0
C0
C0
C0
C0
C0
C0
C0
40
ENDCHAR
STARTCHAR 21BF
ENCODING 8639
SWIDTH 360 0
DWIDTH 8 0
BBX 6 17 1 -1
BITMAP
08
18
38
38
78
C8
08
08
08
08
08
08
08
08
08
0C
0C
ENDCHAR
STARTCHAR 21C0
ENCODING 8640
SWIDTH 810 0
DWIDTH 18 0
BBX 17 6 1 4
BITMAP
001000
001800
001C00
000F00
FFFF80
FFFC00
ENDCHAR
STARTCHAR 21C1
ENCODING 8641
SWIDTH 810 0
DWIDTH 18 0
BBX 17 5 1 1
BITMAP
FFFF80
FFFF00
000C00
001800
001000
ENDCHAR
STARTCHAR 21C2
ENCODING 8642
SWIDTH 360 0
DWIDTH 8 0
BBX 5 17 2 -1
BITMAP
C0
C0
C0
C0
C0
C0
C0
C0
C0
C0
C0
D8
F0
F0
E0
C0
C0
ENDCHAR
STARTCHAR 21C3
ENCODING 8643
SWIDTH 360 0
DWIDTH 8 0
BBX 5 17 1 -1
BITMAP
18
18
18
18
18
18
18
18
18
18
18
D8
78
38
38
18
08
ENDCHAR
STARTCHAR 21C4
ENCODING 8644
SWIDTH 810 0
DWIDTH 18 0
BBX 17 15 1 -3
BITMAP
001800
001C00
000E00
FFFF80
FFFF00
000E00
041800
0C1000
180000
780000
FFFF80
780000
1C0000
0C0000
040000
ENDCHAR
STARTCHAR 21C5
ENCODING 8645
SWIDTH 765 0
DWIDTH 17 0
BBX 16 17 1 -1
BITMAP
1810
1C10
3C10
3E10
7F10
C910
0810
0810
0810
0810
0810
0997
08FE
087C
0838
0838
0810
ENDCHAR
STARTCHAR 21C6
ENCODING 8646
SWIDTH 810 0
DWIDTH 18 0
BBX 17 14 1 -2
BITMAP
0C0000
180000
380000
FFFF80
FFFF80
380000
0C1000
041800
000C00
000F00
FFFF80
000F00
000C00
001800
ENDCHAR
STARTCHAR 21C7
ENCODING 8647
SWIDTH 810 0
DWIDTH 18 0
BBX 17 15 1 -2
BITMAP
040000
0C0000
380000
7FFF80
FFFF80
780000
1C0000
0C0000
0C0000
380000
FFFF80
FFFF80
380000
1C0000
040000
ENDCHAR
STARTCHAR 21C8
ENCODING 8648
SWIDTH 765 0
DWIDTH 17 0
BBX 15 17 1 -1
BITMAP
1830
1C38
3C78
3E7C
7FFE
C9B2
0830
0830
0830
0830
0830
0830
0830
0830
0830
0830
0810
ENDCHAR
STARTCHAR 21C9
ENCODING 8649
SWIDTH 810 0
DWIDTH 18 0
BBX 17 15 1 -2
BITMAP
001000
001800
000E00
FFFF80
FFFF80
000E00
001C00
001800
001C00
000E00
FFFF80
FFFF80
000E00
001800
001000
ENDCHAR
STARTCHAR 21CA
ENCODING 8650
SWIDTH 765 0
DWIDTH 17 0
BBX 15 17 1 -1
BITMAP
1830
1830
1830
1830
1830
1830
1830
1830
1830
1830
1830
DBB6
7EFC
3E7C
3C78
1830
1830
ENDCHAR
STARTCHAR 21CB
ENCODING 8651
SWIDTH 855 0
DWIDTH 19 0
BBX 17 13 1 -1
BITMAP
060000
0C0000
3C0000
7FFF80
7FFF80
000000
000000
000000
7FFF80
FFFF80
000F00
000C00
001800
ENDCHAR
STARTCHAR 21CC
ENCODING 8652
SWIDTH 855 0
DWIDTH 19 0
BBX 17 13 1 -1
BITMAP
001000
001C00
000E00
7FFF80
FFFF80
000000
000000
000000
7FFF80
7FFF80
380000
1C0000
040000
ENDCHAR
STARTCHAR 21D2
ENCODING 8658
SWIDTH 810 0
DWIDTH 18 0
BBX 17 12 1 -1
BITMAP
003000
001800
000C00
FFFE00
000700
000780
000780
FFFF00
FFFC00
000C00
001800
003000
ENDCHAR
STARTCHAR 21D4
ENCODING 8660
SWIDTH 945 0
DWIDTH 21 0
BBX 19 12 1 -1
BITMAP
0C0400
0C0600
180300
3FFF80
7001C0
F001E0
7001E0
3FFFC0
1FFF80
0C0300
0C0600
040400
ENDCHAR
STARTCHAR 21F5
ENCODING 8693
SWIDTH 765 0
DWIDTH 17 0
BBX 16 17 1 -1
BITMAP
1810
1838
183C
187C
18FE
189B
1818
1818
1818
1818
1818
DB18
7E18
3E18
3C18
1818
1808
ENDCHAR
STARTCHAR 2200
ENCODING 8704
SWIDTH 675 0
DWIDTH 15 0
BBX 15 15 0 0
BITMAP
FE1E
7C0E
3C0C
3C08
1FF8
1E18
0E10
0F30
0720
07A0
07E0
03C0
03C0
0180
0180
ENDCHAR
STARTCHAR 2202
ENCODING 8706
SWIDTH 540 0
DWIDTH 12 0
BBX 11 16 1 0
BITMAP
1C00
3E00
0F00
0780
0380
01C0
3FC0
71E0
E1E0
E0E0
E0E0
E1E0
E1C0
F1C0
7380
3F00
ENDCHAR
STARTCHAR 2203
ENCODING 8707
SWIDTH 585 0
DWIDTH 13 0
BBX 12 15 1 0
BITMAP
7FF0
71E0
61C0
C1C0
01C0
11C0
19C0
1FC0
19C0
11C0
01C0
C1C0
C1C0
F3E0
FFF0
ENDCHAR
STARTCHAR 2204
ENCODING 8708
SWIDTH 540 0
DWIDTH 12 0
BBX 12 21 1 -3
BITMAP
0200
0200
0600
7FF0
75E0
65C0
C5C0
05C0
1DC0
19C0
1FC0
19C0
19C0
09C0
D9C0
D1C0
F3E0
FFF0
1000
3000
3000
ENDCHAR
STARTCHAR 2205
ENCODING 8709
SWIDTH 540 0
DWIDTH 12 0
BBX 11 11 1 0
BITMAP
3F60
61C0
C1C0
C340
8660
8C60
9840
F0C0
60C0
FF80
8E00
ENDCHAR
STARTCHAR 2206
ENCODING 8710
SWIDTH 630 0
DWIDTH 14 0
BBX 14 15 0 0
BITMAP
0300
0380
0380
07C0
05C0
0DE0
09E0
18F0
10F0
3070
2078
6038
403C
C01C
7FFC
ENDCHAR
STARTCHAR 2207
ENCODING 8711
SWIDTH 630 0
DWIDTH 14 0
BBX 14 15 0 0
BITMAP
FFFC
7004
780C
3808
3C18
3C10
1E30
1E20
0E20
0F60
0740
07C0
0380
0380
0100
ENDCHAR
STARTCHAR 2208
ENCODING 8712
SWIDTH 540 0
DWIDTH 12 0
BBX 10 10 1 1
BITMAP
1FC0
7FC0
6000
C000
FFC0
FFC0
C000
C000
7000
3FC0
ENDCHAR
STARTCHAR 2209
ENCODING 8713
SWIDTH 540 0
DWIDTH 12 0
BBX 10 16 1 -2
BITMAP
0080
0080
0180
1FC0
7FC0
6300
C200
FFC0
FFC0
C400
CC00
6C00
3FC0
1800
1800
1000
ENDCHAR
STARTCHAR 220B
ENCODING 8715
SWIDTH 540 0
DWIDTH 12 0
BBX 10 10 1 1
BITMAP
FF00
FF80
00C0
00C0
00C0
FFC0
00C0
00C0
0180
FF00
ENDCHAR
STARTCHAR 220C
ENCODING 8716
SWIDTH 540 0
DWIDTH 12 0
BBX 10 16 1 -2
BITMAP
0100
0300
0300
FF00
FF80
04C0
0CC0
0CC0
FFC0
18C0
18C0
1180
FF00
2000
6000
6000
ENDCHAR
STARTCHAR 220E
ENCODING 8718
SWIDTH 540 0
DWIDTH 12 0
BBX 10 15 1 0
BITMAP
FFC0
FFC0
FFC0
FFC0
FFC0
FFC0
FFC0
FFC0
FFC0
FFC0
FFC0
FFC0
FFC0
FFC0
FFC0
ENDCHAR
STARTCHAR 220F
ENCODING 8719
SWIDTH 765 0
DWIDTH 17 0
BBX 15 17 1 -2
BITMAP
FFFE
783C
383C
383C
383C
383C
383C
383C
383C
383C
383C
383C
383C
383C
383C
783C
FE7E
ENDCHAR
STARTCHAR 2211
ENCODING 8721
SWIDTH 630 0
DWIDTH 14 0
BBX 13 17 1 -2
BITMAP
FFF8
F038
7818
3818
3C00
1E00
1E00
0F00
0F00
0600
0C00
0C00
1818
3018
7FF8
FFF8
FFF8
ENDCHAR
STARTCHAR 2212
ENCODING 8722
SWIDTH 540 0
DWIDTH 12 0
BBX 10 2 1 5
BITMAP
FFC0
FFC0
ENDCHAR
STARTCHAR 2213
ENCODING 8723
SWIDTH 540 0
DWIDTH 12 0
BBX 10 11 1 0
BITMAP
FFC0
FFC0
0000
0C00
0C00
0C00
7F80
0C00
0C00
0C00
0800
ENDCHAR
STARTCHAR 2215
ENCODING 8725
SWIDTH 540 0
DWIDTH 12 0
BBX 6 16 3 -2
BITMAP
04
04
0C
0C
08
18
18
10
30
20
60
60
40
C0
C0
80
ENDCHAR
STARTCHAR 2216
ENCODING 8726
SWIDTH 540 0
DWIDTH 12 0
BBX 7 16 3 -2
BITMAP
80
80
C0
40
60
60
20
30
30
10
18
18
0C
0C
04
06
ENDCHAR
STARTCHAR 2217
ENCODING 8727
SWIDTH 540 0
DWIDTH 12 0
BBX 9 10 2 1
BITMAP
1800
1800
9900
FB80
7E00
3C00
FF00
DB00
1800
1800
ENDCHAR
STARTCHAR 2218
ENCODING 8728
SWIDTH 540 0
DWIDTH 12 0
BBX 6 6 3 3
BITMAP
78
CC
CC
C4
CC
78
ENDCHAR
STARTCHAR 2219
ENCODING 8729
SWIDTH 540 0
DWIDTH 12 0
BBX 6 6 3 3
BITMAP
30
7C
FC
FC
FC
78
ENDCHAR
STARTCHAR 221A
ENCODING 8730
SWIDTH 540 0
DWIDTH 12 0
BBX 15 22 0 -3
BITMAP
003E
003E
0020
0060
0060
0060
0040
0040
00C0
00C0
0080
0080
7980
FD80
1D80
1D00
1D00
0F00
0F00
0E00
0600
0600
ENDCHAR
STARTCHAR 221D
ENCODING 8733
SWIDTH 765 0
DWIDTH 17 0
BBX 15 10 1 1
BITMAP
1C02
3F0E
6798
41F0
C1E0
C0F0
C0F0
61B8
771E
1C06
ENDCHAR
STARTCHAR 221E
ENCODING 8734
SWIDTH 945 0
DWIDTH 21 0
BBX 19 10 1 1
BITMAP
1C0300
3F0FC0
679840
41F060
C1E060
C0F060
C0F060
61BCE0
771FC0
1C0F00
ENDCHAR
STARTCHAR 221F
ENCODING 8735
SWIDTH 540 0
DWIDTH 12 0
BBX 10 10 2 0
BITMAP
8000
8000
8000
8000
8000
8000
8000
8000
FFC0
FFC0
ENDCHAR
STARTCHAR 2220
ENCODING 8736
SWIDTH 540 0
DWIDTH 12 0
BBX 12 10 0 0
BITMAP
00C0
0180
0300
0600
0C00
1800
3000
6000
FFE0
7FF0
ENDCHAR
STARTCHAR 2221
ENCODING 8737
SWIDTH 540 0
DWIDTH 12 0
BBX 12 10 0 0
BITMAP
00C0
0180
0F00
0600
0F00
1980
3180
6080
FFE0
7FF0
ENDCHAR
STARTCHAR 2222
ENCODING 8738
SWIDTH 540 0
DWIDTH 12 0
BBX 10 11 1 0
BITMAP
0400
06C0
0780
1F00
F300
C300
7B00
1E00
03C0
06C0
0C00
ENDCHAR
STARTCHAR 2223
ENCODING 8739
SWIDTH 540 0
DWIDTH 12 0
BBX 2 21 5 -5
BITMAP
C0
C0
C0
C0
C0
C0
C0
C0
C0
C0
C0
C0
C0
C0
C0
C0
C0
C0
C0
C0
C0
ENDCHAR
STARTCHAR 2224
ENCODING 8740
SWIDTH 540 0
DWIDTH 12 0
BBX 9 21 2 -5
BITMAP
1800
1800
1800
1800
1800
1800
1800
1800
1B80
1E00
1C00
3800
F800
9800
1800
1800
1800
1800
1800
1800
1800
ENDCHAR
STARTCHAR 2225
ENCODING 8741
SWIDTH 540 0
DWIDTH 12 0
BBX 6 21 3 -5
BITMAP
C4
C4
C4
C4
C4
C4
84
84
84
84
84
84
84
84
84
C4
C4
C4
C4
C4
C4
ENDCHAR
STARTCHAR 2226
ENCODING 8742
SWIDTH 540 0
DWIDTH 12 0
BBX 11 21 1 -5
BITMAP
3100
3100
3100
3100
3100
3100
2100
2160
21C0
2380
2F00
3D00
7100
E100
A100
3100
3100
3100
3100
3100
3100
ENDCHAR
STARTCHAR 2227
ENCODING 8743
SWIDTH 540 0
DWIDTH 12 0
BBX 10 11 1 0
BITMAP
0C00
0C00
1E00
1200
3300
2100
6180
6080
C0C0
C040
8040
ENDCHAR
STARTCHAR 2228
ENCODING 8744
SWIDTH 540 0
DWIDTH 12 0
BBX 11 11 1 0
BITMAP
8060
C040
C0C0
6080
6180
3100
3300
1200
1E00
0C00
0C00
ENDCHAR
STARTCHAR 2229
ENCODING 8745
SWIDTH 540 0
DWIDTH 12 0
BBX 10 11 1 0
BITMAP
1F00
7F80
60C0
C0C0
C040
C040
C040
C040
C040
C040
C040
ENDCHAR
STARTCHAR 222A
ENCODING 8746
SWIDTH 540 0
DWIDTH 12 0
BBX 10 11 1 0
BITMAP
C040
C040
C040
C040
C040
C040
C040
C0C0
6080
7F80
1E00
ENDCHAR
STARTCHAR 222B
ENCODING 8747
SWIDTH 315 0
DWIDTH 7 0
BBX 8 19 0 -3
BITMAP
07
0F
1C
18
38
38
38
38
38
38
38
38
3C
1C
18
18
38
F0
E0
ENDCHAR
STARTCHAR 222C
ENCODING 8748
SWIDTH 585 0
DWIDTH 13 0
BBX 14 19 0 -3
BITMAP
0738
0F7C
1C60
18E0
38E0
38E0
38E0
38E0
38E0
38E0
38E0
38E0
3CE0
1CE0
18E0
18E0
38C0
F7C0
E780
ENDCHAR
STARTCHAR 222D
ENCODING 8749
SWIDTH 810 0
DWIDTH 18 0
BBX 19 19 0 -3
BITMAP
0738E0
0F7DE0
1C6380
18E300
38E700
38E700
38E700
38E700
38E700
38E780
38E780
38E380
3CE380
1CE380
18E380
18E300
38C300
F7DE00
E79C00
ENDCHAR
STARTCHAR 222E
ENCODING 8750
SWIDTH 405 0
DWIDTH 9 0
BBX 9 19 0 -3
BITMAP
0300
0780
0F80
1C00
1C00
1C00
7F00
5D80
DC80
DC80
DC80
5D80
7F00
1E00
1C00
0C00
1C00
7800
7000
ENDCHAR
STARTCHAR 222F
ENCODING 8751
SWIDTH 630 0
DWIDTH 14 0
BBX 14 19 0 -3
BITMAP
031C
0FBC
0C70
1C60
1C60
1FE0
3FF8
7CEC
DCF4
DC74
DC74
7C7C
3C78
1FF0
1C70
1C60
1860
FBC0
F380
ENDCHAR
STARTCHAR 2230
ENCODING 8752
SWIDTH 900 0
DWIDTH 20 0
BBX 20 19 0 -3
BITMAP
031C70
0FBCF0
0C7190
1C6380
1C6380
1FFF80
3FFFC0
7CE3E0
5CF3B0
5C73B0
5C73B0
7C73E0
3F77C0
1FFF80
1C7180
1C6180
186380
FBCF00
F38E00
ENDCHAR
STARTCHAR 2234
ENCODING 8756
SWIDTH 540 0
DWIDTH 12 0
BBX 10 9 1 1
BITMAP
0C00
1E00
1E00
0C00
0000
0000
E1C0
F1C0
E1C0
ENDCHAR
STARTCHAR 2235
ENCODING 8757
SWIDTH 540 0
DWIDTH 12 0
BBX 10 9 1 1
BITMAP
6180
F1C0
F1C0
6180
0000
0000
0E00
1E00
0E00
ENDCHAR
STARTCHAR 2236
ENCODING 8758
SWIDTH 540 0
DWIDTH 12 0
BBX 4 10 4 1
BITMAP
20
F0
F0
60
00
00
00
70
F0
70
ENDCHAR
STARTCHAR 223C
ENCODING 8764
SWIDTH 540 0
DWIDTH 12 0
BBX 10 3 1 4
BITMAP
7C40
CFC0
8380
ENDCHAR
STARTCHAR 223D
ENCODING 8765
SWIDTH 540 0
DWIDTH 12 0
BBX 10 3 1 4
BITMAP
C780
7FC0
3840
ENDCHAR
STARTCHAR 2241
ENCODING 8769
SWIDTH 540 0
DWIDTH 12 0
BBX 10 7 1 3
BITMAP
0600
0600
7C40
CFC0
8F80
0800
1800
ENDCHAR
STARTCHAR 2243
ENCODING 8771
SWIDTH 540 0
DWIDTH 12 0
BBX 10 7 1 3
BITMAP
3840
7EC0
C780
0000
0000
0000
FFC0
ENDCHAR
STARTCHAR 2245
ENCODING 8773
SWIDTH 540 0
DWIDTH 12 0
BBX 10 9 1 1
BITMAP
7C40
EFC0
8380
0000
FFC0
FFC0
0000
FFC0
FFC0
ENDCHAR
STARTCHAR 2248
ENCODING 8776
SWIDTH 540 0
DWIDTH 12 0
BBX 10 8 1 2
BITMAP
3000
7CC0
CF80
8300
0000
7840
FFC0
8780
ENDCHAR
STARTCHAR 2249
ENCODING 8777
SWIDTH 540 0
DWIDTH 12 0
BBX 10 16 1 -2
BITMAP
0180
0180
0100
0300
3200
7EC0
CF80
8700
0C00
7C40
FFC0
9F80
1000
3000
3000
2000
ENDCHAR
STARTCHAR 2254
ENCODING 8788
SWIDTH 540 0
DWIDTH 12 0
BBX 10 7 1 2
BITMAP
E000
EFC0
C000
0000
E000
EFC0
E000
ENDCHAR
STARTCHAR 2259
ENCODING 8793
SWIDTH 540 0
DWIDTH 12 0
BBX 10 13 1 3
BITMAP
0C00
0E00
1A00
3300
3100
6180
0000
0000
FFC0
8000
0000
0000
FFC0
ENDCHAR
STARTCHAR 225C
ENCODING 8796
SWIDTH 540 0
DWIDTH 12 0
BBX 10 13 1 3
BITMAP
0C00
0E00
1A00
3300
3100
3F00
0000
0000
FFC0
8000
0000
0000
FFC0
ENDCHAR
STARTCHAR 2260
ENCODING 8800
SWIDTH 540 0
DWIDTH 12 0
BBX 10 16 1 -2
BITMAP
0180
0180
0100
0300
0200
0600
FFC0
0400
0C00
0C00
FFC0
1800
1000
3000
3000
2000
ENDCHAR
STARTCHAR 2261
ENCODING 8801
SWIDTH 540 0
DWIDTH 12 0
BBX 10 8 1 2
BITMAP
FFC0
FFC0
0000
FFC0
FFC0
0000
0000
FFC0
ENDCHAR
STARTCHAR 2262
ENCODING 8802
SWIDTH 540 0
DWIDTH 12 0
BBX 10 16 1 -2
BITMAP
0180
0100
0300
0300
FFC0
FFC0
0600
FFC0
FFC0
0C00
0800
FFC0
1000
3000
3000
2000
ENDCHAR
STARTCHAR 2263
ENCODING 8803
SWIDTH 540 0
DWIDTH 12 0
BBX 10 11 1 0
BITMAP
FFC0
FFC0
0000
FFC0
FFC0
0000
FFC0
FFC0
0000
FFC0
FFC0
ENDCHAR
STARTCHAR 2264
ENCODING 8804
SWIDTH 540 0
DWIDTH 12 0
BBX 10 11 1 0
BITMAP
01C0
0780
1C00
7000
C000
7800
0E00
03C0
00C0
FFC0
FFC0
ENDCHAR
STARTCHAR 2265
ENCODING 8805
SWIDTH 540 0
DWIDTH 12 0
BBX 10 11 1 0
BITMAP
E000
3800
0E00
03C0
00C0
0780
1E00
F000
C000
FFC0
FFC0
ENDCHAR
STARTCHAR 226A
ENCODING 8810
SWIDTH 540 0
DWIDTH 12 0
BBX 12 11 0 0
BITMAP
0630
0C60
18C0
3180
6700
C600
7300
39C0
1CE0
0630
0200
ENDCHAR
STARTCHAR 226B
ENCODING 8811
SWIDTH 540 0
DWIDTH 12 0
BBX 12 11 0 0
BITMAP
C600
6380
31C0
1CE0
0E30
0630
0C60
18C0
7380
E300
0200
ENDCHAR
STARTCHAR 2270
ENCODING 8816
SWIDTH 540 0
DWIDTH 12 0
BBX 10 16 1 -2
BITMAP
0100
0100
0300
03C0
0780
1E00
7400
CC00
7C00
0E00
1BC0
10C0
FFC0
FFC0
2000
6000
ENDCHAR
STARTCHAR 2271
ENCODING 8817
SWIDTH 540 0
DWIDTH 12 0
BBX 10 16 1 -2
BITMAP
0300
0200
0600
E600
3C00
0E00
0FC0
08C0
1F80
1E00
F000
F000
FFC0
FFC0
6000
4000
ENDCHAR
STARTCHAR 2282
ENCODING 8834
SWIDTH 540 0
DWIDTH 12 0
BBX 10 10 1 1
BITMAP
1FC0
7FC0
6000
C000
C000
C000
C000
C000
7000
3FC0
ENDCHAR
STARTCHAR 2283
ENCODING 8835
SWIDTH 540 0
DWIDTH 12 0
BBX 10 10 1 1
BITMAP
FF00
FF80
00C0
00C0
00C0
0040
00C0
00C0
0180
FF00
ENDCHAR
STARTCHAR 2284
ENCODING 8836
SWIDTH 540 0
DWIDTH 12 0
BBX 10 16 1 -2
BITMAP
0080
0080
0180
1FC0
7FC0
6300
C200
C600
C600
C400
CC00
7C00
3FC0
1800
1000
3000
ENDCHAR
STARTCHAR 2285
ENCODING 8837
SWIDTH 540 0
DWIDTH 12 0
BBX 10 16 1 -2
BITMAP
0100
0300
0200
FF00
FF80
04C0
0CC0
0CC0
0840
18C0
10C0
3180
FF00
2000
6000
6000
ENDCHAR
STARTCHAR 2286
ENCODING 8838
SWIDTH 540 0
DWIDTH 12 0
BBX 10 10 1 1
BITMAP
3FC0
7000
C000
C000
C000
E000
7FC0
0FC0
0000
FFC0
ENDCHAR
STARTCHAR 2287
ENCODING 8839
SWIDTH 540 0
DWIDTH 12 0
BBX 10 10 1 1
BITMAP
FF00
03C0
00C0
00C0
00C0
00C0
FF80
FC00
0000
FFC0
ENDCHAR
STARTCHAR 2288
ENCODING 8840
SWIDTH 540 0
DWIDTH 12 0
BBX 10 16 1 -2
BITMAP
0180
0180
0100
3FC0
7200
C600
C600
C400
EC00
7FC0
0FC0
1800
FFC0
3000
3000
2000
ENDCHAR
STARTCHAR 2289
ENCODING 8841
SWIDTH 540 0
DWIDTH 12 0
BBX 10 16 1 -2
BITMAP
0300
0300
0200
FF00
07C0
04C0
0CC0
08C0
18C0
FF80
FC00
3000
FFC0
2000
6000
4000
ENDCHAR
STARTCHAR 2295
ENCODING 8853
SWIDTH 540 0
DWIDTH 12 0
BBX 11 11 1 0
BITMAP
3F00
6180
C0C0
CC40
8C60
BF60
8C40
CCC0
60C0
3F80
0E00
ENDCHAR
STARTCHAR 22C5
ENCODING 8901
SWIDTH 540 0
DWIDTH 12 0
BBX 4 4 4 4
BITMAP
60
F0
F0
60
ENDCHAR
STARTCHAR 2308
ENCODING 8968
SWIDTH 270 0
DWIDTH 6 0
BBX 5 22 1 -6
BITMAP
F8
C0
C0
C0
C0
C0
C0
C0
C0
C0
C0
C0
C0
C0
C0
C0
C0
C0
C0
C0
C0
C0
ENDCHAR
STARTCHAR 2309
ENCODING 8969
SWIDTH 270 0
DWIDTH 6 0
BBX 6 23 0 -6
BITMAP
84
FC
1C
0C
0C
0C
0C
0C
0C
0C
0C
0C
0C
0C
0C
0C
0C
0C
0C
0C
0C
0C
0C
ENDCHAR
STARTCHAR 230A
ENCODING 8970
SWIDTH 270 0
DWIDTH 6 0
BBX 5 22 1 -6
BITMAP
C0
C0
C0
C0
C0
C0
C0
C0
C0
C0
C0
C0
C0
C0
C0
C0
C0
C0
C0
C0
F0
F8
ENDCHAR
STARTCHAR 230B
ENCODING 8971
SWIDTH 270 0
DWIDTH 6 0
BBX 6 22 0 -6
BITMAP
0C
0C
0C
0C
0C
0C
0C
0C
0C
0C
0C
0C
0C
0C
0C
0C
0C
0C
0C
0C
3C
FC
ENDCHAR
STARTCHAR 23DE
ENCODING 9182
SWIDTH 855 0
DWIDTH 19 0
BBX 19 7 0 2
BITMAP
004000
00E000
3FFF80
7FBFC0
7FBFC0
400060
C00060
ENDCHAR
STARTCHAR 23DF
ENCODING 9183
SWIDTH 855 0
DWIDTH 19 0
BBX 19 7 0 1
BITMAP
C00060
420840
7FBFC0
7FBFC0
19F300
00E000
004000
ENDCHAR
STARTCHAR 25A0
ENCODING 9632
SWIDTH 720 0
DWIDTH 16 0
BBX 14 15 1 0
BITMAP
FFFC
FFFC
FFFC
FFFC
FFFC
FFFC
FFFC
FFFC
FFFC
FFFC
FFFC
FFFC
FFFC
FFFC
FFFC
ENDCHAR
STARTCHAR 25A1
ENCODING 9633
SWIDTH 720 0
DWIDTH 16 0
BBX 14 15 1 0
BITMAP
FFFC
8004
8004
8004
8004
8004
8004
8004
8004
8004
8004
8004
8004
8004
FFFC
ENDCHAR
STARTCHAR 25B2
ENCODING 9650
SWIDTH 810 0
DWIDTH 18 0
BBX 16 15 1 0
BITMAP
0180
01C0
03C0
07E0
07E0
0FF0
0FF0
1FF8
1FFC
3FFC
7FFE
7FFE
FFFF
FFFF
FFFF
ENDCHAR
STARTCHAR 25B3
ENCODING 9651
SWIDTH 810 0
DWIDTH 18 0
BBX 16 15 1 0
BITMAP
0180
01C0
0340
0660
0620
0C30
0810
1818
100C
3004
6006
6002
C003
8001
FFFF
ENDCHAR
STARTCHAR 25B6
ENCODING 9654
SWIDTH 720 0
DWIDTH 16 0
BBX 15 17 1 -1
BITMAP
C000
F000
FC00
FF00
FF80
FFE0
FFF8
FFFE
FFFE
FFFE
FFF8
FFE0
FF80
FE00
FC00
F000
C000
ENDCHAR
STARTCHAR 25B7
ENCODING 9655
SWIDTH 720 0
DWIDTH 16 0
BBX 15 17 1 -1
BITMAP
C000
F000
DC00
C700
C380
C0E0
C038
C00E
C006
C00C
C038
C0E0
C380
CE00
DC00
F000
C000
ENDCHAR
STARTCHAR 25BC
ENCODING 9660
SWIDTH 810 0
DWIDTH 18 0
BBX 16 15 1 0
BITMAP
FFFF
FFFF
FFFF
7FFE
7FFE
3FFC
1FFC
1FF8
0FF0
0FF0
07E0
07E0
03C0
03C0
0180
ENDCHAR
STARTCHAR 25BD
ENCODING 9661
SWIDTH 810 0
DWIDTH 18 0
BBX 16 15 1 0
BITMAP
FFFF
8001
C003
4002
6006
300C
100C
1818
0810
0C30
0420
0660
03C0
03C0
0180
ENDCHAR
STARTCHAR 25C0
ENCODING 9664
SWIDTH 720 0
DWIDTH 16 0
BBX 15 17 1 -1
BITMAP
000E
001E
007E
01FE
07FE
0FFE
3FFE
FFFE
FFFE
7FFE
3FFE
0FFE
03FE
00FE
007E
001E
0006
ENDCHAR
STARTCHAR 25C1
ENCODING 9665
SWIDTH 720 0
DWIDTH 16 0
BBX 15 17 1 -1
BITMAP
0006
001E
0076
01C6
0306
0E06
3806
E006
C006
E006
3806
0E06
0386
00C6
0076
001E
0006
ENDCHAR
STARTCHAR 25C6
ENCODING 9670
SWIDTH 720 0
DWIDTH 16 0
BBX 15 15 1 0
BITMAP
0300
0780
0FC0
1FE0
3FF0
7FF8
7FFC
FFFE
7FFC
3FF8
1FF0
0FE0
0FC0
0780
0300
ENDCHAR
STARTCHAR 25C7
ENCODING 9671
SWIDTH 720 0
DWIDTH 16 0
BBX 15 15 1 0
BITMAP
0300
0780
0CC0
1860
3030
6018
400C
8006
400C
2018
1030
0860
0CC0
0780
0300
ENDCHAR
STARTCHAR 25CA
ENCODING 9674
SWIDTH 540 0
DWIDTH 12 0
BBX 11 15 1 0
BITMAP
0400
0E00
1A00
1100
3180
60C0
C060
8020
C040
60C0
3180
1300
1A00
0E00
0400
ENDCHAR
STARTCHAR 26AD
ENCODING 9901
SWIDTH 990 0
DWIDTH 22 0
BBX 21 13 1 -1
BITMAP
0F9F80
3DFFC0
607060
C0D030
C09810
C09818
819818
C09818
C09810
C0D030
607060
3FFFC0
0F9F80
ENDCHAR
STARTCHAR 26AE
ENCODING 9902
SWIDTH 1260 0
DWIDTH 28 0
BBX 27 17 1 -3
BITMAP
00040000
00040000
1FC47F00
38E4C380
603580C0
C01700C0
C01E0060
801E0060
801E0060
C01E0060
C0170060
C01700C0
603581C0
3DE4F780
0F843E00
00040000
00040000
ENDCHAR
STARTCHAR 26AF
ENCODING 9903
SWIDTH 1350 0
DWIDTH 30 0
BBX 29 13 1 -1
BITMAP
0F801F80
3DE03DE0
60306070
C018C030
C0188018
C0188018
801F8018
C0188018
C018C018
C018C030
60306070
3FE03FE0
0F801F80
ENDCHAR
STARTCHAR 27C2
ENCODING 10178
SWIDTH 540 0
DWIDTH 12 0
BBX 11 11 1 0
BITMAP
0C00
0C00
0C00
0C00
0C00
0C00
0C00
0C00
0C00
FFE0
FFE0
ENDCHAR
STARTCHAR 27E8
ENCODING 10216
SWIDTH 360 0
DWIDTH 8 0
BBX 7 22 1 -6
BITMAP
06
04
0C
0C
18
18
38
30
70
E0
E0
E0
70
70
30
38
18
08
0C
04
04
06
ENDCHAR
STARTCHAR 27E9
ENCODING 10217
SWIDTH 360 0
DWIDTH 8 0
BBX 7 22 1 -6
BITMAP
80
C0
C0
60
60
70
30
38
18
1C
1E
1E
1C
18
38
30
60
60
40
C0
C0
80
ENDCHAR
STARTCHAR 2983
ENCODING 10627
SWIDTH 540 0
DWIDTH 12 0
BBX 11 22 1 -6
BITMAP
1FE0
3B00
3300
3300
3300
3B00
3B00
3B00
3B00
7300
C300
7300
3B00
3B00
3B00
3B00
3300
3300
3300
3B00
1FC0
0FE0
ENDCHAR
STARTCHAR 2984
ENCODING 10628
SWIDTH 540 0
DWIDTH 12 0
BBX 11 22 1 -6
BITMAP
FE00
3B00
1B80
1B80
1B80
1B80
1B80
1B80
1B80
19C0
1860
19C0
1B80
1B80
1B80
1B80
1B80
1B80
1B80
3B00
7F00
FC00
ENDCHAR
STARTCHAR 299B
ENCODING 10651
SWIDTH 540 0
DWIDTH 12 0
BBX 12 10 0 0
BITMAP
3000
1800
0F00
0600
0F00
0980
18C0
1860
7FF0
FFF0
ENDCHAR
STARTCHAR 299D
ENCODING 10653
SWIDTH 540 0
DWIDTH 12 0
BBX 10 10 2 0
BITMAP
8000
8000
F000
FC00
8600
9200
9300
8300
FFC0
FFC0
ENDCHAR
STARTCHAR 2A2F
ENCODING 10799
SWIDTH 540 0
DWIDTH 12 0
BBX 10 10 1 0
BITMAP
C0C0
6180
7180
3300
1E00
0C00
1E00
3300
6180
C0C0
ENDCHAR
STARTCHAR 2B58
ENCODING 11096
SWIDTH 540 0
DWIDTH 12 0
BBX 11 11 1 0
BITMAP
3F00
6180
C0C0
C040
8060
8060
8040
C0C0
60C0
3F80
0C00
ENDCHAR
STARTCHAR 2E18
ENCODING 11800
SWIDTH 540 0
DWIDTH 12 0
BBX 10 16 1 -6
BITMAP
0E00
0E00
0E00
0000
0400
0C00
0C00
1E00
3600
3600
6600
6680
E6C0
70C0
7FC0
1F00
ENDCHAR
STARTCHAR 2E22
ENCODING 11810
SWIDTH 270 0
DWIDTH 6 0
BBX 5 11 1 5
BITMAP
F8
C0
C0
C0
C0
C0
C0
C0
C0
C0
C0
ENDCHAR
STARTCHAR 2E23
ENCODING 11811
SWIDTH 270 0
DWIDTH 6 0
BBX 6 11 0 5
BITMAP
FC
0C
0C
0C
0C
0C
0C
0C
0C
0C
0C
ENDCHAR
STARTCHAR 2E24
ENCODING 11812
SWIDTH 270 0
DWIDTH 6 0
BBX 5 11 1 -6
BITMAP
C0
C0
C0
C0
C0
C0
C0
C0
C0
F0
F8
ENDCHAR
STARTCHAR 2E25
ENCODING 11813
SWIDTH 270 0
DWIDTH 6 0
BBX 6 11 0 -6
BITMAP
0C
0C
0C
0C
0C
0C
0C
0C
0C
3C
FC
ENDCHAR
STARTCHAR 2E3A
ENCODING 11834
SWIDTH 2025 0
DWIDTH 45 0
BBX 43 2 1 5
BITMAP
7FFFFFFFFFE0
FFFFFFFFFFE0
ENDCHAR
STARTCHAR 2E3B
ENCODING 11835
SWIDTH 3060 0
DWIDTH 68 0
BBX 66 2 1 5
BITMAP
7FFFFFFFFFFFFFFFC0
FFFFFFFFFFFFFFFFC0
ENDCHAR
STARTCHAR FB01
ENCODING 64257
SWIDTH 675 0
DWIDTH 15 0
BBX 14 16 1 0
BITMAP
07E0
1FF0
3870
3870
7800
7800
FFF8
FEF8
7878
7838
7838
7838
7838
7878
7878
FCFC
ENDCHAR
STARTCHAR FB02
ENCODING 64258
SWIDTH 675 0
DWIDTH 15 0
BBX 14 16 1 0
BITMAP
07D8
1FF8
3878
3838
7838
7838
FE38
7C38
7838
7838
7838
7838
7838
7838
7878
FCFC
ENDCHAR
ENDFONT
